<?xml version="1.0" standalone="no"?>
<!DOCTYPE svg PUBLIC "-//W3C//DTD SVG 1.1//EN" "http://www.w3.org/Graphics/SVG/1.1/DTD/svg11.dtd" >
<svg>
<metadata>
Created by FontForge 20090914 at Thu Mar 28 12:53:02 2019
 By www-data
Copyright (c) 2011-2014 by tyPoland Lukasz Dziedzic (http://www.typoland.com/) with Reserved Font Name "Lato". Licensed under the SIL Open Font License, Version 1.1 (http://scripts.sil.org/OFL). 
</metadata>
<defs>
<font id="Lato-Light" horiz-adv-x="1160" >
  <font-face 
    font-family="Lato Light"
    font-weight="300"
    font-stretch="normal"
    units-per-em="2000"
    panose-1="2 15 5 2 2 2 4 3 2 3"
    ascent="1610"
    descent="-390"
    x-height="995"
    cap-height="1415"
    bbox="-65.001 -421.995 2540 1858"
    underline-thickness="59"
    underline-position="-452"
    unicode-range="U+0020-U+04FF"
  />
<missing-glyph horiz-adv-x="1025" 
d="M262 1134c14 13.333 29.4961 26.0039 46.4961 38.0039s35.5 22.667 55.5 32s41.833 16.833 65.5 22.5s49.5 8.5 77.5 8.5c36 0 69.5 -5.16699 100.5 -15.5s58 -25.333 81 -45s41 -43.334 54 -71.001s19.5 -58.834 19.5 -93.501c0 -36.667 -5.5 -68.167 -16.5 -94.5
s-24.667 -49.333 -41 -69s-34.166 -37 -53.499 -52l-54.5 -42.5c-17 -13.333 -31.667 -26.5 -44 -39.5s-19.166 -27.833 -20.499 -44.5l-10 -114h-65l-6 122c-1.33301 20.667 3.33398 38.834 14.001 54.501s24.167 30.5 40.5 44.5s34.333 28 54 42
s37.834 29.833 54.501 47.5s30.667 37.667 42 60s17 49.166 17 80.499c0 24 -4.66699 45.333 -14 64s-21.833 34.5 -37.5 47.5s-34 23 -55 30s-43.167 10.5 -66.5 10.5c-30.667 0 -57 -3.83301 -79 -11.5s-40.667 -16.334 -56 -26.001s-27.5 -18.334 -36.5 -26.001
s-15.833 -11.5 -20.5 -11.5c-9.33301 0 -16.333 3.66699 -21 11zM409.996 265.004c0 21.333 7.33301 39.666 22 54.999s33 23 55 23c21.333 0 39.333 -7.66699 54 -23s22 -33.666 22 -54.999s-7.33301 -39.666 -22 -54.999s-32.667 -23 -54 -23
c-22 0 -40.333 7.66699 -55 23s-22 33.666 -22 54.999zM46.9961 1415h931v-1415h-931v1415zM81.9961 36.0039h859v1343h-859v-1343z" />
    <glyph glyph-name="f_b.liga" unicode="fb" horiz-adv-x="1780" 
d="M937 822c43.333 58.667 94.002 104.835 152.002 138.502s125.333 50.5 202 50.5c60 0 113.667 -11 161 -33s87.5 -53.667 120.5 -95s58.167 -92.166 75.5 -152.499s26 -128.833 26 -205.5c0 -80.667 -9.66699 -154.167 -29 -220.5s-47.5 -123 -84.5 -170
s-82.167 -83.333 -135.5 -109s-114.333 -38.5 -183 -38.5c-70.667 0 -130.834 13.5 -180.501 40.5s-92.5 67.167 -128.5 120.5l-7 -123c-2 -16.667 -11 -25 -27 -25h-58v1386c-31.333 6 -64 11 -98 15s-65.667 6 -95 6c-60 0 -111.167 -8.5 -153.5 -25.5
s-76.666 -40.833 -102.999 -71.5s-45.5 -66.834 -57.5 -108.501s-18 -87.5 -18 -137.5v-100h323v-71h-320v-893h-96v891l-140 9c-18.667 2 -28 10.333 -28 25v39h168v100c0 59.333 7.83301 114 23.5 164s40.667 93.167 75 129.5s78.666 64.666 132.999 84.999
s120.166 30.5 197.499 30.5c46 0 90.167 -2.83301 132.5 -8.5s87.833 -8.83398 136.5 -9.50098h16v-633zM937.002 217.001c38.667 -57.333 81.1689 -97.501 127.502 -120.501s98.5 -34.5 156.5 -34.5c59.333 0 111.166 10.667 155.499 32s81.333 51.833 111 91.5
s51.834 87.834 66.501 144.501s22 120.334 22 191.001c0 137.333 -27.333 240.666 -82 309.999s-131.334 104 -230.001 104c-70.667 0 -132.334 -17 -185.001 -51s-100 -81.333 -142 -142v-525z" />
    <glyph glyph-name="f_f_b.liga" unicode="ffb" horiz-adv-x="2388" 
d="M223 0l0.000976562 890.999l-140 9c-18.667 2 -28 10.333 -28 25v39h168v113c0 56.667 7.33301 106.5 22 149.5s35.334 78.833 62.001 107.5s58.667 50.167 96 64.5s78.666 21.5 123.999 21.5c20.667 0 41.5 -1.66699 62.5 -5s39.833 -8.66602 56.5 -15.999l-3 -46
c-1.33301 -6 -4.16602 -9.66699 -8.49902 -11s-10.5 -1.83301 -18.5 -1.5s-18.333 1.33301 -31 3s-27.334 2.5 -44.001 2.5c-32.667 0 -62.834 -4.83301 -90.501 -14.5s-51.5 -25.167 -71.5 -46.5s-35.5 -49.333 -46.5 -84s-16.5 -77 -16.5 -127v-110h516v100
c0 59.333 7.83301 114 23.5 164s40.5 93.167 74.5 129.5s78.167 64.666 132.5 84.999s120.166 30.5 197.499 30.5c23.333 0 46 -0.833008 68 -2.5s43.833 -3.66699 65.5 -6s43.834 -4.5 66.501 -6.5s46 -3 70 -3h16v-633c43.333 58.667 94 104.834 152 138.501
s125.333 50.5 202 50.5c60 0 113.667 -11 161 -33s87.5 -53.667 120.5 -95s58.167 -92.166 75.5 -152.499s26 -128.833 26 -205.5c0 -80.667 -9.66699 -154.167 -29 -220.5s-47.5 -123 -84.5 -170s-82.167 -83.333 -135.5 -109s-114.333 -38.5 -183 -38.5
c-70.667 0 -130.834 13.5 -180.501 40.5s-92.5 67.167 -128.5 120.5l-7 -123c-2 -16.667 -11 -25 -27 -25h-58v1386c-32 6 -65 11 -99 15s-65.333 6 -94 6c-60 0 -111.167 -8.5 -153.5 -25.5s-76.666 -40.833 -102.999 -71.5s-45.5 -66.834 -57.5 -108.501
s-18 -87.5 -18 -137.5v-100h322v-71h-320v-893h-95v893h-513v-893h-96zM1546 216.999c38.667 -57.333 81.1699 -97.501 127.503 -120.501s98.5 -34.5 156.5 -34.5c59.333 0 111.166 10.667 155.499 32s81.333 51.833 110.999 91.5
c29.667 39.667 51.834 87.834 66.501 144.501s22 120.334 22 191.001c0 137.333 -27.333 240.666 -82 309.999s-131.334 104 -230.001 104c-70.667 0 -132.334 -17 -185.001 -51s-100 -81.333 -142 -142v-525z" />
    <glyph glyph-name="f_f.liga" unicode="ff" horiz-adv-x="1289" 
d="M223 0l-0.00195312 891l-140 9c-18.667 2 -28 10.333 -28 25v39h168v113c0 56.667 7.33301 106.5 22 149.5s35.334 78.833 62.001 107.5s58.667 50.167 96 64.5s78.666 21.5 123.999 21.5c20.667 0 41.5 -1.66699 62.5 -5s39.833 -8.66602 56.5 -15.999l-3 -46
c-1.33301 -6 -4.16602 -9.66699 -8.49902 -11s-10.5 -1.83301 -18.5 -1.5s-18.333 1.33301 -31 3s-27.334 2.5 -44.001 2.5c-32.667 0 -62.834 -4.83301 -90.501 -14.5s-51.5 -25.167 -71.5 -46.5s-35.5 -49.333 -46.5 -84s-16.5 -77 -16.5 -127v-110h516v131
c0 56.667 7.33301 106.5 22 149.5s35.334 78.833 62.001 107.5s58.667 50.167 96 64.5s78.666 21.5 123.999 21.5c20.667 0 41.5 -1.83301 62.5 -5.5s39.5 -8.83398 55.5 -15.501l-3 -46c-0.666992 -6 -3.16699 -9.83301 -7.5 -11.5s-10.666 -2.33398 -18.999 -2.00098
s-18.666 1.33301 -30.999 3s-27.166 2.5 -44.499 2.5c-32.667 0 -62.667 -4.83301 -90 -14.5s-51 -25.167 -71 -46.5s-35.5 -49.166 -46.5 -83.499s-16.5 -76.5 -16.5 -126.5v-128h322v-71h-320v-893h-95v893h-513v-893h-96z" />
    <glyph glyph-name="f_h.liga" unicode="fh" horiz-adv-x="1778" 
d="M937 827c46 56 98.5 100.67 157.5 134.003s125.167 50 198.5 50c54.667 0 102.834 -8.66699 144.501 -26s76.167 -42.333 103.5 -75s48 -72 62 -118s21 -98 21 -156v-636h-96v636c0 93.333 -21.333 166.5 -64 219.5s-107.667 79.5 -195 79.5
c-64.667 0 -125.167 -16.5 -181.5 -49.5s-106.5 -78.833 -150.5 -137.5v-748h-96v1386c-31.333 6 -64 11 -98 15s-65.667 6 -95 6c-60 0 -111.167 -8.5 -153.5 -25.5s-76.666 -40.833 -102.999 -71.5s-45.5 -66.834 -57.5 -108.501s-18 -87.5 -18 -137.5v-100h323v-71h-320
v-893h-96v891l-140 9c-18.667 2 -28 10.333 -28 25v39h168v100c0 59.333 7.83301 114 23.5 164s40.667 93.167 75 129.5s78.666 64.666 132.999 84.999s120.166 30.5 197.499 30.5c46 0 90.167 -2.83301 132.5 -8.5s87.833 -8.83398 136.5 -9.50098h16v-628z" />
    <glyph glyph-name="f_f_h.liga" unicode="ffh" horiz-adv-x="2386" 
d="M223 0l-0.000976562 891.001l-140 9c-18.667 2 -28 10.333 -28 25v39h168v113c0 56.667 7.33301 106.5 22 149.5s35.334 78.833 62.001 107.5s58.667 50.167 96 64.5s78.666 21.5 123.999 21.5c20.667 0 41.5 -1.66699 62.5 -5s39.833 -8.66602 56.5 -15.999l-3 -46
c-1.33301 -6 -4.16602 -9.66699 -8.49902 -11s-10.5 -1.83301 -18.5 -1.5s-18.333 1.33301 -31 3s-27.334 2.5 -44.001 2.5c-32.667 0 -62.834 -4.83301 -90.501 -14.5s-51.5 -25.167 -71.5 -46.5s-35.5 -49.333 -46.5 -84s-16.5 -77 -16.5 -127v-110h516v100
c0 59.333 7.83301 114 23.5 164s40.5 93.167 74.5 129.5s78.167 64.666 132.5 84.999s120.166 30.5 197.499 30.5c23.333 0 46 -0.833008 68 -2.5s43.833 -3.66699 65.5 -6s43.834 -4.5 66.501 -6.5s46 -3 70 -3h16v-628c46 56 98.5 100.667 157.5 134s125.167 50 198.5 50
c54.667 0 102.834 -8.66699 144.501 -26s76.167 -42.333 103.5 -75s48 -72 62 -118s21 -98 21 -156v-636h-96v636c0 93.333 -21.333 166.5 -64 219.5s-107.667 79.5 -195 79.5c-64.667 0 -125.167 -16.5 -181.5 -49.5s-106.5 -78.833 -150.5 -137.5v-748h-96v1386
c-32 6 -65 11 -99 15s-65.333 6 -94 6c-60 0 -111.167 -8.5 -153.5 -25.5s-76.666 -40.833 -102.999 -71.5s-45.5 -66.834 -57.5 -108.501s-18 -87.5 -18 -137.5v-100h322v-71h-320v-893h-95v893h-513v-893h-96z" />
    <glyph glyph-name="f_i.liga" unicode="fi" horiz-adv-x="1077" 
d="M225 0l-0.000976562 891.001l-140 9c-18.667 2 -28 10.333 -28 25v39h168v85c0 61.333 9 116.5 27 165.5s44.333 90.667 79 125s76.667 60.666 126 78.999s105.666 27.5 168.999 27.5c21.333 0 43.833 -1.83301 67.5 -5.5s43.834 -8.83398 60.501 -15.501l-4 -48
c-1.33301 -5.33301 -4 -8.33301 -8 -9s-10 -0.666992 -18 0s-18.167 1.83398 -30.5 3.50098s-27.166 2.5 -44.499 2.5c-105.333 0 -186.833 -27 -244.5 -81s-86.5 -136.333 -86.5 -247v-82h583v-964h-95v893h-485v-893h-96z" />
    <glyph glyph-name="f_f_i.liga" unicode="ffi" horiz-adv-x="1685" 
d="M225 0l-0.00390625 891l-140 9c-18.667 2 -28 10.333 -28 25v39h168v113c0 56.667 7.33301 106.5 22 149.5s35.334 78.833 62.001 107.5s58.834 50.167 96.501 64.5s79.167 21.5 124.5 21.5c20.667 0 41.334 -1.66699 62.001 -5s39.334 -8.66602 56.001 -15.999l-3 -46
c-1.33301 -6 -4 -9.66699 -8 -11s-10.167 -1.83301 -18.5 -1.5s-18.666 1.33301 -30.999 3s-27.166 2.5 -44.499 2.5c-32.667 0 -62.834 -4.83301 -90.501 -14.5s-51.5 -25.167 -71.5 -46.5s-35.5 -49.333 -46.5 -84s-16.5 -77 -16.5 -127v-110h516v85
c0 61.333 9 116.5 27 165.5s44.167 90.667 78.5 125s76.166 60.666 125.499 78.999s105.666 27.5 168.999 27.5c22 0 44.833 -1.83301 68.5 -5.5s43.5 -8.83398 59.5 -15.501l-4 -48c-0.666992 -5.33301 -3 -8.33301 -7 -9s-10 -0.666992 -18 0s-18.333 1.83398 -31 3.50098
s-27.667 2.5 -45 2.5c-105.333 0 -186.666 -27 -243.999 -81s-86 -136.333 -86 -247v-82h583v-964h-96v893h-485v-893h-95v893h-513v-893h-96z" />
    <glyph glyph-name="f_j.liga" unicode="fj" horiz-adv-x="1077" 
d="M225 0l-0.00195312 891.002l-140 9c-18.667 2 -28 10.333 -28 25v39h168v85c0 61.333 9 116.5 27 165.5s44.333 90.667 79 125s76.667 60.666 126 78.999s105.666 27.5 168.999 27.5c21.333 0 43.833 -1.83301 67.5 -5.5s43.834 -8.83398 60.501 -15.501l-4 -48
c-1.33301 -5.33301 -4 -8.33301 -8 -9s-10 -0.666992 -18 0s-18.167 1.83398 -30.5 3.50098s-27.166 2.5 -44.499 2.5c-105.333 0 -186.833 -27 -244.5 -81s-86.5 -136.333 -86.5 -247v-82h583v-1091c0 -34.667 -5 -66.667 -15 -96s-24.833 -54.833 -44.5 -76.5
s-44.334 -38.667 -74.001 -51s-64.5 -18.5 -104.5 -18.5c-19.333 0 -36.666 1.66699 -51.999 5s-30.333 8.66602 -45 15.999l5 48c2 6 4.66699 9.5 8 10.5s7.83301 1 13.5 0s12.834 -2.33301 21.501 -4s19.667 -2.5 33 -2.5c54 0 94 14.667 120 44s39 71 39 125v1020h-485
v-893h-96z" />
    <glyph glyph-name="f_f_j.liga" unicode="ffj" horiz-adv-x="1685" 
d="M225 0l-0.00292969 891.001l-140 9c-18.667 2 -28 10.333 -28 25v39h168v113c0 56.667 7.33301 106.5 22 149.5s35.334 78.833 62.001 107.5s58.834 50.167 96.501 64.5s79.167 21.5 124.5 21.5c20.667 0 41.334 -1.66699 62.001 -5s39.334 -8.66602 56.001 -15.999
l-3 -46c-1.33301 -6 -4 -9.66699 -8 -11s-10.167 -1.83301 -18.5 -1.5s-18.666 1.33301 -30.999 3s-27.166 2.5 -44.499 2.5c-32.667 0 -62.834 -4.83301 -90.501 -14.5s-51.5 -25.167 -71.5 -46.5s-35.5 -49.333 -46.5 -84s-16.5 -77 -16.5 -127v-110h516v85
c0 61.333 9 116.5 27 165.5s44.167 90.667 78.5 125s76.166 60.666 125.499 78.999s105.666 27.5 168.999 27.5c22 0 44.833 -1.83301 68.5 -5.5s43.5 -8.83398 59.5 -15.501l-4 -48c-0.666992 -5.33301 -3 -8.33301 -7 -9s-10 -0.666992 -18 0s-18.333 1.83398 -31 3.50098
s-27.667 2.5 -45 2.5c-105.333 0 -186.666 -27 -243.999 -81s-86 -136.333 -86 -247v-82h583v-1091c0 -34.667 -5 -66.667 -15 -96s-25 -54.833 -45 -76.5s-44.833 -38.667 -74.5 -51s-64.167 -18.5 -103.5 -18.5c-20 0 -37.5 1.66699 -52.5 5s-30.167 8.66602 -45.5 15.999
l6 48c2 6 4.66699 9.5 8 10.5s7.66602 1 12.999 0l21 -4c8.66699 -1.66699 19.667 -2.5 33 -2.5c54 0 94 14.667 120 44s39 71 39 125v1020h-485v-893h-95v893h-513v-893h-96z" />
    <glyph glyph-name="f_k.liga" unicode="fk" horiz-adv-x="1629" 
d="M223 0l0.00195312 891.002l-140 9c-18.667 2 -28 10.333 -28 25v39h168v100c0 59.333 7.83301 114 23.5 164s40.667 93.167 75 129.5s78.666 64.666 132.999 84.999s120.166 30.5 197.499 30.5c24 0 47.5 -1 70.5 -3l69 -6l70.5 -6c24 -2 49 -3 75 -3v-887h46
c9.33301 0 18.166 1.33301 26.499 4s17.5 9 27.5 19l399 379c6.66699 8 14 14.167 22 18.5s18 6.5 30 6.5h84l-439 -417c-12 -14 -25 -25 -39 -33c10.667 -5.33301 19.834 -11.5 27.501 -18.5s15.167 -15.167 22.5 -24.5l461 -502h-83c-9.33301 0 -17.833 1.5 -25.5 4.5
s-14.834 9.16699 -21.501 18.5l-418 448c-5.33301 6 -10.5 11 -15.5 15s-10.167 7.16699 -15.5 9.5s-11.5 4 -18.5 5s-15.5 1.5 -25.5 1.5h-45v-502h-96v1386c-31.333 6 -64 11 -98 15s-65.667 6 -95 6c-60 0 -111.167 -8.5 -153.5 -25.5s-76.666 -40.833 -102.999 -71.5
s-45.5 -66.834 -57.5 -108.501s-18 -87.5 -18 -137.5v-100h323v-71h-320v-893h-96z" />
    <glyph glyph-name="f_f_k.liga" unicode="ffk" horiz-adv-x="2240" 
d="M225 0l-0.00390625 891.001l-140 9c-18.667 2 -28 10.333 -28 25v39h168v113c0 56.667 7.33301 106.5 22 149.5s35.334 78.833 62.001 107.5s58.834 50.167 96.501 64.5s79.167 21.5 124.5 21.5c20.667 0 41.334 -1.66699 62.001 -5s39.334 -8.66602 56.001 -15.999
l-3 -46c-1.33301 -6 -4 -9.66699 -8 -11s-10.167 -1.83301 -18.5 -1.5s-18.666 1.33301 -30.999 3s-27.166 2.5 -44.499 2.5c-32.667 0 -62.834 -4.83301 -90.501 -14.5s-51.5 -25.167 -71.5 -46.5s-35.5 -49.333 -46.5 -84s-16.5 -77 -16.5 -127v-110h516v100
c0 59.333 7.83301 114 23.5 164s40.5 93.167 74.5 129.5s78.167 64.666 132.5 84.999s120.166 30.5 197.499 30.5c24.667 0 48.5 -1 71.5 -3l69 -6l70.5 -6c24 -2 49 -3 75 -3v-887h46c9.33301 0 18.166 1.33301 26.499 4s17.5 9 27.5 19l399 379
c6.66699 8 14 14.167 22 18.5s18 6.5 30 6.5h84l-439 -417c-12 -14 -25 -25 -39 -33c10.667 -5.33301 19.834 -11.5 27.501 -18.5s15.167 -15.167 22.5 -24.5l461 -502h-83c-9.33301 0 -17.833 1.5 -25.5 4.5s-14.834 9.16699 -21.501 18.5l-418 448
c-5.33301 6 -10.5 11 -15.5 15s-10.167 7.16699 -15.5 9.5s-11.5 4 -18.5 5s-15.5 1.5 -25.5 1.5h-45v-502h-96v1386c-32 6 -64.833 11 -98.5 15s-65.167 6 -94.5 6c-60 0 -111.167 -8.5 -153.5 -25.5s-76.666 -40.833 -102.999 -71.5s-45.5 -66.834 -57.5 -108.501
s-18 -87.5 -18 -137.5v-100h323v-71h-321v-893h-95v893h-513v-893h-96z" />
    <glyph glyph-name="f_l.liga" unicode="fl" horiz-adv-x="1125" 
d="M225 0v891l-140 9c-18.667 2 -28 10.333 -28 25v39h168v65c0 58.667 8.66699 113.167 26 163.5s42.833 93.833 76.5 130.5s75.167 65.334 124.5 86.001s106.333 31 171 31c45.333 0 89.833 -2 133.5 -6s84.834 -6.66699 123.501 -8h71v-1426h-95v1359
c-35.333 1.33301 -72.833 3.33301 -112.5 6s-75.834 4 -108.501 4c-50 0 -94.667 -7.83301 -134 -23.5s-72.5 -38.334 -99.5 -68.001s-47.667 -65.5 -62 -107.5s-21.5 -89 -21.5 -141v-65h289v-71h-286v-893h-96z" />
    <glyph glyph-name="f_f_l.liga" unicode="ffl" horiz-adv-x="1731" 
d="M223 0l0.00195312 890.999l-140 9c-18.667 2 -28 10.333 -28 25v39h168v113c0 56.667 7.33301 106.5 22 149.5s35.334 78.833 62.001 107.5s58.667 50.167 96 64.5s78.666 21.5 123.999 21.5c20.667 0 41.5 -1.66699 62.5 -5s39.833 -8.66602 56.5 -15.999l-3 -46
c-1.33301 -6 -4.16602 -9.66699 -8.49902 -11s-10.5 -1.83301 -18.5 -1.5s-18.333 1.33301 -31 3s-27.334 2.5 -44.001 2.5c-32.667 0 -62.834 -4.83301 -90.501 -14.5s-51.5 -25.167 -71.5 -46.5s-35.5 -49.333 -46.5 -84s-16.5 -77 -16.5 -127v-110h516v65
c0 58.667 8.66699 113.167 26 163.5s42.666 93.833 75.999 130.5s74.833 65.334 124.5 86.001s106.5 31 170.5 31c46 0 90.667 -2 134 -6s84.333 -6.66699 123 -8h72v-1426h-95v1359c-36 1.33301 -73.833 3.33301 -113.5 6s-75.5 4 -107.5 4
c-50 0 -94.667 -7.83301 -134 -23.5s-72.5 -38.334 -99.5 -68.001s-47.667 -65.5 -62 -107.5s-21.5 -89 -21.5 -141v-65h322v-71h-320v-893h-95v893h-513v-893h-96z" />
    <glyph glyph-name="f_t.liga" unicode="ft" horiz-adv-x="1313" 
d="M946 893l0.00195312 -674.998c0 -27.333 3.5 -50.833 10.5 -70.5s16.667 -35.834 29 -48.501s26.833 -22 43.5 -28s34.667 -9 54 -9c24 0 44.667 3.5 62 10.5s32.333 14.667 45 23s23 16 31 23s14.333 10.5 19 10.5c5.33301 0 10.666 -3.33301 15.999 -10l26 -42
c-25.333 -28 -57.5 -50.5 -96.5 -67.5s-79.5 -25.5 -121.5 -25.5c-67.333 0 -119.833 18.667 -157.5 56s-56.5 95 -56.5 173v680h-531v-893h-96v891l-140 9c-18.667 2 -28 10.333 -28 25v39h168v126c0 56.667 7.33301 106.5 22 149.5s35.334 78.833 62.001 107.5
s58.667 50.167 96 64.5s78.666 21.5 123.999 21.5c20.667 0 41.5 -1.83301 62.5 -5.5s39.833 -8.83398 56.5 -15.501l-3 -46c-1.33301 -6 -4.16602 -9.83301 -8.49902 -11.5s-10.5 -2.33398 -18.5 -2.00098s-18.333 1.33301 -31 3s-27.334 2.5 -44.001 2.5
c-32.667 0 -62.834 -4.83301 -90.501 -14.5s-51.5 -25.167 -71.5 -46.5s-35.5 -49.166 -46.5 -83.499s-16.5 -76.5 -16.5 -126.5v-123h536l24 357c1.33301 6 4 11.333 8 16s9.66699 7 17 7h45v-380h315v-71h-315z" />
    <glyph glyph-name="f_f_t.liga" unicode="fft" horiz-adv-x="1924" 
d="M225 0l-0.00195312 891.001l-140 9c-18.667 2 -28 10.333 -28 25v39h168v113c0 56.667 7.33301 106.5 22 149.5s35.334 78.833 62.001 107.5s58.834 50.167 96.501 64.5s79.167 21.5 124.5 21.5c20.667 0 41.334 -1.66699 62.001 -5s39.334 -8.66602 56.001 -15.999
l-3 -46c-1.33301 -6 -4 -9.66699 -8 -11s-10.167 -1.83301 -18.5 -1.5s-18.666 1.33301 -30.999 3s-27.166 2.5 -44.499 2.5c-32.667 0 -62.834 -4.83301 -90.501 -14.5s-51.5 -25.167 -71.5 -46.5s-35.5 -49.333 -46.5 -84s-16.5 -77 -16.5 -127v-110h516v126
c0 56.667 7.33301 106.5 22 149.5s35.334 78.833 62.001 107.5s58.667 50.167 96 64.5s78.666 21.5 123.999 21.5c20.667 0 41.5 -1.83301 62.5 -5.5s39.5 -8.83398 55.5 -15.501l-3 -46c-0.666992 -6 -3.16699 -9.83301 -7.5 -11.5s-10.5 -2.33398 -18.5 -2.00098
s-18.333 1.33301 -31 3s-27.334 2.5 -44.001 2.5c-32.667 0 -62.834 -4.83301 -90.501 -14.5s-51.5 -25.167 -71.5 -46.5s-35.5 -49.166 -46.5 -83.499s-16.5 -76.5 -16.5 -126.5v-123h536l24 357c1.33301 6 4 11.333 8 16s9.66699 7 17 7h45v-380h314v-71h-314v-675
c0 -27.333 3.5 -50.833 10.5 -70.5s16.667 -35.834 29 -48.501s26.833 -22 43.5 -28s34.667 -9 54 -9c24 0 44.667 3.5 62 10.5s32.333 14.667 45 23s23 16 31 23s14.333 10.5 19 10.5c5.33301 0 10.666 -3.33301 15.999 -10l26 -42c-25.333 -28 -57.5 -50.5 -96.5 -67.5
s-79.5 -25.5 -121.5 -25.5c-67.333 0 -119.833 18.667 -157.5 56s-56.5 95 -56.5 173v680h-532v-893h-95v893h-513v-893h-96z" />
    <glyph glyph-name="t_f.liga" unicode="tf" horiz-adv-x="1337" 
d="M879 0l0.00292969 893.002h-561v-675c0 -27.333 3.5 -50.833 10.5 -70.5s16.667 -35.834 29 -48.501s26.833 -22 43.5 -28s34.667 -9 54 -9c24 0 44.667 3.5 62 10.5s32.333 14.667 45 23s23 16 31 23s14.333 10.5 19 10.5c5.33301 0 10.666 -3.33301 15.999 -10l26 -42
c-25.333 -28 -57.5 -50.5 -96.5 -67.5s-79.5 -25.5 -121.5 -25.5c-67.333 0 -119.833 18.667 -157.5 56s-56.5 95 -56.5 173v680h-143c-7.33301 0 -13.333 2 -18 6s-7 9.66699 -7 17v37l170 12l24 356c1.33301 6 4 11.333 8 16s9.66699 7 17 7h45v-380h561v126
c0 56.667 7.33301 106.5 22 149.5s35.334 78.833 62.001 107.5s58.667 50.167 96 64.5s78.666 21.5 123.999 21.5c20.667 0 41.5 -1.83301 62.5 -5.5s39.5 -8.83398 55.5 -15.501l-3 -46c-0.666992 -6 -3.16699 -9.83301 -7.5 -11.5s-10.5 -2.33398 -18.5 -2.00098
s-18.333 1.33301 -31 3s-27.334 2.5 -44.001 2.5c-32.667 0 -62.834 -4.83301 -90.501 -14.5s-51.5 -25.167 -71.5 -46.5s-35.5 -49.166 -46.5 -83.499s-16.5 -76.5 -16.5 -126.5v-123h322v-71h-320v-893h-95z" />
    <glyph glyph-name="t_t.liga" unicode="tt" horiz-adv-x="1318" 
d="M436 -16c-67.333 0 -119.831 18.6689 -157.498 56.002s-56.5 95 -56.5 173v680h-143c-7.33301 0 -13.333 2 -18 6s-7 9.66699 -7 17v37l170 12l24 356c1.33301 6 4 11.333 8 16s9.66699 7 17 7h45v-380h539l24 357c1.33301 6 4 11.333 8 16s9.66699 7 17 7h45v-380h314
v-71h-314v-675c0 -27.333 3.5 -50.833 10.5 -70.5s16.667 -35.834 29 -48.501s26.833 -22 43.5 -28s34.667 -9 54 -9c24 0 44.667 3.5 62 10.5s32.333 14.667 45 23s23 16 31 23s14.333 10.5 19 10.5c5.33301 0 10.666 -3.33301 15.999 -10l26 -42
c-25.333 -28 -57.5 -50.5 -96.5 -67.5s-79.5 -25.5 -121.5 -25.5c-67.333 0 -119.833 18.667 -157.5 56s-56.5 95 -56.5 173v680h-537v-675c0 -27.333 3.5 -50.833 10.5 -70.5s16.667 -35.834 29 -48.501s26.833 -22 43.5 -28s34.667 -9 54 -9c24 0 44.667 3.5 62 10.5
s32.333 14.667 45 23s23 16 31 23s14.333 10.5 19 10.5c5.33301 0 10.666 -3.33301 15.999 -10l26 -42c-25.333 -28 -57.5 -50.5 -96.5 -67.5s-79.5 -25.5 -121.5 -25.5z" />
    <glyph glyph-name="t_t_f.liga" unicode="ttf" horiz-adv-x="1970" 
d="M1512 1090c0 56.667 7.33691 106.503 22.0039 149.503s35.334 78.833 62.001 107.5s58.667 50.167 96 64.5s78.666 21.5 123.999 21.5c20.667 0 41.5 -1.83301 62.5 -5.5s39.5 -8.83398 55.5 -15.501l-3 -46c-0.666992 -6 -3.16699 -9.83301 -7.5 -11.5
s-10.5 -2.33398 -18.5 -2.00098s-18.333 1.33301 -31 3s-27.334 2.5 -44.001 2.5c-32.667 0 -62.834 -4.83301 -90.501 -14.5s-51.5 -25.167 -71.5 -46.5s-35.5 -49.166 -46.5 -83.499s-16.5 -76.5 -16.5 -126.5v-123h322v-71h-320v-893h-95v893h-561v-675
c0 -27.333 3.5 -50.833 10.5 -70.5s16.667 -35.834 29 -48.501s26.833 -22 43.5 -28s34.667 -9 54 -9c24 0 44.667 3.5 62 10.5s32.333 14.667 45 23s23 16 31 23s14.333 10.5 19 10.5c5.33301 0 10.666 -3.33301 15.999 -10l26 -42c-25.333 -28 -57.5 -50.5 -96.5 -67.5
s-79.5 -25.5 -121.5 -25.5c-67.333 0 -119.833 18.667 -157.5 56s-56.5 95 -56.5 173v680h-537v-675c0 -27.333 3.5 -50.833 10.5 -70.5s16.667 -35.834 29 -48.501s26.833 -22 43.5 -28s34.667 -9 54 -9c24 0 44.667 3.5 62 10.5s32.333 14.667 45 23s23 16 31 23
s14.333 10.5 19 10.5c5.33301 0 10.666 -3.33301 15.999 -10l26 -42c-25.333 -28 -57.5 -50.5 -96.5 -67.5s-79.5 -25.5 -121.5 -25.5c-67.333 0 -119.833 18.667 -157.5 56s-56.5 95 -56.5 173v680h-143c-7.33301 0 -13.333 2 -18 6s-7 9.66699 -7 17v37l170 12l24 356
c1.33301 6 4 11.333 8 16s9.66699 7 17 7h45v-380h539l24 357c1.33301 6 4 11.333 8 16s9.66699 7 17 7h45v-380h561v126z" />
    <glyph glyph-name="t_i.liga" unicode="ti" horiz-adv-x="1165" 
d="M990 0l-95.999 0.000976562v893h-576v-675c0 -27.333 3.5 -50.833 10.5 -70.5s16.667 -35.834 29 -48.501s26.833 -22 43.5 -28s34.667 -9 54 -9c24 0 44.667 3.5 62 10.5s32.333 14.667 45 23s23 16 31 23s14.333 10.5 19 10.5c5.33301 0 10.666 -3.33301 15.999 -10
l26 -42c-25.333 -28 -57.5 -50.5 -96.5 -67.5s-79.5 -25.5 -121.5 -25.5c-67.333 0 -119.833 18.667 -157.5 56s-56.5 95 -56.5 173v680h-143c-7.33301 0 -13.333 2 -18 6s-7 9.66699 -7 17v37l170 12l24 356c1.33301 6 4 11.333 8 16s9.66699 7 17 7h45v-380h672v-964z
M1034 1350c0 -12 -2.5 -23.167 -7.5 -33.5s-11.667 -19.5 -20 -27.5s-17.833 -14.333 -28.5 -19s-22 -7 -34 -7s-23.333 2.33301 -34 7s-20 11 -28 19s-14.333 17.167 -19 27.5s-7 21.5 -7 33.5s2.33301 23.5 7 34.5s11 20.5 19 28.5s17.333 14.333 28 19s22 7 34 7
s23.333 -2.33301 34 -7s20.167 -11 28.5 -19s15 -17.5 20 -28.5s7.5 -22.5 7.5 -34.5z" />
    <glyph glyph-name="t_t_i.liga" unicode="tti" horiz-adv-x="1778" 
d="M1603 0l-95.998 0.00195312v893h-556v-675c0 -27.333 3.5 -50.833 10.5 -70.5s16.667 -35.834 29 -48.501s26.833 -22 43.5 -28s34.667 -9 54 -9c24 0 44.667 3.5 62 10.5s32.333 14.667 45 23s23 16 31 23s14.333 10.5 19 10.5c5.33301 0 10.666 -3.33301 15.999 -10
l26 -42c-25.333 -28 -57.5 -50.5 -96.5 -67.5s-79.5 -25.5 -121.5 -25.5c-67.333 0 -119.833 18.667 -157.5 56s-56.5 95 -56.5 173v680h-537v-675c0 -27.333 3.5 -50.833 10.5 -70.5s16.667 -35.834 29 -48.501s26.833 -22 43.5 -28s34.667 -9 54 -9
c24 0 44.667 3.5 62 10.5s32.333 14.667 45 23s23 16 31 23s14.333 10.5 19 10.5c5.33301 0 10.666 -3.33301 15.999 -10l26 -42c-25.333 -28 -57.5 -50.5 -96.5 -67.5s-79.5 -25.5 -121.5 -25.5c-67.333 0 -119.833 18.667 -157.5 56s-56.5 95 -56.5 173v680h-143
c-7.33301 0 -13.333 2 -18 6s-7 9.66699 -7 17v37l170 12l24 356c1.33301 6 4 11.333 8 16s9.66699 7 17 7h45v-380h539l24 357c1.33301 6 4 11.333 8 16s9.66699 7 17 7h45v-380h652v-964zM1646 1350c0 -12 -2.5 -23.167 -7.5 -33.5s-11.667 -19.5 -20 -27.5
s-17.833 -14.333 -28.5 -19s-22 -7 -34 -7s-23.333 2.33301 -34 7s-20 11 -28 19s-14.333 17.167 -19 27.5s-7 21.5 -7 33.5s2.33301 23.5 7 34.5s11 20.5 19 28.5s17.333 14.333 28 19s22 7 34 7s23.333 -2.33301 34 -7s20.167 -11 28.5 -19s15 -17.5 20 -28.5
s7.5 -22.5 7.5 -34.5z" />
    <glyph glyph-name=".notdef" horiz-adv-x="1025" 
d="M262 1134c14 13.333 29.4961 26.0039 46.4961 38.0039s35.5 22.667 55.5 32s41.833 16.833 65.5 22.5s49.5 8.5 77.5 8.5c36 0 69.5 -5.16699 100.5 -15.5s58 -25.333 81 -45s41 -43.334 54 -71.001s19.5 -58.834 19.5 -93.501c0 -36.667 -5.5 -68.167 -16.5 -94.5
s-24.667 -49.333 -41 -69s-34.166 -37 -53.499 -52l-54.5 -42.5c-17 -13.333 -31.667 -26.5 -44 -39.5s-19.166 -27.833 -20.499 -44.5l-10 -114h-65l-6 122c-1.33301 20.667 3.33398 38.834 14.001 54.501s24.167 30.5 40.5 44.5s34.333 28 54 42
s37.834 29.833 54.501 47.5s30.667 37.667 42 60s17 49.166 17 80.499c0 24 -4.66699 45.333 -14 64s-21.833 34.5 -37.5 47.5s-34 23 -55 30s-43.167 10.5 -66.5 10.5c-30.667 0 -57 -3.83301 -79 -11.5s-40.667 -16.334 -56 -26.001s-27.5 -18.334 -36.5 -26.001
s-15.833 -11.5 -20.5 -11.5c-9.33301 0 -16.333 3.66699 -21 11zM409.996 265.004c0 21.333 7.33301 39.666 22 54.999s33 23 55 23c21.333 0 39.333 -7.66699 54 -23s22 -33.666 22 -54.999s-7.33301 -39.666 -22 -54.999s-32.667 -23 -54 -23
c-22 0 -40.333 7.66699 -55 23s-22 33.666 -22 54.999zM46.9961 1415h931v-1415h-931v1415zM81.9961 36.0039h859v1343h-859v-1343z" />
    <glyph glyph-name="glyph1" horiz-adv-x="0" 
 />
    <glyph glyph-name="glyph1" horiz-adv-x="0" 
 />
    <glyph glyph-name="space" unicode=" " horiz-adv-x="543" 
 />
    <glyph glyph-name="exclam" unicode="!" horiz-adv-x="509" 
d="M302 1415v-572c0 -30 -0.333008 -58.333 -1 -85s-1.5 -53.834 -2.5 -81.501s-2.5 -56.834 -4.5 -87.501s-4 -64.667 -6 -102h-65c-2 37.333 -4 71.333 -6 102s-3.5 59.834 -4.5 87.501s-1.83301 54.834 -2.5 81.501s-1 55 -1 85v572h93zM160 77
c0 12.667 2.33301 24.667 7 36s11.167 21.166 19.5 29.499s18 15 29 20s23.167 7.5 36.5 7.5c12.667 0 24.667 -2.5 36 -7.5s21.166 -11.667 29.499 -20s15 -18.166 20 -29.499s7.5 -23.333 7.5 -36c0 -13.333 -2.5 -25.5 -7.5 -36.5s-11.667 -20.667 -20 -29
s-18.166 -14.833 -29.499 -19.5s-23.333 -7 -36 -7c-26 0 -47.833 8.83301 -65.5 26.5s-26.5 39.5 -26.5 65.5z" />
    <glyph glyph-name="quotedbl" unicode="&#x22;" horiz-adv-x="681" 
d="M237 1415l-0.00195312 -292l-9 -153c-1.33301 -11.333 -4.33301 -20.166 -9 -26.499s-12.667 -9.5 -24 -9.5c-9.33301 0 -16.666 3.16699 -21.999 9.5s-8.66602 15.166 -9.99902 26.499l-9 153v292h83zM526.998 1415l-0.00195312 -292l-9 -153
c-1.33301 -11.333 -4.33301 -20.166 -9 -26.499s-12.667 -9.5 -24 -9.5c-9.33301 0 -16.666 3.16699 -21.999 9.5s-8.66602 15.166 -9.99902 26.499l-9 153v292h83z" />
    <glyph glyph-name="numbersign" unicode="#" 
d="M765 902h-298l-82 -389h298zM1079 973l-6 -38.002c-1.33301 -11.333 -5.5 -19.666 -12.5 -24.999s-17.5 -8 -31.5 -8h-184l-82 -389h225c10.667 0 18.667 -3 24 -9s7 -16.333 5 -31l-4 -30h-261l-94 -443h-40c-11.333 0 -20.166 4 -26.499 12s-7.83301 18.667 -4.5 32
l85 399h-298l-85 -403c-2.66699 -14.667 -8.33398 -25 -17.001 -31s-18.667 -9 -30 -9h-42l94 443h-182c-11.333 0 -19.5 3 -24.5 9s-6.83301 16.667 -5.5 32l4 29h219l82 389h-254l6 38c2.66699 22 17.667 33 45 33h214l86 404c2 12.667 7.16699 22.167 15.5 28.5
s18.5 9.5 30.5 9.5h41l-93 -442h298l93 442h42c11.333 0 20 -3.66699 26 -11s7.66699 -17.666 5 -30.999l-86 -400h223z" />
    <glyph glyph-name="dollar" unicode="$" 
d="M593 65c53.333 3.33301 100.666 14.168 141.999 32.501s76.333 42.333 105 72s50.334 64 65.001 103s22 80.833 22 125.5c0 44 -8.33301 81.333 -25 112s-39 56.667 -67 78s-60.167 39.166 -96.5 53.499s-74.5 27.833 -114.5 40.5zM593 1347
c-50.667 -2.66699 -94.833 -11.834 -132.5 -27.501s-69.167 -36 -94.5 -61s-44.333 -53.5 -57 -85.5s-19 -65.667 -19 -101c0 -41.333 7.33301 -76.666 22 -105.999s34.667 -54.5 60 -75.5s54.5 -39 87.5 -54s68.167 -28.833 105.5 -41.5zM628.001 775.002
c47.333 -15.333 94.3311 -31.501 140.998 -48.501s88.334 -38.833 125.001 -65.5s66.334 -59.667 89.001 -99s34 -89 34 -149c0 -57.333 -9.5 -111.333 -28.5 -162s-46.833 -95.167 -83.5 -133.5s-81.5 -69.166 -134.5 -92.499s-113.5 -36.666 -181.5 -39.999l-11 -211
c-0.666992 -8.66699 -3.5 -16 -8.5 -22s-12.167 -9 -21.5 -9h-36l12 242c-85.333 4 -159.5 22.333 -222.5 55s-118.5 75.667 -166.5 129l27 39c8 10 17.333 15 28 15c6 0 13.333 -3.66699 22 -11l32 -27.5c12.667 -11 27.667 -23 45 -36s37.5 -25.333 60.5 -37
s49.167 -21.834 78.5 -30.501s62.666 -14 99.999 -16l33 637c-45.333 14 -89.666 29.5 -132.999 46.5s-81.833 39 -115.5 66s-60.834 60.333 -81.501 100s-31 89.5 -31 149.5c0 46.667 8.83301 91.5 26.5 134.5s43.334 81.333 77.001 115s75.167 60.834 124.5 81.501
s106 32 170 34l8 167c0 9.33301 2.66699 17 8 23s12.333 9 21 9h36l-10 -201c67.333 -4.66699 126.333 -19.5 177 -44.5s97 -58.5 139 -100.5l-22 -34c-6.66699 -11.333 -15.667 -17 -27 -17c-8 0 -18.5 5.5 -31.5 16.5s-30 23.333 -51 37s-46.833 26.667 -77.5 39
s-67.667 20.166 -111 23.499z" />
    <glyph glyph-name="percent" unicode="%" horiz-adv-x="1559" 
d="M695 1075c0 -58 -8 -109.167 -24 -153.5s-37.667 -81.166 -65 -110.499s-59 -51.5 -95 -66.5s-74 -22.5 -114 -22.5c-41.333 0 -80.166 7.5 -116.499 22.5s-67.833 37.167 -94.5 66.5s-47.667 66.166 -63 110.499s-23 95.5 -23 153.5
c0 58.667 7.66699 110.334 23 155.001s36.333 81.834 63 111.501s58.167 52 94.5 67s75.166 22.5 116.499 22.5s80 -7.5 116 -22.5s67.5 -37.333 94.5 -67s48.333 -66.834 64 -111.501s23.5 -96.334 23.5 -155.001zM619 1075c0 51.333 -5.83301 95.333 -17.5 132
s-27.667 66.834 -48 90.501s-44 41 -71 52s-55.5 16.5 -85.5 16.5s-58.333 -5.5 -85 -16.5s-50 -28.333 -70 -52s-35.833 -53.834 -47.5 -90.501s-17.5 -80.667 -17.5 -132s5.83301 -95.166 17.5 -131.499s27.5 -66.166 47.5 -89.499s43.333 -40.5 70 -51.5
s55 -16.5 85 -16.5s58.5 5.5 85.5 16.5s50.667 28.167 71 51.5s36.333 53.166 48 89.499s17.5 80.166 17.5 131.499zM1232 1397c4 5.33301 8.83398 9.66699 14.501 13s13.167 5 22.5 5h67l-1016 -1397c-8.66699 -12 -20.334 -18 -35.001 -18h-68zM1459 336.001
c0 -58 -8 -109.167 -24 -153.5s-37.5 -81.166 -64.5 -110.499s-58.5 -51.5 -94.5 -66.5s-74 -22.5 -114 -22.5c-41.333 0 -80.166 7.5 -116.499 22.5s-67.833 37.167 -94.5 66.5s-47.667 66.166 -63 110.499s-23 95.5 -23 153.5c0 58.667 7.66699 110.334 23 155.001
s36.333 81.834 63 111.501s58.167 52 94.5 67s75.166 22.5 116.499 22.5s80 -7.5 116 -22.5s67.5 -37.333 94.5 -67s48.167 -66.834 63.5 -111.501s23 -96.334 23 -155.001zM1383 336.001c0 51.333 -5.83301 95.5 -17.5 132.5s-27.5 67.333 -47.5 91s-43.5 41 -70.5 52
s-55.5 16.5 -85.5 16.5s-58.5 -5.5 -85.5 -16.5s-50.5 -28.333 -70.5 -52s-35.833 -54 -47.5 -91s-17.5 -81.167 -17.5 -132.5s5.83301 -95.166 17.5 -131.499s27.5 -66.166 47.5 -89.499s43.5 -40.333 70.5 -51s55.5 -16 85.5 -16s58.5 5.33301 85.5 16
s50.5 27.667 70.5 51s35.833 53.166 47.5 89.499s17.5 80.166 17.5 131.499z" />
    <glyph glyph-name="ampersand" unicode="&#x26;" horiz-adv-x="1397" 
d="M491 738c-44 -18 -83.8311 -39.999 -119.498 -65.999s-65.834 -55 -90.501 -87s-43.667 -66.333 -57 -103s-20 -74.667 -20 -114c0 -51.333 9.83301 -96 29.5 -134s45.167 -69.833 76.5 -95.5s66.166 -44.834 104.499 -57.501s76.166 -19 113.499 -19
c47.333 0 91.833 5.33301 133.5 16s80.5 25.5 116.5 44.5s69.333 41.667 100 68s58.334 54.833 83.001 85.5l-459 451zM1365 0.000976562l-89 -0.00390625c-12 0 -21.833 1.33301 -29.5 4s-16.5 8.66699 -26.5 18l-205 201c-29.333 -34.667 -62 -66.5 -98 -95.5
s-75 -54.167 -117 -75.5s-87 -38 -135 -50s-98.333 -18 -151 -18c-50 0 -99.333 8.33301 -148 25s-92.167 41.167 -130.5 73.5s-69.333 72 -93 119s-35.5 100.5 -35.5 160.5c0 48 8.66699 93.833 26 137.5s41 83.667 71 120s65.667 68.833 107 97.5s86 52 134 70
c-48 54 -83.667 106 -107 156s-35 103.667 -35 161c0 46.667 8.5 89.834 25.5 129.501s41.167 74.167 72.5 103.5s68.833 52.333 112.5 69s92.5 25 146.5 25c44.667 0 87 -7.66699 127 -23s74.833 -36 104.5 -62s53.334 -56.167 71.001 -90.5s27.167 -70.166 28.5 -107.499
l-54 -11c-6.66699 -1.33301 -12.834 -0.166016 -18.501 3.50098s-10.167 10.167 -13.5 19.5c-3.33301 18 -10.5 38.333 -21.5 61s-26.5 44 -46.5 64s-44.667 36.833 -74 50.5s-63.666 20.5 -102.999 20.5c-40 0 -76.333 -6.16699 -109 -18.5s-60.667 -29.666 -84 -51.999
s-41.5 -48.833 -54.5 -79.5s-19.5 -64.334 -19.5 -101.001c0 -54.667 14 -107 42 -157s71.333 -103.667 130 -161l447 -439c30 48 53.667 97.833 71 149.5s28.666 101.834 33.999 150.501c1.33301 8.66699 4 15.5 8 20.5s10 7.5 18 7.5h55
c-1.33301 -62.667 -13 -127.167 -35 -193.5s-53.667 -129.833 -95 -190.5z" />
    <glyph glyph-name="quotesingle" unicode="'" horiz-adv-x="391" 
d="M237 1415l-0.00195312 -292l-9 -153c-1.33301 -11.333 -4.33301 -20.166 -9 -26.499s-12.667 -9.5 -24 -9.5c-9.33301 0 -16.666 3.16699 -21.999 9.5s-8.66602 15.166 -9.99902 26.499l-9 153v292h83z" />
    <glyph glyph-name="parenleft" unicode="(" horiz-adv-x="516" 
d="M194 630c0 -149.333 20.167 -292.502 60.5 -429.502s100.5 -269.167 180.5 -396.5c6.66699 -11.333 8.5 -20.5 5.5 -27.5s-7.16699 -12.167 -12.5 -15.5l-42 -26c-51.333 78.667 -94.5 154.834 -129.5 228.501s-63.333 147 -85 220s-37.334 146.167 -47.001 219.5
s-14.5 149 -14.5 227s4.83301 153.833 14.5 227.5s25.334 147 47.001 220s50 146.333 85 220s78.167 149.834 129.5 228.501l42 -26c5.33301 -3.33301 9.5 -8.5 12.5 -15.5s1.16699 -16.167 -5.5 -27.5c-80 -127.333 -140.167 -259.5 -180.5 -396.5
s-60.5 -280.5 -60.5 -430.5z" />
    <glyph glyph-name="parenright" unicode=")" horiz-adv-x="516" 
d="M322 630c0 150 -20.167 293.502 -60.5 430.502s-100.5 269.167 -180.5 396.5c-6.66699 11.333 -8.5 20.5 -5.5 27.5s7.16699 12.167 12.5 15.5l42 26c51.333 -78.667 94.5 -154.834 129.5 -228.501s63.333 -147 85 -220s37.334 -146.333 47.001 -220
s14.5 -149.5 14.5 -227.5s-4.83301 -153.667 -14.5 -227s-25.334 -146.5 -47.001 -219.5s-50 -146.333 -85 -220s-78.167 -149.834 -129.5 -228.501l-42 26c-5.33301 3.33301 -9.5 8.5 -12.5 15.5s-1.16699 16.167 5.5 27.5c80 127.333 140.167 259.5 180.5 396.5
s60.5 280.167 60.5 429.5z" />
    <glyph glyph-name="asterisk" unicode="*" horiz-adv-x="850" 
d="M700 1065l-24.998 -45l-190 110c-10 6 -18.333 11.833 -25 17.5s-14 14.167 -22 25.5l-1 -1c4.66699 -12 8 -22.333 10 -31s3 -18.667 3 -30v-214h-52v213c0 11.333 0.833008 21.333 2.5 30s5.16699 18.667 10.5 30v1c-7.33301 -10 -14.5 -17.833 -21.5 -23.5
s-15.5 -11.5 -25.5 -17.5l-188 -109l-25 44l188 110c9.33301 5.33301 18.5 9.33301 27.5 12s19.833 5 32.5 7c-13.333 2.66699 -24.333 5.33398 -33 8.00098s-17.667 7 -27 13l-190 110l26 45l189 -110c11.333 -6.66699 20.166 -13.334 26.499 -20.001
s14.166 -15.667 23.499 -27c-5.33301 13.333 -9.33301 24.833 -12 34.5s-4 20.167 -4 31.5v214h52v-213c0 -12 -0.833008 -22.667 -2.5 -32s-5.16699 -20.333 -10.5 -33c8 11.333 15.5 20.166 22.5 26.499s15.5 12.5 25.5 18.5l188 109l26 -45l-188 -109
c-10 -6 -19.333 -10.667 -28 -14s-18.667 -5.66602 -30 -6.99902c12 -2 22.167 -4.16699 30.5 -6.5s17.5 -6.5 27.5 -12.5z" />
    <glyph glyph-name="plus" unicode="+" 
d="M1050 634h-431v-453h-78v453h-430v73h430v451h78v-451h431v-73z" />
    <glyph glyph-name="comma" unicode="," horiz-adv-x="438" 
d="M144 -238c-3.33301 2.66699 -5.49902 5.3291 -6.49902 7.99609s-1.5 5.66699 -1.5 9c0 4 2.66699 9.33301 8 16c6 6.66699 14.167 16.5 24.5 29.5s21 28.333 32 46s21 37.5 30 59.5s14.833 45.667 17.5 71c-10 -3.33301 -20.333 -5 -31 -5
c-24.667 0 -44.834 8.33301 -60.501 25s-23.5 38 -23.5 64c0 23.333 8 43.333 24 60s37 25 63 25c28.667 0 50.834 -9.83301 66.501 -29.5s23.5 -45.5 23.5 -77.5c0 -27.333 -3.5 -55.166 -10.5 -83.499s-17.167 -56.166 -30.5 -83.499s-29.333 -53.666 -48 -78.999
s-39.334 -48.666 -62.001 -69.999z" />
    <glyph glyph-name="hyphen" unicode="-" horiz-adv-x="740" 
d="M138 634h465v-81h-465v81z" />
    <glyph glyph-name="period" unicode="." horiz-adv-x="467" 
d="M141 77c0 12.667 2.33301 24.667 7 36s11.167 21.166 19.5 29.499s18 15 29 20s23.167 7.5 36.5 7.5c12.667 0 24.667 -2.5 36 -7.5s21.166 -11.667 29.499 -20s15 -18.166 20 -29.499s7.5 -23.333 7.5 -36c0 -13.333 -2.5 -25.5 -7.5 -36.5s-11.667 -20.667 -20 -29
s-18.166 -14.833 -29.499 -19.5s-23.333 -7 -36 -7c-26 0 -47.833 8.83301 -65.5 26.5s-26.5 39.5 -26.5 65.5z" />
    <glyph glyph-name="slash" unicode="/" horiz-adv-x="869" 
d="M172 -45c-5.33301 -13.333 -13.333 -23.167 -24 -29.5s-21.667 -9.5 -33 -9.5h-39l622 1502c10 24.667 28 37 54 37h41z" />
    <glyph glyph-name="zero" unicode="0" 
d="M1087 708c0 -124 -13.333 -231.333 -40 -322s-63 -165.667 -109 -225s-99.833 -103.5 -161.5 -132.5s-127.5 -43.5 -197.5 -43.5s-135.667 14.5 -197 43.5s-115 73.167 -161 132.5s-82.167 134.333 -108.5 225s-39.5 198 -39.5 322s13.167 231.333 39.5 322
s62.5 165.667 108.5 225s99.667 103.5 161 132.5s127 43.5 197 43.5s135.833 -14.5 197.5 -43.5s115.5 -73.167 161.5 -132.5s82.333 -134.333 109 -225s40 -198 40 -322zM987 708c0 114.667 -11 212.667 -33 294s-51.5 147.833 -88.5 199.5s-80.333 89.5 -130 113.5
s-101.834 36 -156.501 36s-106.667 -12 -156 -36s-92.666 -61.833 -129.999 -113.5s-67 -118.167 -89 -199.5s-33 -179.333 -33 -294c0 -115.333 11 -213.5 33 -294.5s51.667 -147.333 89 -199s80.666 -89.334 129.999 -113.001s101.333 -35.5 156 -35.5
s106.834 11.833 156.501 35.5s93 61.334 130 113.001s66.5 118 88.5 199s33 179.167 33 294.5z" />
    <glyph glyph-name="one" unicode="1" 
d="M997 74l-0.00195312 -74h-730v74h325v1148c0 22.667 1 46.667 3 72l-312 -277c-9.33301 -8 -18.666 -11 -27.999 -9s-16.666 6 -21.999 12l-29 40l409 361h75v-1347h309z" />
    <glyph glyph-name="two" unicode="2" 
d="M994 90c10.667 0 19.001 -3.16406 25.001 -9.49707s9 -14.5 9 -24.5v-56h-913v34c0 7.33301 1.83301 14.833 5.5 22.5s8.5 14.167 14.5 19.5l483 489c40 40.667 77 80 111 118s63.5 76.333 88.5 115s44.5 78.334 58.5 119.001s21 84 21 130
c0 52 -8.66699 97.167 -26 135.5s-40.333 69.833 -69 94.5s-62 43 -100 55s-77.333 18 -118 18c-44.667 0 -85.834 -6.83301 -123.501 -20.5s-71 -32.667 -100 -57s-53 -53.333 -72 -87s-32.167 -70.5 -39.5 -110.5c-4.66699 -14.667 -10.834 -24.334 -18.501 -29.001
s-18.167 -6.33398 -31.5 -5.00098l-49 8c8.66699 60.667 25.334 114.667 50.001 162s56 87.333 94 120s82 57.5 132 74.5s104 25.5 162 25.5c54 0 105.5 -7.83301 154.5 -23.5s92.333 -39.334 130 -71.001s67.5 -71.334 89.5 -119.001s33 -103.5 33 -167.5
c0 -53.333 -8.16699 -102.833 -24.5 -148.5s-38.5 -89.5 -66.5 -131.5s-60.5 -82.833 -97.5 -122.5l-116.5 -121.5l-443 -452c21.333 5.33301 43.5 9.33301 66.5 12s46.167 4 69.5 4h611z" />
    <glyph glyph-name="three" unicode="3" 
d="M156 1049c8.66699 60.667 25.3311 114.671 49.998 162.004s56 87.333 94 120s82 57.5 132 74.5s104 25.5 162 25.5c54 0 105 -7.5 153 -22.5s90.167 -37.5 126.5 -67.5s65 -67.333 86 -112s31.5 -96.334 31.5 -155.001c0 -46 -7 -87.5 -21 -124.5
s-33.5 -69.5 -58.5 -97.5s-54.5 -51.5 -88.5 -70.5s-71 -33.5 -111 -43.5c104 -19.333 182.5 -59.5 235.5 -120.5s79.5 -137.167 79.5 -228.5c0 -58 -11.667 -111.833 -35 -161.5s-55.333 -92.5 -96 -128.5s-88.667 -64.167 -144 -84.5s-115.333 -30.5 -180 -30.5
c-80.667 0 -147.834 10.833 -201.501 32.5s-97.834 49.834 -132.501 84.501s-61.667 73.5 -81 116.5s-35 85.833 -47 128.5l38 16c10.667 4.66699 21.834 6 33.501 4s20.167 -9.66699 25.5 -23c3.33301 -8 7.83301 -20.5 13.5 -37.5s13.834 -35.833 24.501 -56.5
s24.5 -41.834 41.5 -63.501s38.333 -41.5 64 -59.5s56.5 -32.667 92.5 -44s78.667 -17 128 -17c60 0 112.5 10 157.5 30s82.667 45.5 113 76.5s53 65.667 68 104s22.5 75.5 22.5 111.5c0 43.333 -6.83301 83.666 -20.5 120.999s-36.5 69.5 -68.5 96.5
s-74.167 48.333 -126.5 64s-116.833 23.5 -193.5 23.5v69c61.333 1.33301 115.333 9.5 162 24.5s85.667 35.5 117 61.5s55 57 71 93s24 75.667 24 119c0 50 -8.33301 93.333 -25 130s-39 67 -67 91s-60.667 41.667 -98 53s-76.333 17 -117 17
c-44.667 0 -86 -6.83301 -124 -20.5s-71.5 -32.667 -100.5 -57s-53.167 -53.333 -72.5 -87s-32.666 -70.5 -39.999 -110.5c-4 -14.667 -9.66699 -24.334 -17 -29.001s-17.666 -6.33398 -30.999 -5.00098z" />
    <glyph glyph-name="four" unicode="4" 
d="M753 482v741.001c0 11.333 0.5 23.666 1.5 36.999s2.16699 27 3.5 41l-612 -819h607zM1096 482.001l-0.000976562 -52c0 -7.33301 -2.16699 -13.166 -6.5 -17.499s-11.166 -6.5 -20.499 -6.5h-232v-406h-84v406h-669c-10 0 -17.667 2.16699 -23 6.5s-9 10.166 -11 17.499
l-9 47l711 940h85v-935h259z" />
    <glyph glyph-name="five" unicode="5" 
d="M310 855c44.667 11.333 86.833 19.499 126.5 24.499s77.5 7.5 113.5 7.5c74 0 139 -10.5 195 -31.5s102.833 -50.333 140.5 -88s66 -82.5 85 -134.5s28.5 -108.667 28.5 -170c0 -74.667 -12.833 -141.5 -38.5 -200.5s-60.834 -109.167 -105.501 -150.5
s-96.667 -73 -156 -95s-122.333 -33 -189 -33c-38.667 0 -75.834 3.5 -111.501 10.5s-69 16.333 -100 28s-59.667 25.167 -86 40.5s-49.5 31 -69.5 47l29 39c6 10 15.333 15 28 15c8.66699 0 21.167 -5 37.5 -15s37.333 -21 63 -33s56.167 -23 91.5 -33s76.333 -15 123 -15
c54.667 0 105.667 8.83301 153 26.5s88.333 43.167 123 76.5s61.834 74.5 81.501 123.5s29.5 104.5 29.5 166.5c0 50.667 -7.5 97.334 -22.5 140.001s-37.667 79.167 -68 109.5s-68.666 54 -114.999 71s-100.833 25.5 -163.5 25.5c-38 0 -78.333 -3 -121 -9
s-88 -15.667 -136 -29l-61 19l110 627h637v-41c0 -13.333 -4.5 -24.5 -13.5 -33.5s-23.167 -13.5 -42.5 -13.5h-512z" />
    <glyph glyph-name="six" unicode="6" 
d="M579 63c57.333 0 109.001 8.99902 155.001 26.999s85.167 42.833 117.5 74.5s57.166 69.334 74.499 113.001s26 91.167 26 142.5c0 54 -8.5 102.833 -25.5 146.5s-41 80.667 -72 111s-67.833 53.666 -110.5 69.999s-90 24.5 -142 24.5
c-58.667 0 -111.167 -10.167 -157.5 -30.5s-85.5 -46.666 -117.5 -78.999s-56.333 -69.166 -73 -110.499s-25 -83 -25 -125c0 -52.667 8.16699 -101.334 24.5 -146.001s39.5 -83.167 69.5 -115.5s66.667 -57.5 110 -75.5s92 -27 146 -27zM415.001 863.999l-57 -77.002
c-17.333 -24 -33 -47.667 -47 -71c39.333 40.667 86 72.5 140 95.5s113 34.5 177 34.5c60.667 0 116.667 -10 168 -30s95.5 -48.167 132.5 -84.5s66 -80.333 87 -132s31.5 -109.5 31.5 -173.5s-11.5 -123 -34.5 -177s-55 -100.667 -96 -140s-90.167 -70 -147.5 -92
s-120.333 -33 -189 -33c-66 0 -126.333 10.667 -181 32s-101.5 52 -140.5 92s-69.167 88.833 -90.5 146.5s-32 122.834 -32 195.501c0 55.333 14 117.833 42 187.5s74 147.834 138 234.501l386 520c11.333 15.333 28.333 23 51 23h84z" />
    <glyph glyph-name="seven" unicode="7" 
d="M1067 1415l-0.000976562 -42.999c0 -11.333 -1.33301 -21.166 -4 -29.499s-5.66699 -15.5 -9 -21.5l-648 -1285c-5.33301 -10.667 -12.5 -19.334 -21.5 -26.001s-20.833 -10 -35.5 -10h-66l654 1280c8.66699 17.333 19 33 31 47h-816
c-7.33301 0 -13.666 2.66699 -18.999 8s-8 11.666 -8 18.999v61h942z" />
    <glyph glyph-name="eight" unicode="8" 
d="M580 60c54 0 103.166 7.5 147.499 22.5s82.5 36.333 114.5 64s56.667 60.834 74 99.501s26 81.667 26 129c0 62 -11.333 113.667 -34 155s-51.667 74.333 -87 99s-74.333 42.167 -117 52.5s-84 15.5 -124 15.5s-81.333 -5.16699 -124 -15.5s-81.667 -27.833 -117 -52.5
s-64.333 -57.667 -87 -99s-34 -93 -34 -155c0 -47.333 8.66699 -90.333 26 -129s41.833 -71.834 73.5 -99.501s69.834 -49 114.501 -64s94 -22.5 148 -22.5zM263.999 1069c0 -38 6.16602 -74.667 18.499 -110s31.5 -66.833 57.5 -94.5s58.833 -49.667 98.5 -66
s86.834 -24.5 141.501 -24.5c54 0 100.833 8.16699 140.5 24.5s72.5 38.333 98.5 66s45.167 59.167 57.5 94.5s18.5 72 18.5 110c0 40.667 -7 78.5 -21 113.5s-34.5 65.5 -61.5 91.5s-60 46.333 -99 61s-83.5 22 -133.5 22s-94.667 -7.33301 -134 -22s-72.5 -35 -99.5 -61
s-47.5 -56.5 -61.5 -91.5s-21 -72.833 -21 -113.5zM730.998 739c45.333 -10 86.834 -25.001 124.501 -45.001s70.167 -45 97.5 -75s48.666 -65.333 63.999 -106s23 -87 23 -139c0 -60 -11.333 -114 -34 -162s-54.167 -89 -94.5 -123s-88.666 -60 -144.999 -78
s-118.5 -27 -186.5 -27s-130.167 9 -186.5 27s-104.666 44 -144.999 78s-71.833 75 -94.5 123s-34 102 -34 162c0 52 7.66699 98.333 23 139s36.5 76 63.5 106s59.333 55 97 75s79.167 35 124.5 45c-41.333 12 -78 28.333 -110 49s-58.833 45.334 -80.5 74.001
s-38.167 60.5 -49.5 95.5s-17 72.5 -17 112.5c0 50 9.5 97 28.5 141s46.167 82.333 81.5 115s78.166 58.334 128.499 77.001s107.166 28 170.499 28c62.667 0 119.167 -9.33301 169.5 -28s93.333 -44.334 129 -77.001s63 -71 82 -115s28.5 -91 28.5 -141
c0 -40 -5.66699 -77.5 -17 -112.5s-28 -66.667 -50 -95s-49 -53 -81 -74s-68.667 -37.5 -110 -49.5z" />
    <glyph glyph-name="nine" unicode="9" 
d="M559 676c56.667 0 107.333 9.66797 152 29.001s82.167 44.666 112.5 75.999s53.5 66.5 69.5 105.5s24 78.5 24 118.5c0 51.333 -8.33301 98.333 -25 141s-40 79.167 -70 109.5s-65.5 54 -106.5 71s-85.833 25.5 -134.5 25.5c-52.667 0 -100.667 -8.33301 -144 -25
s-80.5 -40 -111.5 -70s-55.167 -65.833 -72.5 -107.5s-26 -87.5 -26 -137.5c0 -52 7.83301 -98.833 23.5 -140.5s38 -77 67 -106s64 -51.167 105 -66.5s86.5 -23 136.5 -23zM747.999 584.001l55.999 80.498c17.333 25 33 49.5 47 73.5
c-38.667 -43.333 -85.667 -76.833 -141 -100.5s-114.333 -35.5 -177 -35.5c-58 0 -111.5 9.5 -160.5 28.5s-91.5 46.167 -127.5 81.5s-64 77.833 -84 127.5s-30 105.167 -30 166.5c0 60.667 11.333 116.834 34 168.501s54 96.5 94 134.5s87.5 67.833 142.5 89.5
s115.167 32.5 180.5 32.5c62.667 0 120.167 -10.667 172.5 -32s97.333 -51.5 135 -90.5s67 -85.667 88 -140s31.5 -114.833 31.5 -181.5c0 -36.667 -3.83301 -71.667 -11.5 -105s-19 -66.666 -34 -99.999s-33.167 -67.5 -54.5 -102.5s-45.666 -72.5 -72.999 -112.5
l-371 -544c-10 -15.333 -26.333 -23 -49 -23h-87z" />
    <glyph glyph-name="colon" unicode=":" horiz-adv-x="480" 
d="M147 77c0 12.667 2.33301 24.667 7 36s11.167 21.166 19.5 29.499s18 15 29 20s23.167 7.5 36.5 7.5c12.667 0 24.667 -2.5 36 -7.5s21.166 -11.667 29.499 -20s15 -18.166 20 -29.499s7.5 -23.333 7.5 -36c0 -13.333 -2.5 -25.5 -7.5 -36.5s-11.667 -20.667 -20 -29
s-18.166 -14.833 -29.499 -19.5s-23.333 -7 -36 -7c-26 0 -47.833 8.83301 -65.5 26.5s-26.5 39.5 -26.5 65.5zM147 874c0 12.667 2.33301 24.667 7 36s11.167 21.166 19.5 29.499s18 15 29 20s23.167 7.5 36.5 7.5c12.667 0 24.667 -2.5 36 -7.5s21.166 -11.667 29.499 -20
s15 -18.166 20 -29.499s7.5 -23.333 7.5 -36c0 -13.333 -2.5 -25.5 -7.5 -36.5s-11.667 -20.667 -20 -29s-18.166 -14.833 -29.499 -19.5s-23.333 -7 -36 -7c-26 0 -47.833 8.83301 -65.5 26.5s-26.5 39.5 -26.5 65.5z" />
    <glyph glyph-name="semicolon" unicode=";" horiz-adv-x="502" 
d="M174 -238c-3.33301 2.66699 -5.49902 5.3291 -6.49902 7.99609s-1.5 5.66699 -1.5 9c0 4 2.66699 9.33301 8 16c6 6.66699 14.167 16.5 24.5 29.5s21 28.333 32 46s21 37.5 30 59.5s14.833 45.667 17.5 71c-10 -3.33301 -20.333 -5 -31 -5
c-24.667 0 -44.834 8.33301 -60.501 25s-23.5 38 -23.5 64c0 23.333 8 43.333 24 60s37 25 63 25c28.667 0 50.834 -9.83301 66.501 -29.5s23.5 -45.5 23.5 -77.5c0 -27.333 -3.5 -55.166 -10.5 -83.499s-17.167 -56.166 -30.5 -83.499s-29.333 -53.666 -48 -78.999
s-39.334 -48.666 -62.001 -69.999zM158.001 873.995c0 12.667 2.33301 24.667 7 36s11.167 21.166 19.5 29.499s18 15 29 20s23.167 7.5 36.5 7.5c12.667 0 24.667 -2.5 36 -7.5s21.166 -11.667 29.499 -20s15 -18.166 20 -29.499s7.5 -23.333 7.5 -36
c0 -13.333 -2.5 -25.5 -7.5 -36.5s-11.667 -20.667 -20 -29s-18.166 -14.833 -29.499 -19.5s-23.333 -7 -36 -7c-26 0 -47.833 8.83301 -65.5 26.5s-26.5 39.5 -26.5 65.5z" />
    <glyph glyph-name="less" unicode="&#x3c;" 
d="M344 697c-10.667 -5.33301 -21.833 -10.001 -33.5 -14.001s-24.167 -7.66699 -37.5 -11c25.333 -6 49 -14.667 71 -26l553 -281c10 -4.66699 17 -9.83398 21 -15.501s6 -12.167 6 -19.5v-65l-750 386v41l750 385v-65c0 -7.33301 -2 -13.666 -6 -18.999
s-11 -10.666 -21 -15.999z" />
    <glyph glyph-name="equal" unicode="=" 
d="M166 556h828v-74h-828v74zM166 869h828v-74h-828v74z" />
    <glyph glyph-name="greater" unicode="&#x3e;" 
d="M986 692l-0.000976562 -41.001l-750 -386v65c0 7.33301 2 13.833 6 19.5s10.667 10.834 20 15.501l554 281c10.667 5.33301 21.834 10 33.501 14s24.167 7.66699 37.5 11c-25.333 6 -49 14.667 -71 26l-554 280c-17.333 9.33301 -26 21 -26 35v65z" />
    <glyph glyph-name="question" unicode="?" horiz-adv-x="864" 
d="M94 1292c18 18 38.335 35.3379 61.002 52.0049s47.5 31.5 74.5 44.5s56.5 23.333 88.5 31s66.667 11.5 104 11.5c46 0 89.833 -7 131.5 -21s78 -34 109 -60s55.667 -57.833 74 -95.5s27.5 -79.834 27.5 -126.501c0 -50.667 -7.83301 -94.334 -23.5 -131.001
s-35.5 -68.834 -59.5 -96.501s-50 -52 -78 -73l-79 -59c-24.667 -18.333 -45.5 -36.833 -62.5 -55.5s-26.167 -39.334 -27.5 -62.001l-11 -164h-65l-6 171c-1.33301 28 5.66699 52.667 21 74s35 41.666 59 60.999s50 39 78 59s54.167 42.667 78.5 68
s44.666 54.333 60.999 87s24.5 71.667 24.5 117c0 36 -7 68.167 -21 96.5s-33 52.333 -57 72s-51.667 34.667 -83 45s-64 15.5 -98 15.5c-44 0 -82.167 -5.83301 -114.5 -17.5s-59.5 -24.667 -81.5 -39s-39.333 -27.333 -52 -39s-21.334 -17.5 -26.001 -17.5
c-10 0 -17.333 4 -22 12zM296.002 77.0049c0 12.667 2.33301 24.667 7 36s11.167 21.166 19.5 29.499s18 15 29 20s23.167 7.5 36.5 7.5c12.667 0 24.667 -2.5 36 -7.5s21.166 -11.667 29.499 -20s15 -18.166 20 -29.499s7.5 -23.333 7.5 -36
c0 -13.333 -2.5 -25.5 -7.5 -36.5s-11.667 -20.667 -20 -29s-18.166 -14.833 -29.499 -19.5s-23.333 -7 -36 -7c-26 0 -47.833 8.83301 -65.5 26.5s-26.5 39.5 -26.5 65.5z" />
    <glyph glyph-name="at" unicode="@" horiz-adv-x="1657" 
d="M1086 845c-16 4.66699 -32.5029 8.16699 -49.5029 10.5s-36.833 3.5 -59.5 3.5c-60 0 -114.5 -12.167 -163.5 -36.5s-90.667 -56.166 -125 -95.499s-61 -83.5 -80 -132.5s-28.5 -98.5 -28.5 -148.5c0 -26.667 3.33301 -51.5 10 -74.5s16.667 -42.833 30 -59.5
s29.833 -29.834 49.5 -39.501s42.834 -14.5 69.501 -14.5c24 0 48.833 4 74.5 12s50.334 22.5 74.001 43.5s45.834 49.333 66.501 85s38 81.167 52 136.5zM1082 541c-16 -61.333 -23.6699 -111.003 -23.0029 -149.003s7 -67.5 19 -88.5s28.167 -35 48.5 -42
s42.166 -10.5 65.499 -10.5c38 0 74.333 10 109 30s65.334 48.5 92.001 85.5s47.834 81.833 63.501 134.5s23.5 111.667 23.5 177c0 98.667 -16.167 184.834 -48.5 258.501s-76.333 134.834 -132 183.501s-120.5 85 -194.5 109s-152.667 36 -236 36
c-91.333 0 -177.833 -17.667 -259.5 -53s-153.334 -84.666 -215.001 -147.999s-110.667 -138.833 -147 -226.5s-54.5 -183.834 -54.5 -288.501c0 -118 18.833 -221.833 56.5 -311.5s88.834 -164.667 153.501 -225s140.167 -106 226.5 -137s178.166 -46.5 275.499 -46.5
c98.667 0 188.834 11.333 270.501 34s155.834 55.667 222.501 99c8 5.33301 15.333 7 22 5s11.667 -6.66699 15 -14l15 -37c-74.667 -49.333 -156.834 -87.333 -246.501 -114s-189.167 -40 -298.5 -40c-110 0 -212.667 17.5 -308 52.5s-178.333 86 -249 153
s-126.334 149.333 -167.001 247s-61 209.167 -61 334.5c0 111.333 19.667 214.666 59 309.999s93 178 161 248s147.333 124.833 238 164.5s187.667 59.5 291 59.5c89.333 0 175 -13.833 257 -41.5s154.5 -69 217.5 -124s113.333 -123.167 151 -204.5
s56.5 -175.666 56.5 -282.999c0 -72.667 -9.66699 -139 -29 -199s-45.833 -111.5 -79.5 -154.5s-73.167 -76.5 -118.5 -100.5s-93.666 -36 -144.999 -36c-58.667 0 -102.834 15.5 -132.501 46.5s-45.167 75.833 -46.5 134.5c-37.333 -62.667 -79.5 -107.834 -126.5 -135.501
s-97.833 -41.5 -152.5 -41.5c-37.333 0 -69.666 6.5 -96.999 19.5s-50 30.833 -68 53.5s-31.5 49.334 -40.5 80.001s-13.5 63.667 -13.5 99c0 56.667 10.833 113.5 32.5 170.5s53.334 108.333 95.001 154s92.834 82.834 153.501 111.501s129.667 43 207 43
c35.333 0 68.5 -3 99.5 -9s58.833 -14.667 83.5 -26z" />
    <glyph glyph-name="A" unicode="A" horiz-adv-x="1311" 
d="M972 514l-288 715c-10 23.333 -19.667 51.333 -29 84c-4 -16 -8.33301 -31.167 -13 -45.5s-9.66699 -27.5 -15 -39.5l-288 -714h633zM1285 0l-78.999 -0.000976562c-9.33301 0 -17 2.5 -23 7.5s-10.667 11.5 -14 19.5l-166 411h-695l-166 -411
c-2.66699 -7.33301 -7.33398 -13.666 -14.001 -18.999s-14.667 -8 -24 -8h-78l579 1415h101z" />
    <glyph glyph-name="B" unicode="B" horiz-adv-x="1264" 
d="M667 82c124 0 217.833 26.832 281.5 80.499s95.5 129.167 95.5 226.5c0 44.667 -8.5 84.834 -25.5 120.501s-41.5 66 -73.5 91s-71.333 44.167 -118 57.5s-99.667 20 -159 20h-356v-596h355zM312 1334l0.000976562 -581.001h306c65.333 0 121.166 8.33301 167.499 25
s84.333 38.667 114 66s51.5 58.333 65.5 93s21 70.334 21 107.001c0 95.333 -30.167 167.5 -90.5 216.5s-153.5 73.5 -279.5 73.5h-304zM616.001 1415c80.667 0 150.665 -7.99902 209.998 -23.999s108.333 -39.5 147 -70.5s67.334 -68.833 86.001 -113.5
s28 -95.334 28 -152.001c0 -37.333 -6.5 -73.333 -19.5 -108s-31.667 -66.667 -56 -96s-54.333 -54.833 -90 -76.5s-76.5 -38.167 -122.5 -49.5c111.333 -16 196.833 -52.833 256.5 -110.5s89.5 -133.5 89.5 -227.5c0 -60 -10.667 -114 -32 -162s-52.333 -88.667 -93 -122
s-90.667 -58.833 -150 -76.5s-126.666 -26.5 -201.999 -26.5h-459v1415h407z" />
    <glyph glyph-name="C" unicode="C" horiz-adv-x="1352" 
d="M1230 238c6.66699 0 12.333 -2.33301 17 -7l40 -43c-29.333 -31.333 -61.166 -59.5 -95.499 -84.5s-72 -46.333 -113 -64s-86 -31.334 -135 -41.001s-102.833 -14.5 -161.5 -14.5c-98 0 -187.833 17.167 -269.5 51.5s-151.834 83 -210.501 146
s-104.167 139.167 -136.5 228.5s-48.5 188.666 -48.5 297.999c0 107.333 16.667 205.333 50 294s80 164.834 140 228.501s132 113 216 148s176.667 52.5 278 52.5c96.667 0 182.334 -15 257.001 -45s142.667 -72.333 204 -127l-31 -45c-5.33301 -8 -13.666 -12 -24.999 -12
c-8 0 -21 7.33301 -39 22s-43 30.834 -75 48.501s-71.833 33.834 -119.5 48.501s-104.834 22 -171.501 22c-85.333 0 -163.5 -14.667 -234.5 -44s-132 -71.333 -183 -126s-90.833 -121.334 -119.5 -200.001s-43 -167 -43 -265c0 -100 14.5 -189.333 43.5 -268
s68.833 -145.167 119.5 -199.5s110.5 -96 179.5 -125s143.5 -43.5 223.5 -43.5c50.667 0 95.834 3.33301 135.501 10s76.167 16.667 109.5 30s64.333 29.666 93 48.999s57 42 85 68c3.33301 2.66699 6.66602 4.83398 9.99902 6.50098s6.66602 2.5 9.99902 2.5z" />
    <glyph glyph-name="D" unicode="D" horiz-adv-x="1520" 
d="M1401 708c0 -109.333 -16.333 -207.669 -49 -295.002s-78.667 -161.666 -138 -222.999s-130.5 -108.333 -213.5 -141s-174.5 -49 -274.5 -49h-517v1415h517c100 0 191.5 -16.333 274.5 -49s154.167 -79.667 213.5 -141s105.333 -135.666 138 -222.999
s49 -185.333 49 -294zM1295 707.997c0 98.667 -13.667 186.67 -41 264.003s-66 142.666 -116 195.999s-110 94 -180 122s-147.333 42 -232 42h-414v-1249h414c84.667 0 162 14 232 42s130 68.667 180 122s88.667 118.666 116 195.999s41 165.666 41 264.999z" />
    <glyph glyph-name="E" unicode="E" 
d="M1059 85l-2 -85h-848v1415h848v-85h-745v-572h620v-83h-620v-590h747z" />
    <glyph glyph-name="F" unicode="F" horiz-adv-x="1129" 
d="M312 1330v-595h645v-85h-645v-650h-103v1415h848v-85h-745z" />
    <glyph glyph-name="G" unicode="G" horiz-adv-x="1470" 
d="M1339 642v-503.002c-70.667 -50 -146 -88.333 -226 -115s-170 -40 -270 -40c-112 0 -212.667 17.167 -302 51.5s-165.5 83 -228.5 146s-111.333 139.167 -145 228.5s-50.5 188.666 -50.5 297.999s16.5 208.5 49.5 297.5s80.333 165 142 228s136.167 111.667 223.5 146
s185.666 51.5 294.999 51.5c54 0 103.833 -3.66699 149.5 -11s88.167 -18.166 127.5 -32.499s76 -32 110 -53s66.667 -45.167 98 -72.5l-28 -44c-9.33301 -16 -23.333 -19.667 -42 -11c-10 4 -24.333 13.333 -43 28s-44.334 30 -77.001 46s-73.167 30.333 -121.5 43
s-107.166 19 -176.499 19c-92 0 -175.167 -14.667 -249.5 -44s-137.666 -71.333 -189.999 -126s-92.666 -121.334 -120.999 -200.001s-42.5 -167 -42.5 -265c0 -99.333 14.167 -188.666 42.5 -267.999s69.333 -146.666 123 -201.999s118.834 -97.666 195.501 -126.999
s163 -44 259 -44c42 0 80.833 2.66699 116.5 8s69.667 12.833 102 22.5s63.666 21.667 93.999 36s61.166 30.5 92.499 48.5v381h-271c-7.33301 0 -13.5 2.33301 -18.5 7s-7.5 10 -7.5 16v56h390z" />
    <glyph glyph-name="H" unicode="H" horiz-adv-x="1510" 
d="M1301 1415v-1415h-103v678h-886v-678h-103v1415h103v-660h886v660h103z" />
    <glyph glyph-name="I" unicode="I" horiz-adv-x="521" 
d="M312 0h-103v1415h103v-1415z" />
    <glyph glyph-name="J" unicode="J" horiz-adv-x="829" 
d="M634 472c0 -79.333 -9.66602 -149.331 -28.999 -209.998s-47.333 -111.667 -84 -153s-81 -72.5 -133 -93.5s-110.667 -31.5 -176 -31.5c-30 0 -60.333 2.33301 -91 7s-62.334 12 -95.001 22c0.666992 9.33301 1.5 18.666 2.5 27.999s2.16699 18.666 3.5 27.999
c1.33301 6 3.83301 11.333 7.5 16s10.167 7 19.5 7c6 0 13.167 -1.16699 21.5 -3.5s18.166 -4.83301 29.499 -7.5s24.666 -5.16699 39.999 -7.5s33 -3.5 53 -3.5c50.667 0 96.334 8 137.001 24s75.334 40.5 104.001 73.5s50.5 74.667 65.5 125s22.5 109.5 22.5 177.5v945
h102v-943z" />
    <glyph glyph-name="K" unicode="K" horiz-adv-x="1270" 
d="M312 762l84.002 -0.000976562c12.667 0 23.667 0.5 33 1.5s17.833 2.83301 25.5 5.5s14.667 6.5 21 11.5s13.166 11.167 20.499 18.5l571 587c10 11.333 19.833 19 29.5 23s21.167 6 34.5 6h82l-618 -635c-12.667 -13.333 -23.834 -23.666 -33.501 -30.999
s-20.5 -13.333 -32.5 -18c14 -4 26.667 -10.167 38 -18.5s22.666 -19.166 33.999 -32.499l651 -680h-83c-17.333 0 -29.833 2.16699 -37.5 6.5s-15.167 11.166 -22.5 20.499l-598 612c-7.33301 7.33301 -14.166 13.666 -20.499 18.999s-13.333 9.83301 -21 13.5
s-16.667 6.33398 -27 8.00098s-23.5 2.5 -39.5 2.5h-91v-682h-103v1415h103v-653z" />
    <glyph glyph-name="L" unicode="L" horiz-adv-x="1012" 
d="M982 87v-87h-773v1415h103v-1328h670z" />
    <glyph glyph-name="M" unicode="M" horiz-adv-x="1816" 
d="M1607 1415v-1415h-89v1206c0 17.333 1 35.666 3 54.999l-557 -989c-9.33301 -17.333 -22.666 -26 -39.999 -26h-16c-17.333 0 -30.666 8.66699 -39.999 26l-572 991c2 -20 3 -39 3 -57v-1206h-90v1415h71c9.33301 0 16.666 -1 21.999 -3s10.666 -7.33301 15.999 -16
l571 -984c10 -18.667 18.667 -38.667 26 -60c4 10.667 8.33301 21.167 13 31.5s9.66699 20.166 15 29.499l555 983c5.33301 8.66699 10.833 14 16.5 16s13.167 3 22.5 3h70z" />
    <glyph glyph-name="N" unicode="N" horiz-adv-x="1510" 
d="M1301 1415l0.000976562 -1415h-48c-8.66699 0 -15.834 1.5 -21.501 4.5s-11.167 8.16699 -16.5 15.5l-919 1228c2 -20 3 -39 3 -57v-1191h-90v1415h51c9.33301 0 16.5 -1.16699 21.5 -3.5s10.5 -7.5 16.5 -15.5l917 -1225c-2 20 -3 39 -3 57v1187h89z" />
    <glyph glyph-name="O" unicode="O" horiz-adv-x="1583" 
d="M1466 708c0 -109.333 -16.333 -208.501 -49 -297.501s-78.667 -165 -138 -228s-130.5 -111.667 -213.5 -146s-174.5 -51.5 -274.5 -51.5s-191.333 17.167 -274 51.5s-153.667 83 -213 146s-105.333 139 -138 228s-49 188.167 -49 297.5c0 108.667 16.333 207.5 49 296.5
s78.667 165 138 228s130.333 111.833 213 146.5s174 52 274 52s191.5 -17.167 274.5 -51.5s154.167 -83.166 213.5 -146.499s105.333 -139.5 138 -228.5s49 -187.833 49 -296.5zM1360 707.999c0 98.667 -13.667 187.334 -41 266.001s-66 145.334 -116 200.001
s-110 96.5 -180 125.5s-147.333 43.5 -232 43.5c-84 0 -161 -14.5 -231 -43.5s-130.167 -70.833 -180.5 -125.5s-89.333 -121.334 -117 -200.001s-41.5 -167.334 -41.5 -266.001c0 -99.333 13.833 -188.166 41.5 -266.499s66.667 -144.833 117 -199.5
s110.5 -96.334 180.5 -125.001s147 -43 231 -43c84.667 0 162 14.333 232 43s130 70.334 180 125.001s88.667 121.167 116 199.5s41 167.166 41 266.499z" />
    <glyph glyph-name="P" unicode="P" horiz-adv-x="1156" 
d="M575 652c62 0 117.67 8.66504 167.003 25.998s91.166 41.333 125.499 72s60.666 66.834 78.999 108.501s27.5 87.167 27.5 136.5c0 108.667 -33.333 192.334 -100 251.001s-166.334 88 -299.001 88h-263v-682h263zM575.003 1415c166 0 291.166 -36.332 375.499 -108.999
s126.5 -176.334 126.5 -311.001c0 -62 -11.667 -119 -35 -171s-56.666 -96.833 -99.999 -134.5s-96 -67 -158 -88s-131.667 -31.5 -209 -31.5h-263v-570h-103v1415h366z" />
    <glyph glyph-name="Q" unicode="Q" horiz-adv-x="1583" 
d="M221 708c0 -99.333 13.833 -188.166 41.5 -266.499s66.667 -144.833 117 -199.5s110.5 -96.334 180.5 -125.001s147 -43 231 -43c84.667 0 162 14.333 232 43s130 70.334 180 125.001s88.667 121.167 116 199.5s41 167.166 41 266.499
c0 98.667 -13.667 187.334 -41 266.001s-66 145.334 -116 200.001s-110 96.5 -180 125.5s-147.333 43.5 -232 43.5c-84 0 -161 -14.5 -231 -43.5s-130.167 -70.833 -180.5 -125.5s-89.333 -121.334 -117 -200.001s-41.5 -167.334 -41.5 -266.001zM1524 -312l-86 -0.00195312
c-26 0 -47.333 8.33301 -64 25l-302 326c-42 -17.333 -86.333 -30.666 -133 -39.999s-96 -14 -148 -14c-100 0 -191.333 17.167 -274 51.5s-153.667 83 -213 146s-105.333 139 -138 228s-49 188.167 -49 297.5c0 108.667 16.333 207.5 49 296.5s78.667 165 138 228
s130.333 111.833 213 146.5s174 52 274 52s191.5 -17.167 274.5 -51.5s154.167 -83.166 213.5 -146.499s105.333 -139.5 138 -228.5s49 -187.833 49 -296.5c0 -71.333 -7.16699 -138.5 -21.5 -201.5s-34.833 -121 -61.5 -174s-59.167 -100.5 -97.5 -142.5
s-81.5 -78 -129.5 -108z" />
    <glyph glyph-name="R" unicode="R" horiz-adv-x="1214" 
d="M557 716c62.667 0 118.833 7.5 168.5 22.5s91.667 36.5 126 64.5s60.5 61.667 78.5 101s27 83.666 27 132.999c0 100.667 -32.833 175.334 -98.5 224.001s-161.5 73 -287.5 73h-259v-618h245zM1185 0l-87.999 0.000976562c-11.333 0 -20.833 1.83301 -28.5 5.5
s-14.834 10.5 -21.501 20.5l-454 574c-5.33301 7.33301 -10.833 13.666 -16.5 18.999s-12 9.5 -19 12.5s-15.333 5.16699 -25 6.5s-21.5 2 -35.5 2h-185v-640h-103v1415h362c162.667 0 284.5 -31.5 365.5 -94.5s121.5 -155.5 121.5 -277.5c0 -54 -9.33301 -103.333 -28 -148
s-45.5 -83.834 -80.5 -117.501s-77.333 -61.167 -127 -82.5s-105.5 -35.666 -167.5 -42.999c16 -10 30.333 -23.333 43 -40z" />
    <glyph glyph-name="S" unicode="S" horiz-adv-x="1070" 
d="M896 1243c-6 -11.333 -14.667 -16.998 -26 -16.998c-8.66699 0 -19.834 6.16699 -33.501 18.5s-32.167 26 -55.5 41s-52.5 28.833 -87.5 41.5s-78.167 19 -129.5 19s-96.5 -7.33301 -135.5 -22s-71.667 -34.667 -98 -60s-46.333 -54.666 -60 -87.999
s-20.5 -68.333 -20.5 -105c0 -48 10.167 -87.667 30.5 -119s47.166 -58 80.499 -80s71.166 -40.5 113.499 -55.5l130.5 -44.5c44.667 -14.667 88.167 -30.834 130.5 -48.501s80.166 -39.834 113.499 -66.501s60.166 -59.5 80.499 -98.5s30.5 -87.5 30.5 -145.5
c0 -59.333 -10.167 -115.166 -30.5 -167.499s-49.833 -97.833 -88.5 -136.5s-86 -69.167 -142 -91.5s-120 -33.5 -192 -33.5c-93.333 0 -173.666 16.5 -240.999 49.5s-126.333 78.167 -177 135.5l28 44c8 10 17.333 15 28 15c6 0 13.667 -4 23 -12l34 -29.5
c13.333 -11.667 29.333 -24.334 48 -38.001s40.334 -26.334 65.001 -38.001s53 -21.5 85 -29.5s68.333 -12 109 -12c56 0 106 8.5 150 25.5s81.167 40.167 111.5 69.5s53.5 64.166 69.5 104.499s24 83.5 24 129.5c0 50 -10.167 91.167 -30.5 123.5
s-47.166 59.333 -80.499 81s-71.166 39.834 -113.499 54.501s-85.833 29 -130.5 43s-88.167 29.667 -130.5 47s-80.166 39.5 -113.499 66.5s-60.166 60.667 -80.499 101s-30.5 90.833 -30.5 151.5c0 47.333 9 93 27 137s44.333 82.833 79 116.5s77.5 60.667 128.5 81
s109.167 30.5 174.5 30.5c73.333 0 139.166 -11.667 197.499 -35s111.5 -59 159.5 -107z" />
    <glyph glyph-name="T" unicode="T" horiz-adv-x="1158" 
d="M1129 1328h-497v-1328h-103v1328h-500v87h1100v-87z" />
    <glyph glyph-name="U" unicode="U" horiz-adv-x="1454" 
d="M727 73c68 0 128.831 11.833 182.498 35.5s99.167 56.5 136.5 98.5s65.833 91.5 85.5 148.5s29.5 118.5 29.5 184.5v875h102v-875c0 -78 -12.333 -150.833 -37 -218.5s-60.167 -126.667 -106.5 -177s-102.666 -89.833 -168.999 -118.5s-140.833 -43 -223.5 -43
s-157.167 14.333 -223.5 43s-122.666 68.167 -168.999 118.5s-81.833 109.333 -106.5 177s-37 140.5 -37 218.5v875h103v-874c0 -66 9.83301 -127.5 29.5 -184.5s48 -106.5 85 -148.5s82.333 -75 136 -99s114.5 -36 182.5 -36z" />
    <glyph glyph-name="V" unicode="V" horiz-adv-x="1311" 
d="M1285 1415l-584 -1415h-91l-584 1415h81c9.33301 0 17 -2.5 23 -7.5s10.667 -11.5 14 -19.5l482 -1174c5.33301 -14.667 10.666 -30.334 15.999 -47.001s10.333 -33.667 15 -51c4 17.333 8.33301 34.333 13 51s10 32.334 16 47.001l481 1174
c2.66699 7.33301 7.33398 13.666 14.001 18.999s14.667 8 24 8h80z" />
    <glyph glyph-name="W" unicode="W" horiz-adv-x="2034" 
d="M1986 1415l-445 -1415h-92l-418 1228c-5.33301 16.667 -10 34 -14 52c-4 -18 -8.66699 -35.333 -14 -52l-419 -1228h-91l-446 1415h85c19.333 0 31.666 -9 36.999 -27l357 -1163c7.33301 -26.667 14 -57 20 -91c3.33301 17.333 6.66602 33.5 9.99902 48.5
s7.33301 29.167 12 42.5l400 1163c2.66699 7.33301 7.33398 13.666 14.001 18.999s14.667 8 24 8h28c9.33301 0 17 -2.5 23 -7.5s10.667 -11.5 14 -19.5l400 -1163c4.66699 -12.667 8.83398 -26.667 12.501 -42s7.16699 -31.333 10.5 -48l9.5 47.5
c3 15 6.16699 29.167 9.5 42.5l357 1163c2 7.33301 6.5 13.666 13.5 18.999s15.167 8 24.5 8h78z" />
    <glyph glyph-name="X" unicode="X" horiz-adv-x="1246" 
d="M1204 0h-100.999c-9.33301 -0 -16.666 2.83301 -21.999 8.5s-9.66602 11.167 -12.999 16.5l-446 653c-2.66699 -10 -7.33398 -20 -14.001 -30l-438 -623c-4.66699 -6 -9.5 -11.667 -14.5 -17s-11.5 -8 -19.5 -8h-96l512 726l-489 689h101c9.33301 0 16.166 -2 20.499 -6
s8.16602 -8.66699 11.499 -14l430 -619c4 10 9 20 15 30l415 588c3.33301 6 7.5 11 12.5 15s10.833 6 17.5 6h98l-489 -683z" />
    <glyph glyph-name="Y" unicode="Y" horiz-adv-x="1190" 
d="M646 583l0.00195312 -583h-102v583l-524 832h90c9.33301 0 17 -2.16699 23 -6.5s11 -10.5 15 -18.5l405 -650c8.66699 -15.333 16.667 -30.166 24 -44.499s13.666 -28.5 18.999 -42.5c5.33301 14 11.333 28.167 18 42.5s14.334 29.166 23.001 44.499l405 650
c3.33301 7.33301 8.16602 13.333 14.499 18s14.166 7 23.499 7h90z" />
    <glyph glyph-name="Z" unicode="Z" horiz-adv-x="1195" 
d="M1118 1380c0 -12.667 -4.66602 -26.333 -13.999 -41l-898 -1254h905v-85h-1042v37c0 7.33301 1.16699 13.833 3.5 19.5s5.16602 11.167 8.49902 16.5l900 1257h-886v85h1023v-35z" />
    <glyph glyph-name="bracketleft" unicode="[" horiz-adv-x="594" 
d="M283 1452v-1651h206c9.33301 0 16.833 -2.66699 22.5 -8s8.5 -12.333 8.5 -21v-36h-318v1781h318v-36c0 -8.66699 -2.83301 -15.667 -8.5 -21s-13.167 -8 -22.5 -8h-206z" />
    <glyph glyph-name="backslash" unicode="\" horiz-adv-x="869" 
d="M76 1455l41 0.000976562c26 0 44 -12.333 54 -37l622 -1502h-39c-11.333 0 -22.333 3.16699 -33 9.5s-18.667 16.166 -24 29.499z" />
    <glyph glyph-name="bracketright" unicode="]" horiz-adv-x="594" 
d="M391 -264h-317v36c0 8.66699 2.66699 15.667 8 21s12.666 8 21.999 8h206v1651h-206c-9.33301 0 -16.666 2.66699 -21.999 8s-8 12.333 -8 21v36h317v-1781z" />
    <glyph glyph-name="asciicircum" unicode="^" 
d="M987 715h-68c-7.33301 0 -13.833 2.16699 -19.5 6.5s-10.167 9.83301 -13.5 16.5l-279 521c-6 12 -11.333 23.333 -16 34s-8.66699 21.667 -12 33c-3.33301 -11.333 -7.16602 -22.333 -11.499 -33l-14.5 -34l-275 -521c-2.66699 -5.33301 -6.83398 -10.5 -12.501 -15.5
s-13.167 -7.5 -22.5 -7.5h-70l376 700h59z" />
    <glyph glyph-name="underscore" unicode="_" horiz-adv-x="901" 
d="M844 -205v-68h-788v68h788z" />
    <glyph glyph-name="grave" unicode="`" horiz-adv-x="800" 
d="M286 1431c16 0 28 -2.33301 36 -7s15.667 -13 23 -25l157 -238h-55c-8 0 -14.833 1.16699 -20.5 3.5s-11.167 6.83301 -16.5 13.5l-216 253h92z" />
    <glyph glyph-name="a" unicode="a" horiz-adv-x="968" 
d="M721 481c-94.667 -3.33301 -176.169 -10.834 -244.502 -22.501s-124.666 -27.5 -168.999 -47.5s-77.166 -43.833 -98.499 -71.5s-32 -59.167 -32 -94.5c0 -33.333 5.5 -62.166 16.5 -86.499s25.667 -44.333 44 -60s39.5 -27.167 63.5 -34.5s49 -11 75 -11
c38.667 0 74.167 4.16699 106.5 12.5s62.333 20 90 35s53.5 32.833 77.5 53.5s47.667 43 71 67v260zM135.998 853.999c52 52 106.669 91.335 164.002 118.002s122.333 40 195 40c53.333 0 100 -8.5 140 -25.5s73.167 -41.333 99.5 -73s46.166 -70 59.499 -115
s20 -95.167 20 -150.5v-648h-38c-20 0 -32.333 9.33301 -37 28l-14 128c-27.333 -26.667 -54.5 -50.667 -81.5 -72s-55.167 -39.333 -84.5 -54s-61 -26 -95 -34s-71.333 -12 -112 -12c-34 0 -67 5 -99 15s-60.5 25.333 -85.5 46s-45 47.167 -60 79.5
s-22.5 71.166 -22.5 116.499c0 42 12 81 36 117s61.667 67.333 113 94s117.166 48 197.499 64s176.833 25.333 289.5 28v104c0 92 -19.833 162.833 -59.5 212.5s-98.5 74.5 -176.5 74.5c-48 0 -88.833 -6.66699 -122.5 -20s-62.167 -28 -85.5 -44s-42.333 -30.667 -57 -44
s-27 -20 -37 -20c-7.33301 0 -13.333 1.66699 -18 5s-8.66699 7.66602 -12 12.999z" />
    <glyph glyph-name="b" unicode="b" horiz-adv-x="1102" 
d="M260 217c38.667 -57.333 81.1689 -97.501 127.502 -120.501s98.5 -34.5 156.5 -34.5c59.333 0 111.166 10.667 155.499 32s81.333 51.833 111 91.5s51.834 87.834 66.501 144.501s22 120.334 22 191.001c0 137.333 -27.333 240.666 -82 309.999
s-131.334 104 -230.001 104c-70.667 0 -132.334 -17 -185.001 -51s-100 -81.333 -142 -142v-525zM260.002 821.999c43.333 58.667 94.001 104.832 152.001 138.499s125.333 50.5 202 50.5c60 0 113.667 -11 161 -33s87.5 -53.667 120.5 -95s58.167 -92.166 75.5 -152.499
s26 -128.833 26 -205.5c0 -80.667 -9.66699 -154.167 -29 -220.5s-47.5 -123 -84.5 -170s-82.167 -83.333 -135.5 -109s-114.333 -38.5 -183 -38.5c-70.667 0 -130.834 13.5 -180.501 40.5s-92.5 67.167 -128.5 120.5l-7 -123c-2 -16.667 -11 -25 -27 -25h-58v1455h96v-633z
" />
    <glyph glyph-name="c" unicode="c" horiz-adv-x="943" 
d="M833 862c-3.33301 -3.33301 -6.50684 -6.16504 -9.50684 -8.49805s-7.16699 -3.5 -12.5 -3.5c-6.66699 0 -15.667 4.5 -27 13.5s-26.666 18.833 -45.999 29.5s-43.5 20.5 -72.5 29.5s-64.167 13.5 -105.5 13.5c-57.333 0 -108.166 -10.167 -152.499 -30.5
s-81.833 -49.5 -112.5 -87.5s-53.834 -84 -69.501 -138s-23.5 -114.667 -23.5 -182c0 -70 8.16699 -132 24.5 -186s39.5 -99.5 69.5 -136.5s66.333 -65.167 109 -84.5s90 -29 142 -29c48 0 88.167 5.66699 120.5 17s59 23.666 80 36.999s37.5 25.666 49.5 36.999
s22 17 30 17s14.667 -3.33301 20 -10l25 -32c-15.333 -20 -34.666 -38.667 -57.999 -56s-49.666 -32.333 -78.999 -45s-61.166 -22.5 -95.499 -29.5s-70.166 -10.5 -107.499 -10.5c-63.333 0 -121.166 11.5 -173.499 34.5s-97.333 56.333 -135 100s-67 97.167 -88 160.5
s-31.5 135.333 -31.5 216c0 76 10 145.333 30 208s49.333 116.667 88 162s85.834 80.5 141.501 105.5s119.5 37.5 191.5 37.5c64.667 0 122 -10.333 172 -31s93.667 -48.667 131 -84z" />
    <glyph glyph-name="d" unicode="d" horiz-adv-x="1102" 
d="M843 781c-38 57.333 -80.168 97.666 -126.501 120.999s-99.166 35 -158.499 35c-58.667 0 -110 -10.667 -154 -32s-80.833 -51.5 -110.5 -90.5s-52 -85.667 -67 -140s-22.5 -114.166 -22.5 -179.499c0 -148 27.167 -256.833 81.5 -326.5s132.833 -104.5 235.5 -104.5
c65.333 0 125 17 179 51s101.667 81.667 143 143v523zM937.999 1455v-1455h-52c-17.333 0 -27.333 8.66699 -30 26l-10 157c-44 -60 -95.333 -107.667 -154 -143s-124.667 -53 -198 -53c-122.667 0 -218 42.333 -286 127s-102 211.667 -102 381
c0 72.667 9.5 140.5 28.5 203.5s46.833 117.667 83.5 164s81.834 82.833 135.501 109.5s115.5 40 185.5 40c67.333 0 125.666 -12.333 174.999 -37s92.333 -61.334 129 -110.001v590h95z" />
    <glyph glyph-name="e" unicode="e" horiz-adv-x="1043" 
d="M862 598c0 53.333 -7.49902 101.168 -22.499 143.501s-36.167 78.166 -63.5 107.499s-59.833 51.833 -97.5 67.5s-79.167 23.5 -124.5 23.5c-51.333 0 -97.333 -8 -138 -24s-75.834 -39 -105.501 -69s-53.5 -66 -71.5 -108s-30 -89 -36 -141h659zM198.001 537.002
l-0.00195312 -19.0029c0 -74.667 8.66699 -140.334 26 -197.001s42 -104.167 74 -142.5s70.667 -67.166 116 -86.499s96 -29 152 -29c50 0 93.333 5.5 130 16.5s67.5 23.333 92.5 37s44.833 26 59.5 37s25.334 16.5 32.001 16.5c8.66699 0 15.334 -3.33301 20.001 -10
l26 -32c-16 -20 -37.167 -38.667 -63.5 -56s-55.666 -32.166 -87.999 -44.499s-67 -22.166 -104 -29.499s-74.167 -11 -111.5 -11c-68 0 -130 11.833 -186 35.5s-104 58.167 -144 103.5s-70.833 100.833 -92.5 166.5s-32.5 140.834 -32.5 225.501
c0 71.333 10.167 137.166 30.5 197.499s49.666 112.333 87.999 156s85.333 77.834 141 102.501s118.834 37 189.501 37c56 0 108 -9.66699 156 -29s89.667 -47.5 125 -84.5s63.166 -82.5 83.499 -136.5s30.5 -116 30.5 -186c0 -14.667 -2 -24.667 -6 -30s-10.667 -8 -20 -8
h-724z" />
    <glyph glyph-name="f" unicode="f" horiz-adv-x="681" 
d="M223 0l0.000976562 891.001l-140 9c-18.667 2 -28 10.333 -28 25v39h168v126c0 56.667 7.33301 106.5 22 149.5s35.334 78.833 62.001 107.5s58.667 50.167 96 64.5s78.666 21.5 123.999 21.5c20.667 0 41.5 -1.83301 62.5 -5.5s39.833 -8.83398 56.5 -15.501l-3 -46
c-1.33301 -6 -4.16602 -9.83301 -8.49902 -11.5s-10.5 -2.33398 -18.5 -2.00098s-18.333 1.33301 -31 3s-27.334 2.5 -44.001 2.5c-32.667 0 -62.834 -4.83301 -90.501 -14.5s-51.5 -25.167 -71.5 -46.5s-35.5 -49.166 -46.5 -83.499s-16.5 -76.5 -16.5 -126.5v-123h323v-71
h-320v-893h-96z" />
    <glyph glyph-name="g" unicode="g" horiz-adv-x="1021" 
d="M489 440c42.667 0 80.667 6.16699 114 18.5s61.333 29.5 84 51.5s40 48.333 52 79s18 64.667 18 102s-6.16699 71.5 -18.5 102.5s-30 57.5 -53 79.5s-51 39 -84 51s-70.5 18 -112.5 18s-79.5 -6 -112.5 -18s-61 -29 -84 -51s-40.5 -48.5 -52.5 -79.5
s-18 -65.167 -18 -102.5s6 -71.333 18 -102s29.5 -57 52.5 -79s51 -39.167 84 -51.5s70.5 -18.5 112.5 -18.5zM861 -67c0 31.333 -8.16992 56.501 -24.5029 75.501s-38.166 33.833 -65.499 44.5s-58.833 18.167 -94.5 22.5s-73 7.5 -112 9.5l-117.5 6
c-39.333 2 -76.333 6 -111 12c-25.333 -10 -48.666 -21.5 -69.999 -34.5s-39.666 -27.833 -54.999 -44.5s-27.333 -34.834 -36 -54.501s-13 -40.834 -13 -63.501c0 -29.333 7.5 -56.5 22.5 -81.5s37 -46.667 66 -65s64.5 -32.833 106.5 -43.5s90.333 -16 145 -16
c50.667 0 97.834 5.66699 141.501 17s81.667 27.333 114 48s57.666 45.334 75.999 74.001s27.5 60 27.5 94zM964.997 951.001l0.00195312 -33c0 -14.667 -9.33301 -23.667 -28 -27l-152 -11c18.667 -25.333 33 -53.666 43 -84.999s15 -65.333 15 -102
c0 -48 -8.5 -91.5 -25.5 -130.5s-41 -72.333 -72 -100s-68.333 -49.167 -112 -64.5s-91.834 -23 -144.501 -23c-56.667 0 -108.334 8.66699 -155.001 26c-28 -16 -50.167 -34.833 -66.5 -56.5s-24.5 -43.167 -24.5 -64.5c0 -28.667 10.167 -50.667 30.5 -66
s47 -26.5 80 -33.5s70.667 -11.5 113 -13.5s85.5 -4.16699 129.5 -6.5s87.167 -6.5 129.5 -12.5s80 -16.5 113 -31.5s59.667 -36 80 -63s30.5 -62.833 30.5 -107.5c0 -41.333 -10.333 -81 -31 -119s-50.5 -71.667 -89.5 -101s-86.167 -52.833 -141.5 -70.5
s-117.333 -26.5 -186 -26.5c-70 0 -131.333 7.16699 -184 21.5s-96.834 33.666 -132.501 57.999s-62.5 52.5 -80.5 84.5s-27 66 -27 102c0 52.667 17.333 97.834 52 135.501s82 67.167 142 88.5c-33.333 11.333 -60.166 27.833 -80.499 49.5s-30.5 51.167 -30.5 88.5
c0 14 2.66699 28.667 8 44s13.333 30.5 24 45.5s23.667 29.167 39 42.5s32.666 25.333 51.999 36c-47.333 27.333 -84.166 63.666 -110.499 108.999s-39.5 98.333 -39.5 159c0 48 8.5 91.5 25.5 130.5s41.167 72.5 72.5 100.5s68.833 49.667 112.5 65s92.167 23 145.5 23
c44 0 84.5 -5.33301 121.5 -16s70.167 -25.667 99.5 -45h255z" />
    <glyph glyph-name="h" unicode="h" horiz-adv-x="1100" 
d="M260 827c46 56 98.499 100.667 157.499 134s125.167 50 198.5 50c54.667 0 102.834 -8.66699 144.501 -26s76.167 -42.333 103.5 -75s48 -72 62 -118s21 -98 21 -156v-636h-96v636c0 93.333 -21.333 166.5 -64 219.5s-107.667 79.5 -195 79.5
c-64.667 0 -125.167 -16.5 -181.5 -49.5s-106.5 -78.833 -150.5 -137.5v-748h-96v1455h96v-628z" />
    <glyph glyph-name="i" unicode="i" horiz-adv-x="445" 
d="M270 995v-995h-95v995h95zM311 1338c0 -12 -2.5 -23.167 -7.5 -33.5s-11.5 -19.5 -19.5 -27.5s-17.333 -14.333 -28 -19s-22 -7 -34 -7s-23.333 2.33301 -34 7s-20 11 -28 19s-14.333 17.167 -19 27.5s-7 21.5 -7 33.5s2.33301 23.5 7 34.5s11 20.5 19 28.5
s17.333 14.333 28 19s22 7 34 7s23.333 -2.33301 34 -7s20 -11 28 -19s14.5 -17.5 19.5 -28.5s7.5 -22.5 7.5 -34.5z" />
    <glyph glyph-name="j" unicode="j" horiz-adv-x="445" 
d="M270 995l-0.000976562 -1122c0 -34.667 -5 -66.667 -15 -96s-24.833 -54.833 -44.5 -76.5s-44.334 -38.667 -74.001 -51s-64.5 -18.5 -104.5 -18.5c-19.333 0 -36.666 1.66699 -51.999 5s-30.333 8.66602 -45 15.999l5 48c2 6 4.66699 9.5 8 10.5s7.83301 1 13.5 0
s12.834 -2.33301 21.501 -4s19.667 -2.5 33 -2.5c54 0 94 14.667 120 44s39 71 39 125v1122h95zM310.999 1338c0 -12 -2.5 -23.167 -7.5 -33.5s-11.667 -19.5 -20 -27.5s-17.833 -14.333 -28.5 -19s-22 -7 -34 -7s-23.333 2.33301 -34 7s-20 11 -28 19
s-14.333 17.167 -19 27.5s-7 21.5 -7 33.5s2.33301 23.5 7 34.5s11 20.5 19 28.5s17.333 14.333 28 19s22 7 34 7s23.333 -2.33301 34 -7s20.167 -11 28.5 -19s15 -17.5 20 -28.5s7.5 -22.5 7.5 -34.5z" />
    <glyph glyph-name="k" unicode="k" horiz-adv-x="952" 
d="M260 1455l0.000976562 -887h46c9.33301 0 18.166 1.33301 26.499 4s17.5 9 27.5 19l399 379c6.66699 8 14 14.167 22 18.5s18 6.5 30 6.5h84l-439 -417c-12 -14 -25 -25 -39 -33c10.667 -5.33301 19.834 -11.5 27.501 -18.5s15.167 -15.167 22.5 -24.5l461 -502h-83
c-9.33301 0 -17.833 1.5 -25.5 4.5s-14.834 9.16699 -21.501 18.5l-418 448c-5.33301 6 -10.5 11 -15.5 15s-10.167 7.16699 -15.5 9.5s-11.5 4 -18.5 5s-15.5 1.5 -25.5 1.5h-45v-502h-96v1455h96z" />
    <glyph glyph-name="l" unicode="l" horiz-adv-x="442" 
d="M269 1455v-1455h-96v1455h96z" />
    <glyph glyph-name="m" unicode="m" horiz-adv-x="1610" 
d="M164 0v994.999h53c16.667 0 26.334 -8.33301 29.001 -25l9 -144c38.667 55.333 83 100 133 134s106.333 51 169 51c72.667 0 130.834 -21 174.501 -63s73.167 -100.333 88.5 -175c12 40.667 28.833 76 50.5 106s46.5 54.833 74.5 74.5s58.5 34.167 91.5 43.5
s66.833 14 101.5 14c49.333 0 93.666 -8.16699 132.999 -24.5s72.666 -40.5 99.999 -72.5s48.333 -71.333 63 -118s22 -100 22 -160v-636h-95v636c0 97.333 -21 171.5 -63 222.5s-102 76.5 -180 76.5c-34.667 0 -67.834 -6.33301 -99.501 -19s-59.667 -31.5 -84 -56.5
s-43.666 -56.167 -57.999 -93.5s-21.5 -80.666 -21.5 -129.999v-636h-96v636c0 96.667 -19.167 170.667 -57.5 222s-94.5 77 -168.5 77c-54 0 -104 -16 -150 -48s-87 -76.333 -123 -133v-754h-96z" />
    <glyph glyph-name="n" unicode="n" horiz-adv-x="1100" 
d="M255 821c46 57.333 99.165 103.333 159.498 138s127.5 52 201.5 52c54.667 0 102.834 -8.66699 144.501 -26s76.167 -42.333 103.5 -75s48 -72 62 -118s21 -98 21 -156v-636h-96v636c0 93.333 -21.333 166.5 -64 219.5s-107.667 79.5 -195 79.5
c-64.667 0 -125.167 -16.5 -181.5 -49.5s-106.5 -78.833 -150.5 -137.5v-748h-96v995h53c16.667 0 26.334 -8.33301 29.001 -25z" />
    <glyph glyph-name="o" unicode="o" horiz-adv-x="1116" 
d="M558 1011c71.333 0 135.166 -12.167 191.499 -36.5s103.833 -58.833 142.5 -103.5s68.167 -98.5 88.5 -161.5s30.5 -133.5 30.5 -211.5s-10.167 -148.333 -30.5 -211s-49.833 -116.334 -88.5 -161.001s-86.167 -79 -142.5 -103s-120.166 -36 -191.499 -36
s-135.166 12 -191.499 36s-104 58.333 -143 103s-68.667 98.334 -89 161.001s-30.5 133 -30.5 211s10.167 148.5 30.5 211.5s50 116.833 89 161.5s86.667 79.167 143 103.5s120.166 36.5 191.499 36.5zM558 62c59.333 0 111.166 10.167 155.499 30.5s81.333 49.5 111 87.5
s51.834 83.833 66.501 137.5s22 113.834 22 180.501c0 66 -7.33301 126 -22 180s-36.834 100.167 -66.501 138.5s-66.667 67.833 -111 88.5s-96.166 31 -155.499 31s-111.166 -10.333 -155.499 -31s-81.333 -50.167 -111 -88.5s-52 -84.5 -67 -138.5s-22.5 -114 -22.5 -180
c0 -66.667 7.5 -126.834 22.5 -180.501s37.333 -99.5 67 -137.5s66.667 -67.167 111 -87.5s96.166 -30.5 155.499 -30.5z" />
    <glyph glyph-name="p" unicode="p" horiz-adv-x="1103" 
d="M260 217c19.333 -28.667 39.502 -52.833 60.502 -72.5s43.167 -35.667 66.5 -48s48.166 -21.166 74.499 -26.499s54.166 -8 83.499 -8c58.667 0 110 10.667 154 32s80.833 51.5 110.5 90.5s52 85.667 67 140s22.5 114.166 22.5 179.499c0 148 -27.333 256.833 -82 326.5
s-133 104.5 -235 104.5c-66 0 -125.667 -17 -179 -51s-101 -81.333 -143 -142v-525zM256.002 816.001c44 60 95.498 107.667 154.498 143s125.167 53 198.5 53c122 0 217.167 -42.333 285.5 -127s102.5 -211.667 102.5 -381c0 -72.667 -9.5 -140.5 -28.5 -203.5
s-47 -117.667 -84 -164s-82.333 -82.833 -136 -109.5s-115.5 -40 -185.5 -40c-67.333 0 -125.666 12.333 -174.999 37s-92 61 -128 109v-485h-96v1347h53c16.667 0 26.334 -8.33301 29.001 -25z" />
    <glyph glyph-name="q" unicode="q" horiz-adv-x="1101" 
d="M843 781c-36 55.333 -77.668 95.166 -125.001 119.499s-100.666 36.5 -159.999 36.5c-58.667 0 -110 -10.667 -154 -32s-80.833 -51.5 -110.5 -90.5s-52 -85.667 -67 -140s-22.5 -114.166 -22.5 -179.499c0 -148 27.167 -256.833 81.5 -326.5
s132.833 -104.5 235.5 -104.5c65.333 0 125 17 179 51s101.667 81.667 143 143v523zM937.999 995l-0.000976562 -1347h-95v531c-44 -58.667 -95 -105.334 -153 -140.001s-123.333 -52 -196 -52c-122.667 0 -218 42.333 -286 127s-102 211.667 -102 381
c0 72.667 9.5 140.5 28.5 203.5s46.833 117.667 83.5 164s81.834 82.833 135.501 109.5s115.5 40 185.5 40c68.667 0 128 -12.833 178 -38.5s93.333 -63.834 130 -114.501l9 111c2.66699 16.667 12.667 25 30 25h52z" />
    <glyph glyph-name="r" unicode="r" horiz-adv-x="707" 
d="M255 755c15.333 40.667 32.833 76.832 52.5 108.499s42.334 58.5 68.001 80.5s54.334 38.833 86.001 50.5s66.834 17.5 105.501 17.5c20.667 0 41 -1.83301 61 -5.5s37.667 -10.167 53 -19.5l-8 -66c-3.33301 -10.667 -9.66602 -16 -18.999 -16
c-8 0 -20.167 2.33301 -36.5 7s-37.833 7 -64.5 7c-38.667 0 -72.834 -5.83301 -102.501 -17.5s-56.334 -29.167 -80.001 -52.5s-44.334 -52.166 -62.001 -86.499s-33.834 -73.833 -48.501 -118.5v-644h-96v995h51c11.333 0 19.333 -2.33301 24 -7s7.66699 -12.667 9 -24z
" />
    <glyph glyph-name="s" unicode="s" horiz-adv-x="850" 
d="M711 872c-5.33301 -9.33301 -12.998 -14.002 -22.998 -14.002c-7.33301 0 -16.666 4.16699 -27.999 12.5s-26.5 17.666 -45.5 27.999s-42.5 19.666 -70.5 27.999s-62 12.5 -102 12.5c-36 0 -68.833 -5.16699 -98.5 -15.5s-55 -24.166 -76 -41.499
s-37.167 -37.5 -48.5 -60.5s-17 -47.167 -17 -72.5c0 -31.333 8 -57.333 24 -78s36.833 -38.334 62.5 -53.001s55.167 -27.334 88.5 -38.001l101.5 -32c34.333 -10.667 68.166 -22.5 101.499 -35.5s62.833 -29.167 88.5 -48.5s46.5 -43 62.5 -71s24 -62 24 -102
c0 -43.333 -7.66699 -83.666 -23 -120.999s-37.833 -69.666 -67.5 -96.999s-66.167 -49 -109.5 -65s-93 -24 -149 -24c-70 0 -130.333 11.167 -181 33.5s-96 51.5 -136 87.5l22 34c3.33301 5.33301 7.16602 9.33301 11.499 12s10.166 4 17.499 4
c8.66699 0 19.167 -5.33301 31.5 -16s28.833 -22.167 49.5 -34.5s46.167 -23.833 76.5 -34.5s67.833 -16 112.5 -16c42 0 79 5.83301 111 17.5s58.667 27.5 80 47.5s37.5 43.5 48.5 70.5s16.5 55.5 16.5 85.5c0 33.333 -8 61 -24 83s-37 40.667 -63 56
s-55.5 28.333 -88.5 39l-101.5 32c-34.667 10.667 -68.5 22.334 -101.5 35.001s-62.5 28.667 -88.5 48s-47 42.833 -63 70.5s-24 62.167 -24 103.5c0 35.333 7.66699 69.333 23 102s37.166 61.334 65.499 86.001s62.833 44.334 103.5 59.001s86.334 22 137.001 22
c60.667 0 114.5 -8.66699 161.5 -26s89.833 -44 128.5 -80z" />
    <glyph glyph-name="t" unicode="t" horiz-adv-x="685" 
d="M436 -16c-67.333 0 -119.832 18.668 -157.499 56.001s-56.5 95 -56.5 173v680h-143c-7.33301 0 -13.333 2 -18 6s-7 9.66699 -7 17v37l170 12l24 356c1.33301 6 4 11.333 8 16s9.66699 7 17 7h45v-380h314v-71h-314v-675c0 -27.333 3.5 -50.833 10.5 -70.5
s16.667 -35.834 29 -48.501s26.833 -22 43.5 -28s34.667 -9 54 -9c24 0 44.667 3.5 62 10.5s32.333 14.667 45 23s23 16 31 23s14.333 10.5 19 10.5c5.33301 0 10.666 -3.33301 15.999 -10l26 -42c-25.333 -28 -57.5 -50.5 -96.5 -67.5s-79.5 -25.5 -121.5 -25.5z" />
    <glyph glyph-name="u" unicode="u" horiz-adv-x="1099" 
d="M936 995l-0.000976562 -995h-53c-16.667 0 -26.334 8.66699 -29.001 26l-9 148c-46 -57.333 -99.167 -103.333 -159.5 -138s-127.5 -52 -201.5 -52c-55.333 0 -103.666 8.66699 -144.999 26s-75.666 42.333 -102.999 75s-48 72 -62 118s-21 98 -21 156v636h96v-636
c0 -93.333 21.333 -166.5 64 -219.5s107.667 -79.5 195 -79.5c64.667 0 125.167 16.5 181.5 49.5s106.5 78.833 150.5 137.5v748h96z" />
    <glyph glyph-name="v" unicode="v" horiz-adv-x="1003" 
d="M963 995l-420 -994.999h-84l-420 995h75c9.33301 0 17 -2.5 23 -7.5s10 -10.5 12 -16.5l329 -785c10 -29.333 18 -58.333 24 -87c6 28.667 14.333 57.667 25 87l330 785c3.33301 7.33301 7.83301 13.166 13.5 17.499s12.5 6.5 20.5 6.5h72z" />
    <glyph glyph-name="w" unicode="w" horiz-adv-x="1529" 
d="M1479 995l-332.001 -994.999h-71c-11.333 0 -19 7 -23 21l-272 808c-3.33301 10 -6.33301 20 -9 30s-5 20 -7 30c-3.33301 -20 -8.33301 -40 -15 -60l-276 -808c-4 -14 -12 -21 -24 -21h-68l-332 995h72c9.33301 0 17 -2.5 23 -7.5s10 -10.5 12 -16.5l251 -785
c4 -15.333 7.66699 -30.166 11 -44.499s6 -28.5 8 -42.5l12 42.5c4 14.333 8.66699 29.166 14 44.499l266 792c4.66699 14.667 14 22 28 22h39c14.667 0 24.334 -7.33301 29.001 -22l264 -792l13 -44c4 -14 7.66699 -28 11 -42c2.66699 14 5.5 28 8.5 42
s6.83301 28.667 11.5 44l253 785c2.66699 7.33301 7 13.166 13 17.499s13 6.5 21 6.5h69z" />
    <glyph glyph-name="x" unicode="x" horiz-adv-x="938" 
d="M894 0h-91.002c-9.33301 -0 -16.666 2.83301 -21.999 8.5s-9.66602 11.167 -12.999 16.5l-302 441c-2.66699 -12 -7.66699 -23.667 -15 -35l-288 -406c-4.66699 -6 -9.5 -11.667 -14.5 -17s-11.5 -8 -19.5 -8h-86l362 509l-348 486h91c9.33301 0 16.333 -2 21 -6
s8.66699 -8.66699 12 -14l292 -421c1.33301 5.33301 3.5 11 6.5 17s6.16699 12 9.5 18l273 385c4 6 8.33301 11 13 15s10.667 6 18 6h87l-347 -480z" />
    <glyph glyph-name="y" unicode="y" horiz-adv-x="1003" 
d="M968 995l-572 -1315c-4 -9.33301 -9.16699 -17 -15.5 -23s-15.5 -9 -27.5 -9h-68l175 389l-421 958h79c10 0 18 -2.5 24 -7.5s10 -10.5 12 -16.5l335 -774c4 -10 7.5 -20.167 10.5 -30.5s5.83301 -20.833 8.5 -31.5c3.33301 10.667 6.83301 21.167 10.5 31.5
s7.5 20.5 11.5 30.5l331 774c3.33301 7.33301 8 13.166 14 17.499s12.667 6.5 20 6.5h73z" />
    <glyph glyph-name="z" unicode="z" horiz-adv-x="887" 
d="M817 995v-39.999c0 -14 -4.66699 -26.667 -14 -38l-623 -842h612v-75h-727v38c0 11.333 5 23.666 15 36.999l625 845h-607v75h719z" />
    <glyph glyph-name="braceleft" unicode="{" horiz-adv-x="590" 
d="M455 1452c-28.667 0 -54.834 -5.00391 -78.501 -15.0039s-44 -24.333 -61 -43s-30.333 -41.334 -40 -68.001s-14.5 -56.334 -14.5 -89.001c0 -38 3 -75 9 -111s12.667 -71.5 20 -106.5s14 -70 20 -105s9 -70.167 9 -105.5c0 -24.667 -4.16699 -47.334 -12.5 -68.001
s-19.333 -38.667 -33 -54s-29.334 -28.166 -47.001 -38.499s-36.167 -17.5 -55.5 -21.5c19.333 -4.66699 37.833 -12.167 55.5 -22.5s33.334 -23.166 47.001 -38.499s24.667 -33.333 33 -54s12.5 -43.334 12.5 -68.001c0 -35.333 -3 -70.5 -9 -105.5
s-12.667 -70.167 -20 -105.5s-14 -71 -20 -107s-9 -72.667 -9 -110c0 -32.667 4.83301 -62.334 14.5 -89.001s23 -49.334 40 -68.001s37.333 -33 61 -43s49.834 -15 78.501 -15h33c6 0 11.667 -2 17 -6s8 -9.66699 8 -17v-42h-55c-44 0 -83.5 7.16699 -118.5 21.5
s-64.5 34.333 -88.5 60s-42.333 55.834 -55 90.501s-19 72.334 -19 113.001c0 37.333 3.16699 73.5 9.5 108.5s13.166 69.833 20.499 104.5s14.166 69.334 20.499 104.001s9.5 70.334 9.5 107.001c0 22 -3.66699 42.167 -11 60.5s-17.833 34.333 -31.5 48
s-30 24.167 -49 31.5s-40.167 11 -63.5 11v61c23.333 0 44.5 3.66699 63.5 11s35.333 17.833 49 31.5s24.167 29.667 31.5 48s11 38.5 11 60.5c0 36.667 -3.16699 72.334 -9.5 107.001s-13.166 69.334 -20.499 104.001s-14.166 69.5 -20.499 104.5s-9.5 71.167 -9.5 108.5
c0 40.667 6.33301 78.334 19 113.001s31 64.834 55 90.501s53.5 45.667 88.5 60s74.5 21.5 118.5 21.5h55v-42c0 -7.33301 -2.66699 -13 -8 -17s-11 -6 -17 -6h-33z" />
    <glyph glyph-name="bar" unicode="|" horiz-adv-x="477" 
d="M201 1517h75v-1872h-75v1872z" />
    <glyph glyph-name="braceright" unicode="}" horiz-adv-x="590" 
d="M508 596c-23.333 0 -44.5 -3.66309 -63.5 -10.9961s-35.333 -17.833 -49 -31.5s-24.167 -29.667 -31.5 -48s-11 -38.5 -11 -60.5c0 -36.667 3.16699 -72.334 9.5 -107.001s13.166 -69.334 20.499 -104.001s14.166 -69.5 20.499 -104.5s9.5 -71.167 9.5 -108.5
c0 -40.667 -6.33301 -78.334 -19 -113.001s-31 -64.834 -55 -90.501s-53.5 -45.667 -88.5 -60s-74.5 -21.5 -118.5 -21.5h-55v42c0 7.33301 2.66699 13 8 17s11 6 17 6h33c28.667 0 54.834 5 78.501 15s44 24.333 61 43s30.333 41.334 40 68.001s14.5 56.334 14.5 89.001
c0 37.333 -3 74 -9 110s-12.667 71.667 -20 107s-14 70.5 -20 105.5s-9 70.167 -9 105.5c0 24.667 4.16699 47.334 12.5 68.001s19.333 38.667 33 54s29.334 28.166 47.001 38.499s36.167 17.833 55.5 22.5c-19.333 4 -37.833 11.167 -55.5 21.5
s-33.334 23.166 -47.001 38.499s-24.667 33.333 -33 54s-12.5 43.334 -12.5 68.001c0 35.333 3 70.5 9 105.5s12.667 70 20 105s14 70.5 20 106.5s9 73 9 111c0 32.667 -4.83301 62.334 -14.5 89.001s-23 49.334 -40 68.001s-37.333 33 -61 43s-49.834 15 -78.501 15h-33
c-6 0 -11.667 2 -17 6s-8 9.66699 -8 17v42h55c44 0 83.5 -7.16699 118.5 -21.5s64.5 -34.333 88.5 -60s42.333 -55.834 55 -90.501s19 -72.334 19 -113.001c0 -37.333 -3.16699 -73.5 -9.5 -108.5s-13.166 -69.833 -20.499 -104.5s-14.166 -69.334 -20.499 -104.001
s-9.5 -70.334 -9.5 -107.001c0 -22 3.66699 -42.167 11 -60.5s17.833 -34.333 31.5 -48s30 -24.167 49 -31.5s40.167 -11 63.5 -11v-61z" />
    <glyph glyph-name="asciitilde" unicode="~" 
d="M782 567c24.667 0 47.1641 4.5 67.4971 13.5s37.5 21.5 51.5 37.5s24.833 35 32.5 57s11.5 46 11.5 72h78c0 -36.667 -5.33301 -70.667 -16 -102s-26 -58.666 -46 -81.999s-44.667 -41.666 -74 -54.999s-62.666 -20 -99.999 -20c-34 0 -68.833 6.5 -104.5 19.5
s-71 27.5 -106 43.5s-68.833 30.5 -101.5 43.5s-63.334 19.5 -92.001 19.5c-25.333 0 -47.833 -4.5 -67.5 -13.5s-36.5 -21.5 -50.5 -37.5s-24.833 -35 -32.5 -57s-11.834 -46 -12.501 -72h-77c0 36.667 5.33301 70.667 16 102s26 58.666 46 81.999s44.5 41.666 73.5 54.999
s62.167 20 99.5 20c34.667 0 69.834 -6.5 105.501 -19.5s70.834 -27.5 105.501 -43.5s68.334 -30.5 101.001 -43.5s63.334 -19.5 92.001 -19.5z" />
    <glyph glyph-name="uni0400" unicode="&#x400;" 
d="M1059 85l-2 -85h-848v1415h848v-85h-745v-572h620v-83h-620v-590h747zM450 1841c16 0 28.168 -1.16602 36.501 -3.49902s16.5 -8.5 24.5 -18.5l239 -277h-65c-8.66699 0 -15.834 0.666992 -21.501 2s-11.5 4.66602 -17.5 9.99902l-304 287h108z" />
    <glyph glyph-name="afii10023" unicode="&#x401;" 
d="M1059 85l-2 -85h-848v1415h848v-85h-745v-572h620v-83h-620v-590h747zM528 1665c0 -10.667 -2.33301 -20.834 -7 -30.501s-10.667 -18 -18 -25s-16 -12.667 -26 -17s-20.333 -6.5 -31 -6.5s-20.834 2.16699 -30.501 6.5s-18.167 10 -25.5 17s-13.166 15.333 -17.499 25
s-6.5 19.834 -6.5 30.501s2.16699 21 6.5 31s10.166 18.833 17.499 26.5s15.833 13.667 25.5 18s19.834 6.5 30.501 6.5s21 -2.16699 31 -6.5s18.667 -10.333 26 -18s13.333 -16.5 18 -26.5s7 -20.333 7 -31zM919 1665c0 -10.667 -2.16797 -20.834 -6.50098 -30.501
s-10.333 -18 -18 -25s-16.334 -12.667 -26.001 -17s-19.834 -6.5 -30.501 -6.5c-11.333 0 -21.833 2.16699 -31.5 6.5s-18.167 10 -25.5 17s-13.166 15.333 -17.499 25s-6.5 19.834 -6.5 30.501c0 22 8 41.167 24 57.5s35 24.5 57 24.5
c10.667 0 20.834 -2.16699 30.501 -6.5s18.334 -10.333 26.001 -18s13.667 -16.5 18 -26.5s6.5 -20.333 6.5 -31z" />
    <glyph glyph-name="afii10051" unicode="&#x402;" horiz-adv-x="1448" 
d="M907 775c78.667 0 147.501 -8.49707 206.501 -25.4971s108 -41.667 147 -74s68.167 -71.5 87.5 -117.5s29 -98 29 -156c0 -62 -10.333 -117.833 -31 -167.5s-51 -91.834 -91 -126.501s-89.333 -61.334 -148 -80.001s-125.667 -28 -201 -28h-107v82h107
c123.333 0 215.833 27.5 277.5 82.5s92.5 131.167 92.5 228.5c0 99.333 -30.333 174.166 -91 224.499s-153.334 75.5 -278.001 75.5h-356v-693h-102v1331h-423v84h1022v-84h-497v-556h356z" />
    <glyph glyph-name="afii10052" unicode="&#x403;" horiz-adv-x="1067" 
d="M1037 1333h-725v-1333h-103v1415h828v-82zM939 1841l-328 -287.001c-6 -5.33301 -12 -8.66602 -18 -9.99902s-13 -2 -21 -2h-65l258 277c8 9.33301 16.167 15.333 24.5 18s20.5 4 36.5 4h113z" />
    <glyph glyph-name="afii10053" unicode="&#x404;" horiz-adv-x="1369" 
d="M1230 238c6.66699 0 12.3301 -2.33105 16.9971 -6.99805l40 -43c-29.333 -31.333 -61.166 -59.5 -95.499 -84.5s-72 -46.333 -113 -64s-86 -31.334 -135 -41.001s-102.833 -14.5 -161.5 -14.5c-98 0 -187.833 17.167 -269.5 51.5s-151.834 83 -210.501 146
s-104.167 139.167 -136.5 228.5s-48.5 188.666 -48.5 297.999c0 107.333 16.667 205.333 50 294s80 164.834 140 228.501s132 113 216 148s176.667 52.5 278 52.5c96.667 0 182.334 -15 257.001 -45s142.667 -72.333 204 -127l-31 -45c-5.33301 -8 -13.666 -12 -24.999 -12
c-8 0 -21 7.33301 -39 22s-43 30.834 -75 48.501s-71.833 33.834 -119.5 48.501s-104.834 22 -171.501 22c-81.333 0 -156.166 -13.333 -224.499 -40s-127.833 -64.834 -178.5 -114.501s-91.167 -110.334 -121.5 -182.001s-48.166 -152.5 -53.499 -242.5h784v-79h-786
c2.66699 -96 18.834 -182 48.501 -258s69.667 -140.333 120 -193s109.5 -92.834 177.5 -120.501s141.333 -41.5 220 -41.5c50.667 0 95.834 3.33301 135.501 10s76.167 16.667 109.5 30s64.333 29.666 93 48.999s57 42 85 68
c3.33301 2.66699 6.66602 4.83398 9.99902 6.50098s6.66602 2.5 9.99902 2.5z" />
    <glyph glyph-name="afii10054" unicode="&#x405;" horiz-adv-x="1070" 
d="M896 1243c-6 -11.333 -14.667 -16.998 -26 -16.998c-8.66699 0 -19.834 6.16699 -33.501 18.5s-32.167 26 -55.5 41s-52.5 28.833 -87.5 41.5s-78.167 19 -129.5 19s-96.5 -7.33301 -135.5 -22s-71.667 -34.667 -98 -60s-46.333 -54.666 -60 -87.999
s-20.5 -68.333 -20.5 -105c0 -48 10.167 -87.667 30.5 -119s47.166 -58 80.499 -80s71.166 -40.5 113.499 -55.5l130.5 -44.5c44.667 -14.667 88.167 -30.834 130.5 -48.501s80.166 -39.834 113.499 -66.501s60.166 -59.5 80.499 -98.5s30.5 -87.5 30.5 -145.5
c0 -59.333 -10.167 -115.166 -30.5 -167.499s-49.833 -97.833 -88.5 -136.5s-86 -69.167 -142 -91.5s-120 -33.5 -192 -33.5c-93.333 0 -173.666 16.5 -240.999 49.5s-126.333 78.167 -177 135.5l28 44c8 10 17.333 15 28 15c6 0 13.667 -4 23 -12l34 -29.5
c13.333 -11.667 29.333 -24.334 48 -38.001s40.334 -26.334 65.001 -38.001s53 -21.5 85 -29.5s68.333 -12 109 -12c56 0 106 8.5 150 25.5s81.167 40.167 111.5 69.5s53.5 64.166 69.5 104.499s24 83.5 24 129.5c0 50 -10.167 91.167 -30.5 123.5
s-47.166 59.333 -80.499 81s-71.166 39.834 -113.499 54.501s-85.833 29 -130.5 43s-88.167 29.667 -130.5 47s-80.166 39.5 -113.499 66.5s-60.166 60.667 -80.499 101s-30.5 90.833 -30.5 151.5c0 47.333 9 93 27 137s44.333 82.833 79 116.5s77.5 60.667 128.5 81
s109.167 30.5 174.5 30.5c73.333 0 139.166 -11.667 197.499 -35s111.5 -59 159.5 -107z" />
    <glyph glyph-name="afii10055" unicode="&#x406;" horiz-adv-x="521" 
d="M312 0h-103v1415h103v-1415z" />
    <glyph glyph-name="afii10056" unicode="&#x407;" horiz-adv-x="521" 
d="M312 0h-103v1415h103v-1415zM148 1665c0 -10.667 -2.33301 -20.834 -7 -30.501s-10.667 -18 -18 -25s-16 -12.667 -26 -17s-20.333 -6.5 -31 -6.5s-20.834 2.16699 -30.501 6.5s-18.167 10 -25.5 17s-13.166 15.333 -17.499 25s-6.5 19.834 -6.5 30.501
s2.16699 21 6.5 31s10.166 18.833 17.499 26.5s15.833 13.667 25.5 18s19.834 6.5 30.501 6.5s21 -2.16699 31 -6.5s18.667 -10.333 26 -18s13.333 -16.5 18 -26.5s7 -20.333 7 -31zM539 1665c0 -10.667 -2.16797 -20.834 -6.50098 -30.501s-10.333 -18 -18 -25
s-16.334 -12.667 -26.001 -17s-19.834 -6.5 -30.501 -6.5c-11.333 0 -21.833 2.16699 -31.5 6.5s-18.167 10 -25.5 17s-13.166 15.333 -17.499 25s-6.5 19.834 -6.5 30.501c0 22 8 41.167 24 57.5s35 24.5 57 24.5c10.667 0 20.834 -2.16699 30.501 -6.5
s18.334 -10.333 26.001 -18s13.667 -16.5 18 -26.5s6.5 -20.333 6.5 -31z" />
    <glyph glyph-name="afii10057" unicode="&#x408;" horiz-adv-x="829" 
d="M634 472c0 -79.333 -9.66602 -149.331 -28.999 -209.998s-47.333 -111.667 -84 -153s-81 -72.5 -133 -93.5s-110.667 -31.5 -176 -31.5c-30 0 -60.333 2.33301 -91 7s-62.334 12 -95.001 22c0.666992 9.33301 1.5 18.666 2.5 27.999s2.16699 18.666 3.5 27.999
c1.33301 6 3.83301 11.333 7.5 16s10.167 7 19.5 7c6 0 13.167 -1.16699 21.5 -3.5s18.166 -4.83301 29.499 -7.5s24.666 -5.16699 39.999 -7.5s33 -3.5 53 -3.5c50.667 0 96.334 8 137.001 24s75.334 40.5 104.001 73.5s50.5 74.667 65.5 125s22.5 109.5 22.5 177.5v945
h102v-943z" />
    <glyph glyph-name="afii10058" unicode="&#x409;" horiz-adv-x="2077" 
d="M1527 82c124 0 216.667 27.501 278 82.501s92 131.167 92 228.5c0 99.333 -30.333 174.166 -91 224.499s-153 75.5 -277 75.5h-331v-611h329zM1529 775.001c78.667 0 147.499 -8.49609 206.499 -25.4961s108 -41.667 147 -74s68.167 -71.5 87.5 -117.5s29 -98 29 -156
c0 -62 -10.5 -117.833 -31.5 -167.5s-51.5 -91.834 -91.5 -126.501s-89.333 -61.334 -148 -80.001s-125.667 -28 -201 -28h-432v1333h-569c-8.66699 -187.333 -20.334 -350.833 -35.001 -490.5s-32.167 -259.334 -52.5 -359.001s-43.333 -181.5 -69 -245.5
s-54 -114.5 -85 -151.5s-64.5 -62.667 -100.5 -77s-74 -21.5 -114 -21.5c-21.333 0 -40 2 -56 6s-24 9.66699 -24 17v64h60c30.667 0 60.334 6.83301 89.001 20.5s55.834 38.667 81.501 75s49.5 86.166 71.5 149.499s41.833 144.5 59.5 243.5s33 218.333 46 358
s23.5 304.167 31.5 493.5h769v-640h331z" />
    <glyph glyph-name="afii10059" unicode="&#x40a;" horiz-adv-x="2181" 
d="M1631 82c123.333 0 215.834 27.501 277.501 82.501s92.5 131.167 92.5 228.5c0 99.333 -30.333 174.166 -91 224.499s-153.334 75.5 -278.001 75.5h-331v-611h330zM1632 775.001c78.667 0 147.5 -8.49805 206.5 -25.498s108 -41.667 147 -74s68.167 -71.5 87.5 -117.5
s29 -98 29 -156c0 -62 -10.333 -117.833 -31 -167.5s-51 -91.834 -91 -126.501s-89.333 -61.334 -148 -80.001s-125.667 -28 -201 -28h-433v678h-886v-678h-103v1415h103v-660h886v660h103v-640h331z" />
    <glyph glyph-name="afii10060" unicode="&#x40b;" horiz-adv-x="1468" 
d="M551 769c74 21.333 145.335 38.9971 214.002 52.9971s133 22.167 193 24.5s114.667 -2 164 -13s91.666 -30.667 126.999 -59s62.666 -66.5 81.999 -114.5s29 -107.667 29 -179v-481h-103v481c0 80 -16 142.333 -48 187s-78.333 74.334 -139 89.001
s-134.667 15.834 -222 3.50098s-186.333 -35.166 -297 -68.499v-692h-102v1331h-423v84h1022v-84h-497v-562z" />
    <glyph glyph-name="afii10061" unicode="&#x40c;" horiz-adv-x="1280" 
d="M1252 0l-88.001 -0.000976562c-13.333 0 -24.333 3 -33 9s-17.667 15.667 -27 29l-465 574c-9.33301 12 -18.5 22.5 -27.5 31.5s-19 16.333 -30 22s-23.5 9.83398 -37.5 12.501s-30.333 4 -49 4h-183v-682h-103v1415h103v-653h163c16.667 0 31.834 1 45.501 3
s26.667 5.5 39 10.5s24.166 12.167 35.499 21.5s23 21.333 35 36l444 550c6.66699 9.33301 14.667 17 24 23s20 9 32 9h83l-482 -599c-17.333 -22.667 -35.666 -40.667 -54.999 -54s-41.666 -23.666 -66.999 -30.999c30 -6.66699 55.167 -17.834 75.5 -33.501
s40.166 -37.167 59.499 -64.5zM1006 1841l-328 -287.001c-6 -5.33301 -12 -8.66602 -18 -9.99902s-13 -2 -21 -2h-65l258 277c8 9.33301 16.167 15.333 24.5 18s20.5 4 36.5 4h113z" />
    <glyph glyph-name="uni040D" unicode="&#x40d;" horiz-adv-x="1510" 
d="M1301 1415l-0.000976562 -1415h-103v1162c0 21.333 0.5 43.166 1.5 65.499s2.83301 45.5 5.5 69.5c-9.33301 -20.667 -18.666 -39.5 -27.999 -56.5s-18.666 -32.833 -27.999 -47.5l-817 -1161c-5.33301 -8.66699 -12.166 -16.167 -20.499 -22.5s-17.5 -9.5 -27.5 -9.5
h-75v1415h103v-1162c0 -21.333 -0.333008 -43 -1 -65s-2.33398 -44.667 -5.00098 -68c8.66699 20 17.667 38.5 27 55.5s18.666 32.833 27.999 47.5l818 1160c5.33301 8.66699 12 16.167 20 22.5s17 9.5 27 9.5h75zM557.999 1840c16 0 28.168 -1.16602 36.501 -3.49902
s16.5 -8.5 24.5 -18.5l239 -277h-65c-8.66699 0 -15.834 0.666992 -21.501 2s-11.5 4.66602 -17.5 9.99902l-304 287h108z" />
    <glyph glyph-name="afii10062" unicode="&#x40e;" horiz-adv-x="1205" 
d="M1183 1415l-580 -1246c-15.333 -33.333 -31.833 -61.5 -49.5 -84.5s-36.834 -41.667 -57.501 -56s-43.167 -24.666 -67.5 -30.999s-50.833 -9.5 -79.5 -9.5c-21.333 0 -40 2 -56 6s-24 9.66699 -24 17v64h61c40 0 75.667 10.5 107 31.5s58.333 55.833 81 104.5l86 185
l-571 1019h95c9.33301 0 17 -2.16699 23 -6.5s11 -10.5 15 -18.5l441 -803c18.667 -34 33.334 -68.667 44.001 -104c4.66699 17.333 10.334 34.833 17.001 52.5s14.334 35.167 23.001 52.5l369 802c3.33301 7.33301 8.16602 13.333 14.499 18s14.166 7 23.499 7h85z
M616 1573c60 0 103.334 15 130.001 45s40 78.667 40 146h54c7.33301 0 13.166 -3.16699 17.499 -9.5s6.5 -14.166 6.5 -23.499c0 -64 -20.667 -114.5 -62 -151.5s-103.333 -55.5 -186 -55.5s-144.834 18.5 -186.501 55.5s-62.5 87.5 -62.5 151.5
c0 9.33301 2.33301 17.166 7 23.499s10.667 9.5 18 9.5h53c0 -67.333 13.333 -116 40 -146s70.334 -45 131.001 -45z" />
    <glyph glyph-name="afii10145" unicode="&#x40f;" horiz-adv-x="1447" 
d="M1237 1415v-1415h-467v-322c0 -10 -3.16699 -18 -9.5 -24s-14.833 -9 -25.5 -9h-59v355h-467v1415h103v-1333h822v1333h103z" />
    <glyph glyph-name="afii10017" unicode="&#x410;" horiz-adv-x="1309" 
d="M971 514l-288 715c-10 23.333 -19.667 51.333 -29 84c-4 -16 -8.33301 -31.167 -13 -45.5s-9.66699 -27.5 -15 -39.5l-288 -714h633zM1284 0l-78.999 -0.000976562c-9.33301 0 -17 2.5 -23 7.5s-10.667 11.5 -14 19.5l-166 411h-695l-166 -411
c-2.66699 -7.33301 -7.33398 -13.666 -14.001 -18.999s-14.667 -8 -24 -8h-78l579 1415h101z" />
    <glyph glyph-name="afii10018" unicode="&#x411;" horiz-adv-x="1217" 
d="M641 82c124 0 216.667 27.501 278 82.501s92 131.167 92 228.5c0 99.333 -30.333 174.166 -91 224.499s-153 75.5 -277 75.5h-331v-611h329zM643 775.001c78.667 0 147.5 -8.49805 206.5 -25.498s108 -41.667 147 -74s68.167 -71.5 87.5 -117.5s29 -98 29 -156
c0 -62 -10.5 -117.833 -31.5 -167.5s-51.5 -91.834 -91.5 -126.501s-89.333 -61.334 -148 -80.001s-125.667 -28 -201 -28h-432v1415h860v-81h-757v-559h331z" />
    <glyph glyph-name="afii10019" unicode="&#x412;" horiz-adv-x="1264" 
d="M667 82c124 0 217.833 26.832 281.5 80.499s95.5 129.167 95.5 226.5c0 44.667 -8.5 84.834 -25.5 120.501s-41.5 66 -73.5 91s-71.333 44.167 -118 57.5s-99.667 20 -159 20h-356v-596h355zM312 1334l0.000976562 -581.001h306c65.333 0 121.166 8.33301 167.499 25
s84.333 38.667 114 66s51.5 58.333 65.5 93s21 70.334 21 107.001c0 95.333 -30.167 167.5 -90.5 216.5s-153.5 73.5 -279.5 73.5h-304zM616.001 1415c80.667 0 150.665 -7.99902 209.998 -23.999s108.333 -39.5 147 -70.5s67.334 -68.833 86.001 -113.5
s28 -95.334 28 -152.001c0 -37.333 -6.5 -73.333 -19.5 -108s-31.667 -66.667 -56 -96s-54.333 -54.833 -90 -76.5s-76.5 -38.167 -122.5 -49.5c111.333 -16 196.833 -52.833 256.5 -110.5s89.5 -133.5 89.5 -227.5c0 -60 -10.667 -114 -32 -162s-52.333 -88.667 -93 -122
s-90.667 -58.833 -150 -76.5s-126.666 -26.5 -201.999 -26.5h-459v1415h407z" />
    <glyph glyph-name="afii10020" unicode="&#x413;" horiz-adv-x="1067" 
d="M1037 1333h-725v-1333h-103v1415h828v-82z" />
    <glyph glyph-name="afii10021" unicode="&#x414;" horiz-adv-x="1518" 
d="M1120 82l0.00195312 1251h-569c-9.33301 -196 -22.333 -365 -39 -507s-36.334 -262.5 -59.001 -361.5s-48.334 -179 -77.001 -240s-59.667 -108.5 -93 -142.5h837zM1469 82l-0.000976562 -403.999c0 -10 -3.16699 -18 -9.5 -24s-14.833 -9 -25.5 -9h-59v355h-1266v-322
c0 -10 -3.16699 -18 -9.5 -24s-14.833 -9 -25.5 -9h-59v437h132c24 9.33301 47.5 26 70.5 50s44.833 58 65.5 102s40.167 99.333 58.5 166s34.833 147.667 49.5 243s27.334 206.666 38.001 333.999s19 273.333 25 438h769v-1333h246z" />
    <glyph glyph-name="afii10022" unicode="&#x415;" 
d="M1059 85l-2 -85h-848v1415h848v-85h-745v-572h620v-83h-620v-590h747z" />
    <glyph glyph-name="afii10024" unicode="&#x416;" horiz-adv-x="2007" 
d="M1971 0l-67.999 -0.00195312c-15.333 0 -28.833 3.5 -40.5 10.5s-21.167 16.167 -28.5 27.5l-444 567c-19.333 25.333 -40.833 44.5 -64.5 57.5s-54.5 19.5 -92.5 19.5h-181v-682h-98v682h-180c-38.667 0 -69.834 -6.5 -93.501 -19.5s-44.834 -32.167 -63.501 -57.5
l-444 -567c-7.33301 -11.333 -16.833 -20.5 -28.5 -27.5s-25.167 -10.5 -40.5 -10.5h-68l482 630c18.667 28 39.334 50 62.001 66s49 27.667 79 35c-28 7.33301 -51.667 18.5 -71 33.5s-38.333 34.833 -57 59.5l-471 591h79c11.333 0 22 -3 32 -9s18.333 -14.333 25 -25
l436 -545c12 -15.333 24.167 -27.833 36.5 -37.5s25 -17.167 38 -22.5s26.5 -9 40.5 -11s29.333 -3 46 -3h161v653h98v-653h161c16.667 0 32.167 1 46.5 3s28 5.66699 41 11s25.5 12.833 37.5 22.5s24 22.167 36 37.5l436 545c6.66699 10.667 15 19 25 25s21 9 33 9h78
l-471 -591c-18 -24.667 -36.667 -44.5 -56 -59.5s-43 -26.167 -71 -33.5c30 -7.33301 56.167 -19.166 78.5 -35.499s42.833 -38.166 61.5 -65.499z" />
    <glyph glyph-name="afii10025" unicode="&#x417;" horiz-adv-x="1136" 
d="M126 1286c52.667 46.667 111.17 82.1709 175.503 106.504s139.5 36.5 225.5 36.5c68 0 129.333 -8.83301 184 -26.5s101.167 -42.167 139.5 -73.5s67.833 -68.5 88.5 -111.5s31 -89.5 31 -139.5c0 -39.333 -6 -75.666 -18 -108.999s-28.5 -63.333 -49.5 -90
s-45.833 -49.834 -74.5 -69.501s-59.667 -35.5 -93 -47.5c43.333 -13.333 82.333 -31.333 117 -54s64.167 -49.167 88.5 -79.5s43 -63.666 56 -99.999s19.5 -74.833 19.5 -115.5c0 -59.333 -11 -115 -33 -167s-54.167 -97.333 -96.5 -136s-94.166 -69 -155.499 -91
s-131.333 -33 -210 -33c-51.333 0 -98.833 4.33301 -142.5 13s-84.167 21 -121.5 37s-71.833 35.333 -103.5 58s-61.167 48.334 -88.5 77.001l28 44c8 10 17.333 15 28 15c6.66699 0 15 -4 25 -12l37 -29.5c14.667 -11.667 32.167 -24.334 52.5 -38.001
s44.333 -26.334 72 -38.001s59.167 -21.5 94.5 -29.5s75.666 -12 120.999 -12c62.667 0 118.5 8.33301 167.5 25s90.333 40 124 70s59.334 65.5 77.001 106.5s26.5 85.833 26.5 134.5c0 43.333 -7.83301 83.833 -23.5 121.5s-38.834 70.5 -69.501 98.5s-68.167 50 -112.5 66
s-94.833 24 -151.5 24h-186v86h190c40.667 0 79.667 6 117 18s70.166 29.5 98.499 52.5s50.833 51 67.5 84s25 70.833 25 113.5c0 40 -8 76.667 -24 110s-38.667 62.166 -68 86.499s-65.333 43.166 -108 56.499s-90.334 20 -143.001 20c-40.667 0 -76.667 -3 -108 -9
s-59.166 -13.333 -83.499 -22s-45.333 -18.334 -63 -29.001s-32.834 -20.334 -45.501 -29.001l-32 -22c-8.66699 -6 -16 -9 -22 -9c-10.667 0 -19.334 5.66699 -26.001 17z" />
    <glyph glyph-name="afii10026" unicode="&#x418;" horiz-adv-x="1510" 
d="M1301 1415l-0.000976562 -1415h-103v1162c0 21.333 0.5 43.166 1.5 65.499s2.83301 45.5 5.5 69.5c-9.33301 -20.667 -18.666 -39.5 -27.999 -56.5s-18.666 -32.833 -27.999 -47.5l-817 -1161c-5.33301 -8.66699 -12.166 -16.167 -20.499 -22.5s-17.5 -9.5 -27.5 -9.5
h-75v1415h103v-1162c0 -21.333 -0.333008 -43 -1 -65s-2.33398 -44.667 -5.00098 -68c8.66699 20 17.667 38.5 27 55.5s18.666 32.833 27.999 47.5l818 1160c5.33301 8.66699 12 16.167 20 22.5s17 9.5 27 9.5h75z" />
    <glyph glyph-name="afii10027" unicode="&#x419;" horiz-adv-x="1510" 
d="M1301 1415l-0.000976562 -1415h-103v1162c0 21.333 0.5 43.166 1.5 65.499s2.83301 45.5 5.5 69.5c-9.33301 -20.667 -18.666 -39.5 -27.999 -56.5s-18.666 -32.833 -27.999 -47.5l-817 -1161c-5.33301 -8.66699 -12.166 -16.167 -20.499 -22.5s-17.5 -9.5 -27.5 -9.5
h-75v1415h103v-1162c0 -21.333 -0.333008 -43 -1 -65s-2.33398 -44.667 -5.00098 -68c8.66699 20 17.667 38.5 27 55.5s18.666 32.833 27.999 47.5l818 1160c5.33301 8.66699 12 16.167 20 22.5s17 9.5 27 9.5h75zM750.999 1572c60 0 103.334 15 130.001 45
s40 78.667 40 146h54c7.33301 0 13.166 -3.16699 17.499 -9.5s6.5 -14.166 6.5 -23.499c0 -64 -20.667 -114.5 -62 -151.5s-103.333 -55.5 -186 -55.5s-144.834 18.5 -186.501 55.5s-62.5 87.5 -62.5 151.5c0 9.33301 2.33301 17.166 7 23.499s10.667 9.5 18 9.5h53
c0 -67.333 13.333 -116 40 -146s70.334 -45 131.001 -45z" />
    <glyph glyph-name="afii10028" unicode="&#x41a;" horiz-adv-x="1280" 
d="M1252 0l-88.001 -0.000976562c-13.333 0 -24.333 3 -33 9s-17.667 15.667 -27 29l-465 574c-9.33301 12 -18.5 22.5 -27.5 31.5s-19 16.333 -30 22s-23.5 9.83398 -37.5 12.501s-30.333 4 -49 4h-183v-682h-103v1415h103v-653h163c16.667 0 31.834 1 45.501 3
s26.667 5.5 39 10.5s24.166 12.167 35.499 21.5s23 21.333 35 36l444 550c6.66699 9.33301 14.667 17 24 23s20 9 32 9h83l-482 -599c-17.333 -22.667 -35.666 -40.667 -54.999 -54s-41.666 -23.666 -66.999 -30.999c30 -6.66699 55.167 -17.834 75.5 -33.501
s40.166 -37.167 59.499 -64.5z" />
    <glyph glyph-name="afii10029" unicode="&#x41b;" horiz-adv-x="1407" 
d="M1198 0l-103.001 0.00195312v1333h-569c-8.66699 -187.333 -20.334 -350.833 -35.001 -490.5s-32.167 -259.334 -52.5 -359.001s-43.333 -181.5 -69 -245.5s-54 -114.5 -85 -151.5s-64.5 -62.667 -100.5 -77s-74 -21.5 -114 -21.5c-21.333 0 -40 2 -56 6
s-24 9.66699 -24 17v64h60c30.667 0 60.334 6.83301 89.001 20.5s55.834 38.667 81.501 75s49.5 86.166 71.5 149.499s41.833 144.5 59.5 243.5s33 218.333 46 358s23.5 304.167 31.5 493.5h769v-1415z" />
    <glyph glyph-name="afii10030" unicode="&#x41c;" horiz-adv-x="1816" 
d="M1607 1415v-1415h-89v1206c0 17.333 1 35.666 3 54.999l-557 -989c-9.33301 -17.333 -22.666 -26 -39.999 -26h-16c-17.333 0 -30.666 8.66699 -39.999 26l-572 991c2 -20 3 -39 3 -57v-1206h-90v1415h71c9.33301 0 16.666 -1 21.999 -3s10.666 -7.33301 15.999 -16
l571 -984c10 -18.667 18.667 -38.667 26 -60c4 10.667 8.33301 21.167 13 31.5s9.66699 20.166 15 29.499l555 983c5.33301 8.66699 10.833 14 16.5 16s13.167 3 22.5 3h70z" />
    <glyph glyph-name="afii10031" unicode="&#x41d;" horiz-adv-x="1510" 
d="M1301 1415v-1415h-103v678h-886v-678h-103v1415h103v-660h886v660h103z" />
    <glyph glyph-name="afii10032" unicode="&#x41e;" horiz-adv-x="1583" 
d="M1466 708c0 -109.333 -16.333 -208.501 -49 -297.501s-78.667 -165 -138 -228s-130.5 -111.667 -213.5 -146s-174.5 -51.5 -274.5 -51.5s-191.333 17.167 -274 51.5s-153.667 83 -213 146s-105.333 139 -138 228s-49 188.167 -49 297.5c0 108.667 16.333 207.5 49 296.5
s78.667 165 138 228s130.333 111.833 213 146.5s174 52 274 52s191.5 -17.167 274.5 -51.5s154.167 -83.166 213.5 -146.499s105.333 -139.5 138 -228.5s49 -187.833 49 -296.5zM1360 707.999c0 98.667 -13.667 187.334 -41 266.001s-66 145.334 -116 200.001
s-110 96.5 -180 125.5s-147.333 43.5 -232 43.5c-84 0 -161 -14.5 -231 -43.5s-130.167 -70.833 -180.5 -125.5s-89.333 -121.334 -117 -200.001s-41.5 -167.334 -41.5 -266.001c0 -99.333 13.833 -188.166 41.5 -266.499s66.667 -144.833 117 -199.5
s110.5 -96.334 180.5 -125.001s147 -43 231 -43c84.667 0 162 14.333 232 43s130 70.334 180 125.001s88.667 121.167 116 199.5s41 167.166 41 266.499z" />
    <glyph glyph-name="afii10033" unicode="&#x41f;" horiz-adv-x="1447" 
d="M1237 0h-103v1333h-822v-1333h-103v1415h1028v-1415z" />
    <glyph glyph-name="afii10034" unicode="&#x420;" horiz-adv-x="1156" 
d="M575 652c62 0 117.67 8.66504 167.003 25.998s91.166 41.333 125.499 72s60.666 66.834 78.999 108.501s27.5 87.167 27.5 136.5c0 108.667 -33.333 192.334 -100 251.001s-166.334 88 -299.001 88h-263v-682h263zM575.003 1415c166 0 291.166 -36.332 375.499 -108.999
s126.5 -176.334 126.5 -311.001c0 -62 -11.667 -119 -35 -171s-56.666 -96.833 -99.999 -134.5s-96 -67 -158 -88s-131.667 -31.5 -209 -31.5h-263v-570h-103v1415h366z" />
    <glyph glyph-name="afii10035" unicode="&#x421;" horiz-adv-x="1352" 
d="M1230 238c6.66699 0 12.333 -2.33301 17 -7l40 -43c-29.333 -31.333 -61.166 -59.5 -95.499 -84.5s-72 -46.333 -113 -64s-86 -31.334 -135 -41.001s-102.833 -14.5 -161.5 -14.5c-98 0 -187.833 17.167 -269.5 51.5s-151.834 83 -210.501 146
s-104.167 139.167 -136.5 228.5s-48.5 188.666 -48.5 297.999c0 107.333 16.667 205.333 50 294s80 164.834 140 228.501s132 113 216 148s176.667 52.5 278 52.5c96.667 0 182.334 -15 257.001 -45s142.667 -72.333 204 -127l-31 -45c-5.33301 -8 -13.666 -12 -24.999 -12
c-8 0 -21 7.33301 -39 22s-43 30.834 -75 48.501s-71.833 33.834 -119.5 48.501s-104.834 22 -171.501 22c-85.333 0 -163.5 -14.667 -234.5 -44s-132 -71.333 -183 -126s-90.833 -121.334 -119.5 -200.001s-43 -167 -43 -265c0 -100 14.5 -189.333 43.5 -268
s68.833 -145.167 119.5 -199.5s110.5 -96 179.5 -125s143.5 -43.5 223.5 -43.5c50.667 0 95.834 3.33301 135.501 10s76.167 16.667 109.5 30s64.333 29.666 93 48.999s57 42 85 68c3.33301 2.66699 6.66602 4.83398 9.99902 6.50098s6.66602 2.5 9.99902 2.5z" />
    <glyph glyph-name="afii10036" unicode="&#x422;" horiz-adv-x="1158" 
d="M1129 1328h-497v-1328h-103v1328h-500v87h1100v-87z" />
    <glyph glyph-name="afii10037" unicode="&#x423;" horiz-adv-x="1205" 
d="M1183 1415l-580 -1246c-15.333 -33.333 -31.833 -61.5 -49.5 -84.5s-36.834 -41.667 -57.501 -56s-43.167 -24.666 -67.5 -30.999s-50.833 -9.5 -79.5 -9.5c-21.333 0 -40 2 -56 6s-24 9.66699 -24 17v64h61c40 0 75.667 10.5 107 31.5s58.333 55.833 81 104.5l86 185
l-571 1019h95c9.33301 0 17 -2.16699 23 -6.5s11 -10.5 15 -18.5l441 -803c18.667 -34 33.334 -68.667 44.001 -104c4.66699 17.333 10.334 34.833 17.001 52.5s14.334 35.167 23.001 52.5l369 802c3.33301 7.33301 8.16602 13.333 14.499 18s14.166 7 23.499 7h85z" />
    <glyph glyph-name="afii10038" unicode="&#x424;" horiz-adv-x="1512" 
d="M805 256c77.333 0.666992 147.166 13.999 209.499 39.999s115.5 61.333 159.5 106s78 96.834 102 156.501s36 123.167 36 190.5c0 66.667 -12 129.667 -36 189s-58 111.333 -102 156s-97.167 80.167 -159.5 106.5s-132.166 39.833 -209.499 40.5v-985zM707 1241
c-77.333 -0.666992 -147.333 -14.166 -210 -40.499s-116 -61.833 -160 -106.5s-78 -96.667 -102 -156s-36 -122.333 -36 -189c0 -67.333 12 -130.833 36 -190.5s58 -111.834 102 -156.501s97.333 -80 160 -106s132.667 -39.333 210 -40v985zM805 1321
c94 -1.33301 178.668 -17.335 254.001 -48.002s139.333 -72 192 -124s93.167 -112.5 121.5 -181.5s42.5 -141.833 42.5 -218.5c0 -52 -6.33301 -102.167 -19 -150.5s-31.167 -93.666 -55.5 -135.999s-54.166 -81 -89.499 -116s-75.5 -65.167 -120.5 -90.5
s-94.833 -45 -149.5 -59s-113.334 -21.333 -176.001 -22v-175h-98v175c-94 0.666992 -178.833 16.334 -254.5 47.001s-139.834 72 -192.501 124s-93.167 112.667 -121.5 182s-42.5 143 -42.5 221c0 76.667 14.5 149.5 43.5 218.5s70.167 129.5 123.5 181.5
s117.5 93.333 192.5 124s158.833 46.667 251.5 48v165h98v-165z" />
    <glyph glyph-name="afii10039" unicode="&#x425;" horiz-adv-x="1246" 
d="M1204 0h-100.999c-9.33301 -0 -16.666 2.83301 -21.999 8.5s-9.66602 11.167 -12.999 16.5l-446 653c-2.66699 -10 -7.33398 -20 -14.001 -30l-438 -623c-4.66699 -6 -9.5 -11.667 -14.5 -17s-11.5 -8 -19.5 -8h-96l512 726l-489 689h101c9.33301 0 16.166 -2 20.499 -6
s8.16602 -8.66699 11.499 -14l430 -619c4 10 9 20 15 30l415 588c3.33301 6 7.5 11 12.5 15s10.833 6 17.5 6h98l-489 -683z" />
    <glyph glyph-name="afii10040" unicode="&#x426;" horiz-adv-x="1525" 
d="M1471 82v-404c0 -10 -3.16699 -18 -9.5 -24s-14.833 -9 -25.5 -9h-59v355h-1168v1415h103v-1333h822v1333h103v-1333h234z" />
    <glyph glyph-name="afii10041" unicode="&#x427;" horiz-adv-x="1287" 
d="M1077 1415v-1415h-103v672c-74.667 -22 -147.834 -40 -219.501 -54s-139.5 -22.333 -203.5 -25s-123.167 1.5 -177.5 12.5s-101.166 30.833 -140.499 59.5s-70 67 -92 115s-33 107.667 -33 179v456h103v-456c0 -80 18 -142.333 54 -187s87.167 -74.167 153.5 -88.5
s146.5 -15.333 240.5 -3s199 35.166 315 68.499v666h103z" />
    <glyph glyph-name="afii10042" unicode="&#x428;" horiz-adv-x="2132" 
d="M1923 1415v-1415h-1714v1415h103v-1333h699v1333h103v-1333h706v1333h103z" />
    <glyph glyph-name="afii10043" unicode="&#x429;" horiz-adv-x="2210" 
d="M2156 82v-404c0 -10 -3.16699 -18 -9.5 -24s-14.833 -9 -25.5 -9h-59v355h-1853v1415h103v-1333h699v1333h103v-1333h706v1333h103v-1333h233z" />
    <glyph glyph-name="afii10044" unicode="&#x42a;" horiz-adv-x="1427" 
d="M877 82c124 0 216.667 27.501 278 82.501s92 131.167 92 228.5c0 99.333 -30.333 174.166 -91 224.499s-153 75.5 -277 75.5h-331v-611h329zM879 775.001c78.667 0 147.5 -8.49805 206.5 -25.498s108 -41.667 147 -74s68.167 -71.5 87.5 -117.5s29 -98 29 -156
c0 -62 -10.5 -117.833 -31.5 -167.5s-51.5 -91.834 -91.5 -126.501s-89.333 -61.334 -148 -80.001s-125.667 -28 -201 -28h-432v1330h-416v85h519v-640h331z" />
    <glyph glyph-name="afii10045" unicode="&#x42b;" horiz-adv-x="1751" 
d="M641 82c124 0 216.667 27.501 278 82.501s92 131.167 92 228.5c0 99.333 -30.333 174.166 -91 224.499s-153 75.5 -277 75.5h-331v-611h329zM643 775.001c78.667 0 147.5 -8.49805 206.5 -25.498s108 -41.667 147 -74s68.167 -71.5 87.5 -117.5s29 -98 29 -156
c0 -62 -10.5 -117.833 -31.5 -167.5s-51.5 -91.834 -91.5 -126.501s-89.333 -61.334 -148 -80.001s-125.667 -28 -201 -28h-432v1415h103v-640h331zM1541 0.00292969h-103v1415h103v-1415z" />
    <glyph glyph-name="afii10046" unicode="&#x42c;" horiz-adv-x="1191" 
d="M641 82c124 0 216.667 27.501 278 82.501s92 131.167 92 228.5c0 99.333 -30.333 174.166 -91 224.499s-153 75.5 -277 75.5h-331v-611h329zM643 775.001c78.667 0 147.5 -8.49805 206.5 -25.498s108 -41.667 147 -74s68.167 -71.5 87.5 -117.5s29 -98 29 -156
c0 -62 -10.5 -117.833 -31.5 -167.5s-51.5 -91.834 -91.5 -126.501s-89.333 -61.334 -148 -80.001s-125.667 -28 -201 -28h-432v1415h103v-640h331z" />
    <glyph glyph-name="afii10047" unicode="&#x42d;" horiz-adv-x="1368" 
d="M106 1259c61.333 54.667 129.328 96.998 203.995 126.998s160.334 45 257.001 45c101.333 0 194 -17.5 278 -52.5s156.167 -84.333 216.5 -148s107.166 -139.834 140.499 -228.501s50 -186.667 50 -294c0 -109.333 -16.333 -208.666 -49 -297.999
s-78.167 -165.5 -136.5 -228.5s-128.333 -111.667 -210 -146s-171.5 -51.5 -269.5 -51.5c-58.667 0 -112.5 4.83301 -161.5 14.5s-94 23.334 -135 41.001s-78.833 39 -113.5 64s-66.667 53.167 -96 84.5l40 43c4.66699 4.66699 10.334 7 17.001 7
c4 0 7.5 -0.833008 10.5 -2.5s6.16699 -3.83398 9.5 -6.50098c28 -26 56.333 -48.667 85 -68s59.667 -35.666 93 -48.999s69.833 -23.333 109.5 -30s84.834 -10 135.501 -10c78.667 0 152 13.833 220 41.5s127.333 67.834 178 120.501s90.834 117 120.501 193
s45.5 162 47.5 258h-786v79h784c-5.33301 90 -23.166 170.833 -53.499 242.5s-70.833 132.334 -121.5 182.001s-110.167 87.834 -178.5 114.501s-142.833 40 -223.5 40c-67.333 0 -124.666 -7.33301 -171.999 -22s-87 -30.834 -119 -48.501s-57.167 -33.834 -75.5 -48.501
s-31.5 -22 -39.5 -22c-11.333 0 -19.333 4 -24 12z" />
    <glyph glyph-name="afii10048" unicode="&#x42e;" horiz-adv-x="2034" 
d="M1297 73c76 0 145.5 14.5 208.5 43.5s117 70.667 162 125s79.833 120.833 104.5 199.5s37 167.667 37 267c0 98.667 -12.333 187.334 -37 266.001s-59.5 145.5 -104.5 200.5s-99 97.167 -162 126.5s-132.5 44 -208.5 44s-145.5 -14.667 -208.5 -44
s-117 -71.5 -162 -126.5s-79.833 -121.833 -104.5 -200.5s-37 -167.334 -37 -266.001c0 -99.333 12.333 -188.333 37 -267s59.5 -145.167 104.5 -199.5s99 -96 162 -125s132.5 -43.5 208.5 -43.5zM681 751c4 102.667 21.665 195.834 52.998 279.501s74 155.167 128 214.5
s117.833 105.166 191.5 137.499s154.834 48.5 243.501 48.5c91.333 0 174.833 -17.333 250.5 -52s140.667 -83.5 195 -146.5s96.5 -139 126.5 -228s45 -187.833 45 -296.5c0 -109.333 -15 -208.333 -45 -297s-72.167 -164.5 -126.5 -227.5s-119.333 -111.5 -195 -145.5
s-159.167 -51 -250.5 -51c-89.333 0 -170.833 16 -244.5 48s-137.5 77.667 -191.5 137s-96.667 131 -128 215s-48.666 178 -51.999 282h-369v-669h-103v1415h103v-664h369z" />
    <glyph glyph-name="afii10049" unicode="&#x42f;" horiz-adv-x="1296" 
d="M984 722l-0.000976562 611h-332c-124 0 -216.667 -26.333 -278 -79s-92 -127.667 -92 -225c0 -99.333 30.333 -175.333 91 -228s153.334 -79 278.001 -79h333zM1087 0h-103.004v640h-252c-19.333 0 -37.166 -1.5 -53.499 -4.5s-32.5 -8.5 -48.5 -16.5
s-32 -19.167 -48 -33.5s-32.667 -32.833 -50 -55.5l-379 -492c-7.33301 -11.333 -16.666 -20.5 -27.999 -27.5s-24.666 -10.5 -39.999 -10.5h-76l416 541c21.333 28.667 43 52 65 70s45 32.333 69 43c-62.667 6.66699 -117.667 20.167 -165 40.5s-86.666 46.5 -117.999 78.5
s-55 69.667 -71 113s-24 91 -24 143c0 60 10.333 113.833 31 161.5s51 88.167 91 121.5s89.333 58.833 148 76.5s125.667 26.5 201 26.5h435v-1415z" />
    <glyph glyph-name="afii10065" unicode="&#x430;" horiz-adv-x="968" 
d="M721 481c-94.667 -3.33301 -176.169 -10.834 -244.502 -22.501s-124.666 -27.5 -168.999 -47.5s-77.166 -43.833 -98.499 -71.5s-32 -59.167 -32 -94.5c0 -33.333 5.5 -62.166 16.5 -86.499s25.667 -44.333 44 -60s39.5 -27.167 63.5 -34.5s49 -11 75 -11
c38.667 0 74.167 4.16699 106.5 12.5s62.333 20 90 35s53.5 32.833 77.5 53.5s47.667 43 71 67v260zM135.998 853.999c52 52 106.669 91.335 164.002 118.002s122.333 40 195 40c53.333 0 100 -8.5 140 -25.5s73.167 -41.333 99.5 -73s46.166 -70 59.499 -115
s20 -95.167 20 -150.5v-648h-38c-20 0 -32.333 9.33301 -37 28l-14 128c-27.333 -26.667 -54.5 -50.667 -81.5 -72s-55.167 -39.333 -84.5 -54s-61 -26 -95 -34s-71.333 -12 -112 -12c-34 0 -67 5 -99 15s-60.5 25.333 -85.5 46s-45 47.167 -60 79.5
s-22.5 71.166 -22.5 116.499c0 42 12 81 36 117s61.667 67.333 113 94s117.166 48 197.499 64s176.833 25.333 289.5 28v104c0 92 -19.833 162.833 -59.5 212.5s-98.5 74.5 -176.5 74.5c-48 0 -88.833 -6.66699 -122.5 -20s-62.167 -28 -85.5 -44s-42.333 -30.667 -57 -44
s-27 -20 -37 -20c-7.33301 0 -13.333 1.66699 -18 5s-8.66699 7.66602 -12 12.999z" />
    <glyph glyph-name="afii10066" unicode="&#x431;" horiz-adv-x="1157" 
d="M590 58c59.333 0 111.664 9.83398 156.997 29.501s83.166 47.5 113.499 83.5s53.333 79.5 69 130.5s23.5 108.167 23.5 171.5c0 62.667 -7.33301 119.667 -22 171s-36.667 95.166 -66 131.499s-65.666 64.333 -108.999 84s-93.666 29.5 -150.999 29.5
c-54 0 -103.333 -8.5 -148 -25.5s-83.167 -41.667 -115.5 -74s-57.5 -71.666 -75.5 -117.999s-27 -98.833 -27 -157.5c0 -69.333 7.66699 -132 23 -188s37.833 -103.833 67.5 -143.5s66.334 -70.334 110.001 -92.001s93.834 -32.5 150.501 -32.5zM655.998 1300
c-74 -7.33301 -137.833 -25.665 -191.5 -54.998s-98.334 -69.166 -134.001 -119.499s-62.5 -111.166 -80.5 -182.499s-28 -153 -30 -245c14.667 41.333 35.167 78.333 61.5 111s57.333 60.167 93 82.5s74.667 39.5 117 51.5s86.833 18 133.5 18
c66.667 0 126.5 -11.667 179.5 -35s97.667 -56.333 134 -99s64.166 -94 83.499 -154s29 -126.667 29 -200s-10.667 -139.833 -32 -199.5s-52 -110.834 -92 -153.501s-88.5 -75.5 -145.5 -98.5s-120.833 -34.5 -191.5 -34.5c-61.333 0 -119.5 10.5 -174.5 31.5
s-103.167 56.5 -144.5 106.5s-74.166 116.667 -98.499 200s-36.5 187 -36.5 311c0 109.333 9.83301 208.166 29.5 296.499s50.334 164.666 92.001 228.999s94.834 115.666 159.501 153.999s142 62.166 232 71.499l358 37l5 -48c1.33301 -12 -0.333984 -21.667 -5.00098 -29
s-13 -11.666 -25 -12.999z" />
    <glyph glyph-name="afii10067" unicode="&#x432;" horiz-adv-x="978" 
d="M516 68c42 0 80 4.99609 114 14.9961s62.667 24.333 86 43s41.333 41.334 54 68.001s19 56.334 19 89.001c0 30 -5 57.333 -15 82s-25.833 45.834 -47.5 63.501s-49.667 31.334 -84 41.001s-75.5 14.5 -123.5 14.5h-263v-416h260zM256 928.996l0.00195312 -381h236
c36 0 69.333 4.83301 100 14.5s57 23.5 79 41.5s39.167 39.5 51.5 64.5s18.5 52.833 18.5 83.5c0 22.667 -4.16699 44.5 -12.5 65.5s-22.333 39.833 -42 56.5s-45.334 30 -77.001 40s-70.834 15 -117.501 15h-236zM495.002 994.996c60 0 111 -6.16699 153 -18.5
s76 -29 102 -50s45 -45.5 57 -73.5s18 -57.333 18 -88c0 -22 -3.33301 -45.167 -10 -69.5s-18 -47.833 -34 -70.5s-37.5 -43 -64.5 -61s-60.833 -31.333 -101.5 -40c90 -10.667 156.333 -37.5 199 -80.5s64 -96.833 64 -161.5c0 -44.667 -8.83301 -84.5 -26.5 -119.5
s-42.334 -64.5 -74.001 -88.5s-69.667 -42.333 -114 -55s-93.166 -19 -146.499 -19h-353v995h331z" />
    <glyph glyph-name="afii10068" unicode="&#x433;" horiz-adv-x="808" 
d="M774 922h-514v-922h-96v995h610v-73z" />
    <glyph glyph-name="afii10069" unicode="&#x434;" horiz-adv-x="1198" 
d="M877 71v848h-402c-7.33301 -132.667 -18.5 -247.334 -33.5 -344.001s-32.667 -178.667 -53 -246s-42.333 -121.666 -66 -162.999s-47.5 -73 -71.5 -95h626zM1152 73v-395.998c0 -21.333 -10 -32 -30 -32h-55v355h-953v-327c0 -7.33301 -2.16699 -13.833 -6.5 -19.5
s-10.833 -8.5 -19.5 -8.5h-59v426h39c24 0 47.833 5 71.5 15s46.667 27.833 69 53.5s43.5 60.667 63.5 105s38 100.666 54 168.999s30 150.166 42 245.499s21 207.333 27 336h575v-922h182z" />
    <glyph glyph-name="afii10070" unicode="&#x435;" horiz-adv-x="1043" 
d="M862 598c0 53.333 -7.49902 101.168 -22.499 143.501s-36.167 78.166 -63.5 107.499s-59.833 51.833 -97.5 67.5s-79.167 23.5 -124.5 23.5c-51.333 0 -97.333 -8 -138 -24s-75.834 -39 -105.501 -69s-53.5 -66 -71.5 -108s-30 -89 -36 -141h659zM198.001 537.002
l-0.00195312 -19.0029c0 -74.667 8.66699 -140.334 26 -197.001s42 -104.167 74 -142.5s70.667 -67.166 116 -86.499s96 -29 152 -29c50 0 93.333 5.5 130 16.5s67.5 23.333 92.5 37s44.833 26 59.5 37s25.334 16.5 32.001 16.5c8.66699 0 15.334 -3.33301 20.001 -10
l26 -32c-16 -20 -37.167 -38.667 -63.5 -56s-55.666 -32.166 -87.999 -44.499s-67 -22.166 -104 -29.499s-74.167 -11 -111.5 -11c-68 0 -130 11.833 -186 35.5s-104 58.167 -144 103.5s-70.833 100.833 -92.5 166.5s-32.5 140.834 -32.5 225.501
c0 71.333 10.167 137.166 30.5 197.499s49.666 112.333 87.999 156s85.333 77.834 141 102.501s118.834 37 189.501 37c56 0 108 -9.66699 156 -29s89.667 -47.5 125 -84.5s63.166 -82.5 83.499 -136.5s30.5 -116 30.5 -186c0 -14.667 -2 -24.667 -6 -30s-10.667 -8 -20 -8
h-724z" />
    <glyph glyph-name="afii10072" unicode="&#x436;" horiz-adv-x="1505" 
d="M1469 0h-67.0059c-17.333 0 -31 2.66699 -41 8s-18 14 -24 26l-251 353c-19.333 28 -42.666 49.167 -69.999 63.5s-58 21.5 -92 21.5h-125v-473h-93v473h-125c-34 0 -64.667 -7.16699 -92 -21.5s-50.666 -35.5 -69.999 -63.5l-252 -353
c-5.33301 -12 -13.166 -20.667 -23.499 -26s-24.166 -8 -41.499 -8h-66l297 414c18.667 27.333 39.167 49.166 61.5 65.499s49.166 28.166 80.499 35.499c-25.333 7.33301 -47.166 18.5 -65.499 33.5s-35.166 33.167 -50.499 54.5l-293 392h74
c21.333 0 37.333 -9.33301 48 -28l264 -354c16.667 -23.333 37.5 -41.666 62.5 -54.999s51.5 -20 79.5 -20h112v458h93v-458h111c28 0 54.667 6.66699 80 20s46.333 31.666 63 54.999l264 354c10.667 18.667 26.667 28 48 28h73l-292 -392
c-15.333 -21.333 -32.166 -39.5 -50.499 -54.5s-40.166 -26.167 -65.499 -33.5c31.333 -7.33301 58.166 -19.166 80.499 -35.499s42.833 -38.166 61.5 -65.499z" />
    <glyph glyph-name="afii10073" unicode="&#x437;" horiz-adv-x="893" 
d="M95 901c35.333 32.667 79.168 59.1709 131.501 79.5039s113.833 30.5 184.5 30.5c58.667 0 110 -7.33301 154 -22s80.667 -33.834 110 -57.501s51.166 -50.5 65.499 -80.5s21.5 -60.333 21.5 -91c0 -21.333 -3.83301 -43.5 -11.5 -66.5s-20 -44.833 -37 -65.5
s-39.333 -39.5 -67 -56.5s-61.5 -30.167 -101.5 -39.5c80 -16.667 140.667 -47.5 182 -92.5s62 -98.833 62 -161.5c0 -43.333 -9.66699 -82.833 -29 -118.5s-46 -66.334 -80 -92.001s-73.667 -45.5 -119 -59.5s-94 -21 -146 -21c-36.667 0 -72 3.5 -106 10.5
s-65.667 16.833 -95 29.5s-55.833 27.667 -79.5 45s-43.167 36 -58.5 56l25 32c5.33301 6.66699 12 10 20 10s18.5 -5.66699 31.5 -17s30.667 -23.666 53 -36.999s50 -25.666 83 -36.999s73.167 -17 120.5 -17c44 0 83.667 5.5 119 16.5s65.666 26.333 90.999 46
s44.833 43.167 58.5 70.5s20.5 57.333 20.5 90c0 30.667 -6.5 58.834 -19.5 84.501s-32.333 47.667 -58 66s-57.5 32.666 -95.5 42.999s-81.667 15.5 -131 15.5h-112v66h112c42.667 0 81.5 4.83301 116.5 14.5s64.667 23 89 40s43.166 37 56.499 60s20 48.167 20 75.5
c0 24 -5.33301 47.167 -16 69.5s-27 42.166 -49 59.499s-49.833 31.166 -83.5 41.499s-73.5 15.5 -119.5 15.5c-44 0 -81.667 -4.33301 -113 -13s-57.333 -18.334 -78 -29.001s-37.167 -20.334 -49.5 -29.001s-21.5 -13 -27.5 -13c-5.33301 0 -9.66602 1 -12.999 3
s-6.66602 5.66699 -9.99902 11z" />
    <glyph glyph-name="afii10074" unicode="&#x438;" horiz-adv-x="1133" 
d="M969 995l-0.00195312 -994.999h-95v802c0 9.33301 0.333008 19.333 1 30s1.66699 21.334 3 32.001c-4.66699 -9.33301 -9.16699 -17.833 -13.5 -25.5s-8.83301 -14.5 -13.5 -20.5c-1.33301 -1.33301 -10.666 -13.833 -27.999 -37.5l-68.5 -91.5l-96 -127l-108.5 -145
l-295 -393c-4 -6 -9.16699 -11.5 -15.5 -16.5s-13.166 -7.5 -20.499 -7.5h-55v995h96v-802c0 -9.33301 -0.333008 -19.333 -1 -30s-1.66699 -21.334 -3 -32.001c4 9.33301 8.33301 17.833 13 25.5l13 20.5c0.666992 1.33301 9.83398 13.666 27.501 36.999l69 91.5
l95.5 127.5l109 145l295 392c4 6.66699 9.16699 12.5 15.5 17.5s13.166 7.5 20.499 7.5h55z" />
    <glyph glyph-name="afii10075" unicode="&#x439;" horiz-adv-x="1133" 
d="M969 995l-0.00195312 -994.999h-95v802c0 9.33301 0.333008 19.333 1 30s1.66699 21.334 3 32.001c-4.66699 -9.33301 -9.16699 -17.833 -13.5 -25.5s-8.83301 -14.5 -13.5 -20.5c-1.33301 -1.33301 -10.666 -13.833 -27.999 -37.5l-68.5 -91.5l-96 -127l-108.5 -145
l-295 -393c-4 -6 -9.16699 -11.5 -15.5 -16.5s-13.166 -7.5 -20.499 -7.5h-55v995h96v-802c0 -9.33301 -0.333008 -19.333 -1 -30s-1.66699 -21.334 -3 -32.001c4 9.33301 8.33301 17.833 13 25.5l13 20.5c0.666992 1.33301 9.83398 13.666 27.501 36.999l69 91.5
l95.5 127.5l109 145l295 392c4 6.66699 9.16699 12.5 15.5 17.5s13.166 7.5 20.499 7.5h55zM574.998 1223c60 0 103.334 15.167 130.001 45.5s40 79.166 40 146.499h54c7.33301 0 13.166 -3.16699 17.499 -9.5s6.5 -14.166 6.5 -23.499c0 -64 -20.667 -115.333 -62 -154
s-103.333 -58 -186 -58s-144.834 19.333 -186.501 58s-62.5 90 -62.5 154c0 9.33301 2.33301 17.166 7 23.499s10.667 9.5 18 9.5h53c0 -67.333 13.333 -116.166 40 -146.499s70.334 -45.5 131.001 -45.5z" />
    <glyph glyph-name="afii10076" unicode="&#x43a;" horiz-adv-x="972" 
d="M782 967c5.33301 8 12.498 14.667 21.498 20s18.5 8 28.5 8h73l-292 -392c-15.333 -21.333 -32.166 -39.5 -50.499 -54.5s-40.5 -26.5 -66.5 -34.5c31.333 -6.66699 58.333 -18.167 81 -34.5s43.334 -38.166 62.001 -65.499l297 -414h-67c-17.333 0 -31 2.83301 -41 8.5
s-18.667 14.167 -26 25.5l-252 353c-19.333 28 -42.5 49.167 -69.5 63.5s-57.5 21.5 -91.5 21.5h-129v-473h-96v996h96v-457h115c28 0 54.5 6.66699 79.5 20s45.833 31.666 62.5 54.999z" />
    <glyph glyph-name="afii10077" unicode="&#x43b;" horiz-adv-x="1139" 
d="M975 0l-96 -0.00195312v919h-402c-6.66699 -131.333 -17.834 -245.5 -33.501 -342.5s-34.167 -180 -55.5 -249s-45.333 -125.5 -72 -169.5s-54.5 -78.667 -83.5 -104s-58.5 -42.666 -88.5 -51.999s-59.667 -14 -89 -14c-16 0 -30 1.33301 -42 4s-18 6.66699 -18 12v61h44
c24 0 48.5 4.83301 73.5 14.5s49.833 27.167 74.5 52.5s48.334 60 71.001 104s43.167 100.5 61.5 169.5s34.333 151.833 48 248.5s23.5 210.334 29.5 341.001h578v-995z" />
    <glyph glyph-name="afii10078" unicode="&#x43c;" horiz-adv-x="1385" 
d="M1220 1000l0.00292969 -1000h-85v802c0 11.333 0.666992 23.5 2 36.5s3 25.167 5 36.5l-410 -687c-3.33301 -5.33301 -7.33301 -10 -12 -14s-10.334 -6 -17.001 -6h-11c-6.66699 0 -12.334 2 -17.001 6s-8.66699 8.66699 -12 14l-421 689
c2.66699 -11.333 4.5 -23.833 5.5 -37.5s1.5 -26.167 1.5 -37.5v-802h-85v1000h70c6.66699 0 13.167 -1.5 19.5 -4.5s11.833 -8.83301 16.5 -17.5l404 -649c8.66699 -16 16.667 -33.667 24 -53c6 17.333 13.667 35 23 53l394 649c4.66699 9.33301 10.167 15.333 16.5 18
s13.166 4 20.499 4h68z" />
    <glyph glyph-name="afii10079" unicode="&#x43d;" horiz-adv-x="1111" 
d="M947 995v-995h-96v499h-591v-499h-96v995h96v-423h591v423h96z" />
    <glyph glyph-name="afii10080" unicode="&#x43e;" horiz-adv-x="1116" 
d="M558 1011c71.333 0 135.166 -12.167 191.499 -36.5s103.833 -58.833 142.5 -103.5s68.167 -98.5 88.5 -161.5s30.5 -133.5 30.5 -211.5s-10.167 -148.333 -30.5 -211s-49.833 -116.334 -88.5 -161.001s-86.167 -79 -142.5 -103s-120.166 -36 -191.499 -36
s-135.166 12 -191.499 36s-104 58.333 -143 103s-68.667 98.334 -89 161.001s-30.5 133 -30.5 211s10.167 148.5 30.5 211.5s50 116.833 89 161.5s86.667 79.167 143 103.5s120.166 36.5 191.499 36.5zM558 62c59.333 0 111.166 10.167 155.499 30.5s81.333 49.5 111 87.5
s51.834 83.833 66.501 137.5s22 113.834 22 180.501c0 66 -7.33301 126 -22 180s-36.834 100.167 -66.501 138.5s-66.667 67.833 -111 88.5s-96.166 31 -155.499 31s-111.166 -10.333 -155.499 -31s-81.333 -50.167 -111 -88.5s-52 -84.5 -67 -138.5s-22.5 -114 -22.5 -180
c0 -66.667 7.5 -126.834 22.5 -180.501s37.333 -99.5 67 -137.5s66.667 -67.167 111 -87.5s96.166 -30.5 155.499 -30.5z" />
    <glyph glyph-name="afii10081" unicode="&#x43f;" horiz-adv-x="1111" 
d="M947 0h-96v922h-591v-922h-96v995h783v-995z" />
    <glyph glyph-name="afii10082" unicode="&#x440;" horiz-adv-x="1102" 
d="M260 217c19.333 -28.667 39.502 -52.833 60.502 -72.5s43.167 -35.667 66.5 -48s48.166 -21.166 74.499 -26.499s54.166 -8 83.499 -8c58.667 0 110 10.667 154 32s80.833 51.5 110.5 90.5s52 85.667 67 140s22.5 114.166 22.5 179.499c0 148 -27.333 256.833 -82 326.5
s-133 104.5 -235 104.5c-66 0 -125.667 -17 -179 -51s-101 -81.333 -143 -142v-525zM256.002 816.001c44 60 95.498 107.667 154.498 143s125.167 53 198.5 53c122 0 217.167 -42.333 285.5 -127s102.5 -211.667 102.5 -381c0 -72.667 -9.5 -140.5 -28.5 -203.5
s-47 -117.667 -84 -164s-82.333 -82.833 -136 -109.5s-115.5 -40 -185.5 -40c-67.333 0 -125.666 12.333 -174.999 37s-92 61 -128 109v-485h-96v1347h53c16.667 0 26.334 -8.33301 29.001 -25z" />
    <glyph glyph-name="afii10083" unicode="&#x441;" horiz-adv-x="943" 
d="M833 862c-3.33301 -3.33301 -6.50684 -6.16504 -9.50684 -8.49805s-7.16699 -3.5 -12.5 -3.5c-6.66699 0 -15.667 4.5 -27 13.5s-26.666 18.833 -45.999 29.5s-43.5 20.5 -72.5 29.5s-64.167 13.5 -105.5 13.5c-57.333 0 -108.166 -10.167 -152.499 -30.5
s-81.833 -49.5 -112.5 -87.5s-53.834 -84 -69.501 -138s-23.5 -114.667 -23.5 -182c0 -70 8.16699 -132 24.5 -186s39.5 -99.5 69.5 -136.5s66.333 -65.167 109 -84.5s90 -29 142 -29c48 0 88.167 5.66699 120.5 17s59 23.666 80 36.999s37.5 25.666 49.5 36.999
s22 17 30 17s14.667 -3.33301 20 -10l25 -32c-15.333 -20 -34.666 -38.667 -57.999 -56s-49.666 -32.333 -78.999 -45s-61.166 -22.5 -95.499 -29.5s-70.166 -10.5 -107.499 -10.5c-63.333 0 -121.166 11.5 -173.499 34.5s-97.333 56.333 -135 100s-67 97.167 -88 160.5
s-31.5 135.333 -31.5 216c0 76 10 145.333 30 208s49.333 116.667 88 162s85.834 80.5 141.501 105.5s119.5 37.5 191.5 37.5c64.667 0 122 -10.333 172 -31s93.667 -48.667 131 -84z" />
    <glyph glyph-name="afii10084" unicode="&#x442;" horiz-adv-x="992" 
d="M960 922h-416v-922h-96v922h-416v73h928v-73z" />
    <glyph glyph-name="afii10085" unicode="&#x443;" horiz-adv-x="1003" 
d="M968 995l-572 -1315c-4 -9.33301 -9.16699 -17 -15.5 -23s-15.5 -9 -27.5 -9h-68l175 389l-421 958h79c10 0 18 -2.5 24 -7.5s10 -10.5 12 -16.5l335 -774c4 -10 7.5 -20.167 10.5 -30.5s5.83301 -20.833 8.5 -31.5c3.33301 10.667 6.83301 21.167 10.5 31.5
s7.5 20.5 11.5 30.5l331 774c3.33301 7.33301 8 13.166 14 17.499s12.667 6.5 20 6.5h73z" />
    <glyph glyph-name="afii10086" unicode="&#x444;" horiz-adv-x="1346" 
d="M718 60c72.667 2.66699 136 14.832 190 36.499s98.833 51.5 134.5 89.5s62.334 83.333 80.001 136s26.5 111.334 26.5 176.001s-8.83301 123.5 -26.5 176.5s-44.334 98.5 -80.001 136.5s-80.5 68 -134.5 90s-117.333 34.333 -190 37v-10l-2 -47v-763l2 -36v-22z
M628 937.998c-72.667 -2.66699 -136 -14.998 -190 -36.998s-98.833 -52 -134.5 -90s-62.334 -83.5 -80.001 -136.5s-26.5 -111.833 -26.5 -176.5s8.83301 -123.334 26.5 -176.001s44.334 -98 80.001 -136s80.5 -67.833 134.5 -89.5s117.333 -33.834 190 -36.501v22l2 33v766
l-2 28v29zM718 1011c84.667 -2.66699 159.834 -16.667 225.501 -42s120.667 -60.166 165 -104.499s78 -97.5 101 -159.5s34.5 -131 34.5 -207s-11.5 -144.833 -34.5 -206.5s-56.667 -114.667 -101 -159s-99.333 -79 -165 -104s-140.834 -38.833 -225.501 -41.5v-342h-90v342
c-85.333 2.66699 -160.666 16.5 -225.999 41.5s-120.166 59.667 -164.499 104s-78 97.333 -101 159s-34.5 130.5 -34.5 206.5s11.5 145 34.5 207s56.667 115.167 101 159.5s99.166 79.166 164.499 104.499s140.666 39.333 225.999 42v404h90v-404z" />
    <glyph glyph-name="afii10087" unicode="&#x445;" horiz-adv-x="938" 
d="M894 0h-91.002c-9.33301 -0 -16.666 2.83301 -21.999 8.5s-9.66602 11.167 -12.999 16.5l-302 441c-2.66699 -12 -7.66699 -23.667 -15 -35l-288 -406c-4.66699 -6 -9.5 -11.667 -14.5 -17s-11.5 -8 -19.5 -8h-86l362 509l-348 486h91c9.33301 0 16.333 -2 21 -6
s8.66699 -8.66699 12 -14l292 -421c1.33301 5.33301 3.5 11 6.5 17s6.16699 12 9.5 18l273 385c4 6 8.33301 11 13 15s10.667 6 18 6h87l-347 -480z" />
    <glyph glyph-name="afii10088" unicode="&#x446;" horiz-adv-x="1175" 
d="M1129 73l-0.000976562 -396c0 -10 -2.66699 -17.833 -8 -23.5s-12.666 -8.5 -21.999 -8.5h-56v355h-879v995h96v-922h591v922h96v-922h182z" />
    <glyph glyph-name="afii10089" unicode="&#x447;" horiz-adv-x="1000" 
d="M835 995l0.000976562 -995h-95v463c-56 -15.333 -110.833 -27.833 -164.5 -37.5s-104.334 -15.167 -152.001 -16.5s-91.5 2.16699 -131.5 10.5s-74.5 22.833 -103.5 43.5s-51.5 47.834 -67.5 81.501s-24 75.5 -24 125.5v325h95v-313c0 -57.333 13.667 -101.333 41 -132
s65.333 -51 114 -61s106.5 -10.833 173.5 -2.5s140.167 23.166 219.5 44.499v464h95z" />
    <glyph glyph-name="afii10090" unicode="&#x448;" horiz-adv-x="1623" 
d="M1459 995v-995h-1295v995h96v-922h504v922h95v-922h504v922h96z" />
    <glyph glyph-name="afii10091" unicode="&#x449;" horiz-adv-x="1687" 
d="M1641 73v-396c0 -21.333 -10 -32 -30 -32h-55v355h-1392v995h96v-922h504v922h95v-922h504v922h96v-922h182z" />
    <glyph glyph-name="afii10092" unicode="&#x44a;" horiz-adv-x="1145" 
d="M719 71c45.333 0 84.668 5.50098 118.001 16.501s61 26.333 83 46s38.333 43 49 70s16 56.5 16 88.5c0 29.333 -4.5 57 -13.5 83s-24 48.667 -45 68s-48.833 34.666 -83.5 45.999s-77.334 17 -128.001 17h-257v-435h261zM714.002 577.001c68 0 125.001 -8 171.001 -24
s82.667 -37.167 110 -63.5s46.833 -56.5 58.5 -90.5s17.5 -69 17.5 -105c0 -42 -7.5 -81 -22.5 -117s-37.333 -67.167 -67 -93.5s-66.334 -46.833 -110.001 -61.5s-94.5 -22 -152.5 -22h-352v920h-335v75h426v-418h256z" />
    <glyph glyph-name="afii10093" unicode="&#x44b;" horiz-adv-x="1394" 
d="M516 71c45.333 0 84.668 5.50098 118.001 16.501s61 26.333 83 46s38.333 43 49 70s16 56.5 16 88.5c0 29.333 -4.5 57 -13.5 83s-24 48.667 -45 68s-48.833 34.666 -83.5 45.999s-77.334 17 -128.001 17h-256v-435h260zM512.002 577.001c68 0 124.834 -8 170.501 -24
s82.167 -37.167 109.5 -63.5s46.833 -56.5 58.5 -90.5s17.5 -69 17.5 -105c0 -42 -7.5 -81 -22.5 -117s-37.333 -67.167 -67 -93.5s-66.334 -46.833 -110.001 -61.5s-94.167 -22 -151.5 -22h-353v995h92v-418h256zM1230 995.001v-995h-96v995h96z" />
    <glyph glyph-name="afii10094" unicode="&#x44c;" horiz-adv-x="943" 
d="M516 71c45.333 0 84.668 5.50098 118.001 16.501s61 26.333 83 46s38.333 43 49 70s16 56.5 16 88.5c0 29.333 -4.5 57 -13.5 83s-24 48.667 -45 68s-48.833 34.666 -83.5 45.999s-77.334 17 -128.001 17h-256v-435h260zM512.002 577.001c68 0 124.834 -8 170.501 -24
s82.167 -37.167 109.5 -63.5s46.833 -56.5 58.5 -90.5s17.5 -69 17.5 -105c0 -42 -7.5 -81 -22.5 -117s-37.333 -67.167 -67 -93.5s-66.334 -46.833 -110.001 -61.5s-94.167 -22 -151.5 -22h-353v995h92v-418h256z" />
    <glyph glyph-name="afii10095" unicode="&#x44d;" horiz-adv-x="953" 
d="M95 896c37.333 35.333 81.002 63.334 131.002 84.001s107.333 31 172 31c72 0 135.833 -12.5 191.5 -37.5s102.834 -60.167 141.501 -105.5s68 -99.333 88 -162s30 -132 30 -208c0 -80.667 -10.5 -152.667 -31.5 -216s-50.333 -116.833 -88 -160.5
s-82.834 -77 -135.501 -100s-110.334 -34.5 -173.001 -34.5c-37.333 0 -73.166 3.5 -107.499 10.5s-66.166 16.833 -95.499 29.5s-55.666 27.667 -78.999 45s-42.666 36 -57.999 56l24 30c4.66699 6.66699 11.334 10 20.001 10c7.33301 0 17.166 -5.5 29.499 -16.5
s29.166 -23.167 50.499 -36.5s48.166 -25.5 80.499 -36.5s72.5 -16.5 120.5 -16.5c50.667 0 97 9 139 27s78.167 44.5 108.5 79.5s54.166 78.167 71.499 129.5s27 110 29 176h-533v69h532c-3.33301 60.667 -13.833 115.334 -31.5 164.001s-41.834 90 -72.501 124
s-67.5 60 -110.5 78s-91.5 27 -145.5 27c-41.333 0 -76.5 -4.33301 -105.5 -13s-53.167 -18.334 -72.5 -29.001s-34.833 -20.334 -46.5 -29.001s-20.834 -13 -27.501 -13c-5.33301 0 -9.5 1.16699 -12.5 3.5s-6.16699 5.5 -9.5 9.5z" />
    <glyph glyph-name="afii10096" unicode="&#x44e;" horiz-adv-x="1516" 
d="M983 62c55.333 0 103.666 10.167 144.999 30.5s75.666 49.5 102.999 87.5s47.833 83.833 61.5 137.5s20.5 113.834 20.5 180.501c0 66 -6.83301 126 -20.5 180s-34.167 100.167 -61.5 138.5s-61.666 67.833 -102.999 88.5s-89.666 31 -144.999 31
s-103.666 -10.333 -144.999 -31s-75.833 -50.167 -103.5 -88.5s-48.334 -84.5 -62.001 -138.5s-20.5 -114 -20.5 -180c0 -66.667 6.83301 -126.834 20.5 -180.501s34.334 -99.5 62.001 -137.5s62.167 -67.167 103.5 -87.5s89.666 -30.5 144.999 -30.5zM558 535
c2.66699 72.667 14.334 138.336 35.001 197.003s49 108.667 85 150s79.667 73.166 131 95.499s109.333 33.5 174 33.5c67.333 0 127.5 -12.167 180.5 -36.5s97.833 -58.833 134.5 -103.5s64.667 -98.5 84 -161.5s29 -133.5 29 -211.5s-9.83301 -148.333 -29.5 -211
s-47.834 -116.334 -84.501 -161.001s-81.5 -79 -134.5 -103s-112.833 -36 -179.5 -36c-65.333 0 -123.833 11.167 -175.5 33.5s-95.5 54.166 -131.5 95.499s-64 91.333 -84 150s-31.333 124.667 -34 198h-298v-464h-96v995h96v-460h298z" />
    <glyph glyph-name="afii10097" unicode="&#x44f;" horiz-adv-x="951" 
d="M694 510l0.00195312 418.998h-213c-46.667 0 -85.834 -6.66699 -117.501 -20s-57.334 -30.333 -77.001 -51s-33.667 -43.667 -42 -69s-12.5 -50.333 -12.5 -75c0 -32 6.5 -60.667 19.5 -86s31.833 -46.666 56.5 -63.999s54.667 -30.666 90 -39.999s75 -14 119 -14h177z
M787.002 994.998l0.000976562 -995h-93v447h-120c-16.667 0 -30.834 -1 -42.501 -3s-22 -5.33301 -31 -10s-17.167 -10.5 -24.5 -17.5s-15 -15.833 -23 -26.5l-291 -356c-6.66699 -11.333 -14.834 -19.833 -24.501 -25.5s-23.167 -8.5 -40.5 -8.5h-66l337 408
c18 28.667 42.333 48 73 58c-54.667 4 -101.167 13.667 -139.5 29s-69.666 34.5 -93.999 57.5s-42 49 -53 78s-16.5 59.833 -16.5 92.5c0 32 6 64.167 18 96.5s31.5 61.5 58.5 87.5s62.167 47.167 105.5 63.5s96 24.5 158 24.5h309z" />
    <glyph glyph-name="uni0450" unicode="&#x450;" horiz-adv-x="1043" 
d="M862 598c0 53.333 -7.49902 101.168 -22.499 143.501s-36.167 78.166 -63.5 107.499s-59.833 51.833 -97.5 67.5s-79.167 23.5 -124.5 23.5c-51.333 0 -97.333 -8 -138 -24s-75.834 -39 -105.501 -69s-53.5 -66 -71.5 -108s-30 -89 -36 -141h659zM198.001 537.002
l-0.00195312 -19.0029c0 -74.667 8.66699 -140.334 26 -197.001s42 -104.167 74 -142.5s70.667 -67.166 116 -86.499s96 -29 152 -29c50 0 93.333 5.5 130 16.5s67.5 23.333 92.5 37s44.833 26 59.5 37s25.334 16.5 32.001 16.5c8.66699 0 15.334 -3.33301 20.001 -10
l26 -32c-16 -20 -37.167 -38.667 -63.5 -56s-55.666 -32.166 -87.999 -44.499s-67 -22.166 -104 -29.499s-74.167 -11 -111.5 -11c-68 0 -130 11.833 -186 35.5s-104 58.167 -144 103.5s-70.833 100.833 -92.5 166.5s-32.5 140.834 -32.5 225.501
c0 71.333 10.167 137.166 30.5 197.499s49.666 112.333 87.999 156s85.333 77.834 141 102.501s118.834 37 189.501 37c56 0 108 -9.66699 156 -29s89.667 -47.5 125 -84.5s63.166 -82.5 83.499 -136.5s30.5 -116 30.5 -186c0 -14.667 -2 -24.667 -6 -30s-10.667 -8 -20 -8
h-724zM438.999 1431c16 0 28 -2.33301 36 -7s15.667 -13 23 -25l157 -238h-55c-8 0 -14.833 1.16699 -20.5 3.5s-11.167 6.83301 -16.5 13.5l-216 253h92z" />
    <glyph glyph-name="afii10071" unicode="&#x451;" horiz-adv-x="1043" 
d="M862 598c0 53.333 -7.49902 101.168 -22.499 143.501s-36.167 78.166 -63.5 107.499s-59.833 51.833 -97.5 67.5s-79.167 23.5 -124.5 23.5c-51.333 0 -97.333 -8 -138 -24s-75.834 -39 -105.501 -69s-53.5 -66 -71.5 -108s-30 -89 -36 -141h659zM198.001 537.002
l-0.00195312 -19.0029c0 -74.667 8.66699 -140.334 26 -197.001s42 -104.167 74 -142.5s70.667 -67.166 116 -86.499s96 -29 152 -29c50 0 93.333 5.5 130 16.5s67.5 23.333 92.5 37s44.833 26 59.5 37s25.334 16.5 32.001 16.5c8.66699 0 15.334 -3.33301 20.001 -10
l26 -32c-16 -20 -37.167 -38.667 -63.5 -56s-55.666 -32.166 -87.999 -44.499s-67 -22.166 -104 -29.499s-74.167 -11 -111.5 -11c-68 0 -130 11.833 -186 35.5s-104 58.167 -144 103.5s-70.833 100.833 -92.5 166.5s-32.5 140.834 -32.5 225.501
c0 71.333 10.167 137.166 30.5 197.499s49.666 112.333 87.999 156s85.333 77.834 141 102.501s118.834 37 189.501 37c56 0 108 -9.66699 156 -29s89.667 -47.5 125 -84.5s63.166 -82.5 83.499 -136.5s30.5 -116 30.5 -186c0 -14.667 -2 -24.667 -6 -30s-10.667 -8 -20 -8
h-724zM458.999 1284c0 -10.667 -2.33301 -20.834 -7 -30.501s-10.834 -18.167 -18.501 -25.5s-16.5 -13.166 -26.5 -17.499s-20.333 -6.5 -31 -6.5c-11.333 0 -21.833 2.16699 -31.5 6.5s-18.334 10.166 -26.001 17.499s-13.667 15.833 -18 25.5s-6.5 19.834 -6.5 30.501
c0 11.333 2.16699 22 6.5 32s10.333 18.833 18 26.5s16.334 13.667 26.001 18s20.167 6.5 31.5 6.5c10.667 0 21 -2.16699 31 -6.5s18.833 -10.333 26.5 -18s13.834 -16.5 18.501 -26.5s7 -20.667 7 -32zM810.999 1284c0 -10.667 -2.33398 -20.834 -7.00098 -30.501
s-10.667 -18.167 -18 -25.5s-16 -13.166 -26 -17.499s-20.333 -6.5 -31 -6.5c-11.333 0 -22 2.16699 -32 6.5s-18.667 10.166 -26 17.499s-13.166 15.833 -17.499 25.5s-6.5 19.834 -6.5 30.501c0 22.667 8 42.167 24 58.5s35.333 24.5 58 24.5
c10.667 0 21 -2.16699 31 -6.5s18.667 -10.333 26 -18s13.333 -16.5 18 -26.5s7 -20.667 7 -32z" />
    <glyph glyph-name="afii10099" unicode="&#x452;" horiz-adv-x="1077" 
d="M259 749c46 56.667 98.666 101.668 157.999 135.001s125.333 50 198 50c56.667 0 106.667 -9.5 150 -28.5s79.333 -46.5 108 -82.5s50.334 -79.5 65.001 -130.5s22 -108.5 22 -172.5c0 -80.667 -6.5 -158.334 -19.5 -233.001s-31.667 -147.167 -56 -217.5
s-54.5 -139.333 -90.5 -207s-77 -134.834 -123 -201.501l-76 33c41.333 62 78.5 124.667 111.5 188s61.167 128.833 84.5 196.5s41.333 137.834 54 210.501s19 149.667 19 231c0 106 -23.5 188.833 -70.5 248.5s-114.5 89.5 -202.5 89.5c-65.333 0 -126 -16.667 -182 -50
s-106 -79.333 -150 -138v-670h-95v1124h-205v76h205v255h95v-255h394v-76h-394v-375z" />
    <glyph glyph-name="afii10100" unicode="&#x453;" horiz-adv-x="808" 
d="M774 922h-514v-922h-96v995h610v-73zM664 1431l-217 -253c-5.33301 -6.66699 -10.833 -11.167 -16.5 -13.5s-12.5 -3.5 -20.5 -3.5h-57l157 238c7.33301 12 15 20.333 23 25s20 7 36 7h95z" />
    <glyph glyph-name="afii10101" unicode="&#x454;" horiz-adv-x="953" 
d="M834 865c-3.33301 -4 -6.50195 -7.16895 -9.50195 -9.50195s-7.16699 -3.5 -12.5 -3.5c-6.66699 0 -15.834 4.33301 -27.501 13s-27.167 18.334 -46.5 29.001s-43.5 20.334 -72.5 29.001s-64.167 13 -105.5 13c-54 0 -102.5 -9.16699 -145.5 -27.5
s-79.833 -44.5 -110.5 -78.5s-54.834 -75.167 -72.501 -123.5s-28.167 -102.833 -31.5 -163.5h532v-69h-533c2 -66 11.667 -124.667 29 -176s41.166 -94.5 71.499 -129.5s66.5 -61.5 108.5 -79.5s88.333 -27 139 -27c48 0 88.167 5.5 120.5 16.5s59.166 23.167 80.499 36.5
s38 25.5 50 36.5s22 16.5 30 16.5s14.667 -3.33301 20 -10l24 -30c-15.333 -20 -34.666 -38.667 -57.999 -56s-49.666 -32.333 -78.999 -45s-61.166 -22.5 -95.499 -29.5s-70.166 -10.5 -107.499 -10.5c-63.333 0 -121.166 11.5 -173.499 34.5s-97.333 56.333 -135 100
s-67 97.167 -88 160.5s-31.5 135.333 -31.5 216c0 76 10 145.333 30 208s49.333 116.667 88 162s85.834 80.5 141.501 105.5s119.5 37.5 191.5 37.5c64.667 0 122 -10.333 172 -31s93.667 -48.667 131 -84z" />
    <glyph glyph-name="afii10102" unicode="&#x455;" horiz-adv-x="850" 
d="M711 872c-5.33301 -9.33301 -12.998 -14.002 -22.998 -14.002c-7.33301 0 -16.666 4.16699 -27.999 12.5s-26.5 17.666 -45.5 27.999s-42.5 19.666 -70.5 27.999s-62 12.5 -102 12.5c-36 0 -68.833 -5.16699 -98.5 -15.5s-55 -24.166 -76 -41.499
s-37.167 -37.5 -48.5 -60.5s-17 -47.167 -17 -72.5c0 -31.333 8 -57.333 24 -78s36.833 -38.334 62.5 -53.001s55.167 -27.334 88.5 -38.001l101.5 -32c34.333 -10.667 68.166 -22.5 101.499 -35.5s62.833 -29.167 88.5 -48.5s46.5 -43 62.5 -71s24 -62 24 -102
c0 -43.333 -7.66699 -83.666 -23 -120.999s-37.833 -69.666 -67.5 -96.999s-66.167 -49 -109.5 -65s-93 -24 -149 -24c-70 0 -130.333 11.167 -181 33.5s-96 51.5 -136 87.5l22 34c3.33301 5.33301 7.16602 9.33301 11.499 12s10.166 4 17.499 4
c8.66699 0 19.167 -5.33301 31.5 -16s28.833 -22.167 49.5 -34.5s46.167 -23.833 76.5 -34.5s67.833 -16 112.5 -16c42 0 79 5.83301 111 17.5s58.667 27.5 80 47.5s37.5 43.5 48.5 70.5s16.5 55.5 16.5 85.5c0 33.333 -8 61 -24 83s-37 40.667 -63 56
s-55.5 28.333 -88.5 39l-101.5 32c-34.667 10.667 -68.5 22.334 -101.5 35.001s-62.5 28.667 -88.5 48s-47 42.833 -63 70.5s-24 62.167 -24 103.5c0 35.333 7.66699 69.333 23 102s37.166 61.334 65.499 86.001s62.833 44.334 103.5 59.001s86.334 22 137.001 22
c60.667 0 114.5 -8.66699 161.5 -26s89.833 -44 128.5 -80z" />
    <glyph glyph-name="afii10103" unicode="&#x456;" horiz-adv-x="445" 
d="M270 995v-995h-95v995h95zM311 1338c0 -12 -2.5 -23.167 -7.5 -33.5s-11.5 -19.5 -19.5 -27.5s-17.333 -14.333 -28 -19s-22 -7 -34 -7s-23.333 2.33301 -34 7s-20 11 -28 19s-14.333 17.167 -19 27.5s-7 21.5 -7 33.5s2.33301 23.5 7 34.5s11 20.5 19 28.5
s17.333 14.333 28 19s22 7 34 7s23.333 -2.33301 34 -7s20 -11 28 -19s14.5 -17.5 19.5 -28.5s7.5 -22.5 7.5 -34.5z" />
    <glyph glyph-name="afii10104" unicode="&#x457;" horiz-adv-x="445" 
d="M271 995v-995h-96v995h96zM168 1284c0 -10.667 -2.33301 -20.834 -7 -30.501s-10.667 -18.167 -18 -25.5s-16.166 -13.166 -26.499 -17.499s-20.833 -6.5 -31.5 -6.5s-20.834 2.16699 -30.501 6.5s-18.334 10.166 -26.001 17.499s-13.667 15.833 -18 25.5
s-6.5 19.834 -6.5 30.501c0 11.333 2.16699 22 6.5 32s10.333 18.833 18 26.5s16.334 13.667 26.001 18s19.834 6.5 30.501 6.5s21.167 -2.16699 31.5 -6.5s19.166 -10.333 26.499 -18s13.333 -16.5 18 -26.5s7 -20.667 7 -32zM446 1284
c0 -10.667 -2.33301 -20.834 -7 -30.501s-10.667 -18.167 -18 -25.5s-16.166 -13.166 -26.499 -17.499s-20.833 -6.5 -31.5 -6.5c-11.333 0 -21.833 2.16699 -31.5 6.5s-18.334 10.166 -26.001 17.499s-13.667 15.833 -18 25.5s-6.5 19.834 -6.5 30.501
c0 11.333 2.16699 22 6.5 32s10.333 18.833 18 26.5s16.334 13.667 26.001 18s20.167 6.5 31.5 6.5c10.667 0 21.167 -2.16699 31.5 -6.5s19.166 -10.333 26.499 -18s13.333 -16.5 18 -26.5s7 -20.667 7 -32z" />
    <glyph glyph-name="afii10105" unicode="&#x458;" horiz-adv-x="445" 
d="M270 995l-0.000976562 -1122c0 -34.667 -5 -66.667 -15 -96s-24.833 -54.833 -44.5 -76.5s-44.334 -38.667 -74.001 -51s-64.5 -18.5 -104.5 -18.5c-19.333 0 -36.666 1.66699 -51.999 5s-30.333 8.66602 -45 15.999l5 48c2 6 4.66699 9.5 8 10.5s7.83301 1 13.5 0
s12.834 -2.33301 21.501 -4s19.667 -2.5 33 -2.5c54 0 94 14.667 120 44s39 71 39 125v1122h95zM310.999 1338c0 -12 -2.5 -23.167 -7.5 -33.5s-11.667 -19.5 -20 -27.5s-17.833 -14.333 -28.5 -19s-22 -7 -34 -7s-23.333 2.33301 -34 7s-20 11 -28 19
s-14.333 17.167 -19 27.5s-7 21.5 -7 33.5s2.33301 23.5 7 34.5s11 20.5 19 28.5s17.333 14.333 28 19s22 7 34 7s23.333 -2.33301 34 -7s20.167 -11 28.5 -19s15 -17.5 20 -28.5s7.5 -22.5 7.5 -34.5z" />
    <glyph glyph-name="afii10106" unicode="&#x459;" horiz-adv-x="1661" 
d="M1235 71c45.333 0 84.667 5.50098 118 16.501s60.833 26.333 82.5 46s37.834 43 48.501 70s16 56.5 16 88.5c0 29.333 -4.5 57 -13.5 83s-24 48.667 -45 68s-48.833 34.666 -83.5 45.999s-77.334 17 -128.001 17h-255v-435h260zM1230 577.001
c68 0 124.833 -8.00195 170.5 -24.002s82.167 -37.167 109.5 -63.5s46.833 -56.5 58.5 -90.5s17.5 -69 17.5 -105c0 -42 -7.5 -81 -22.5 -117s-37.167 -67.167 -66.5 -93.5s-65.833 -46.833 -109.5 -61.5s-94.5 -22 -152.5 -22h-356v919h-402
c-6.66699 -131.333 -17.834 -245.5 -33.501 -342.5s-34.167 -180 -55.5 -249s-45.333 -125.5 -72 -169.5s-54.5 -78.667 -83.5 -104s-58.5 -42.666 -88.5 -51.999s-59.667 -14 -89 -14c-16 0 -30 1.33301 -42 4s-18 6.66699 -18 12v61h44c24 0 48.5 4.83301 73.5 14.5
s49.833 27.167 74.5 52.5s48.334 60 71.001 104s43.167 100.5 61.5 169.5s34.333 151.833 48 248.5s23.5 210.334 29.5 341.001h578v-418h255z" />
    <glyph glyph-name="afii10107" unicode="&#x45a;" horiz-adv-x="1634" 
d="M1207 71c45.333 0 84.667 5.50098 118 16.501s60.833 26.333 82.5 46s37.834 43 48.501 70s16 56.5 16 88.5c0 29.333 -4.5 57 -13.5 83s-24 48.667 -45 68s-48.833 34.666 -83.5 45.999s-77.334 17 -128.001 17h-255v-435h260zM1202 577.001c68 0 124.833 -8 170.5 -24
s82.167 -37.167 109.5 -63.5s46.833 -56.5 58.5 -90.5s17.5 -69 17.5 -105c0 -42 -7.5 -81 -22.5 -117s-37.167 -67.167 -66.5 -93.5s-65.833 -46.833 -109.5 -61.5s-94.5 -22 -152.5 -22h-356v499h-591v-499h-96v995h96v-423h591v423h96v-418h255z" />
    <glyph glyph-name="afii10108" unicode="&#x45b;" horiz-adv-x="1100" 
d="M259 816c46 56.667 98.666 101.667 157.999 135s125.333 50 198 50c54.667 0 102.834 -8.66699 144.501 -26s76.167 -42.333 103.5 -75s48 -72 62 -118s21 -98 21 -156v-626h-95v626c0 93.333 -21.333 166.5 -64 219.5s-108 79.5 -196 79.5
c-65.333 0 -126 -16.667 -182 -50s-106 -79.333 -150 -138v-737h-95v1180h-166v63h166v212h95v-212h308v-63h-308v-364z" />
    <glyph glyph-name="afii10109" unicode="&#x45c;" horiz-adv-x="970" 
d="M782 967c5.33301 8 12.498 14.667 21.498 20s18.5 8 28.5 8h73l-292 -392c-15.333 -21.333 -32.166 -39.5 -50.499 -54.5s-40.5 -26.5 -66.5 -34.5c31.333 -6.66699 58.333 -18.167 81 -34.5s43.334 -38.166 62.001 -65.499l297 -414h-67c-17.333 0 -31 2.83301 -41 8.5
s-18.667 14.167 -26 25.5l-252 353c-19.333 28 -42.5 49.167 -69.5 63.5s-57.5 21.5 -91.5 21.5h-129v-473h-96v996h96v-457h115c28 0 54.5 6.66699 79.5 20s45.833 31.666 62.5 54.999zM735.998 1431l-217 -253c-5.33301 -6.66699 -10.833 -11.167 -16.5 -13.5
s-12.5 -3.5 -20.5 -3.5h-57l157 238c7.33301 12 15 20.333 23 25s20 7 36 7h95z" />
    <glyph glyph-name="uni045D" unicode="&#x45d;" horiz-adv-x="1133" 
d="M969 995l-0.00195312 -994.999h-95v802c0 9.33301 0.333008 19.333 1 30s1.66699 21.334 3 32.001c-4.66699 -9.33301 -9.16699 -17.833 -13.5 -25.5s-8.83301 -14.5 -13.5 -20.5c-1.33301 -1.33301 -10.666 -13.833 -27.999 -37.5l-68.5 -91.5l-96 -127l-108.5 -145
l-295 -393c-4 -6 -9.16699 -11.5 -15.5 -16.5s-13.166 -7.5 -20.499 -7.5h-55v995h96v-802c0 -9.33301 -0.333008 -19.333 -1 -30s-1.66699 -21.334 -3 -32.001c4 9.33301 8.33301 17.833 13 25.5l13 20.5c0.666992 1.33301 9.83398 13.666 27.501 36.999l69 91.5
l95.5 127.5l109 145l295 392c4 6.66699 9.16699 12.5 15.5 17.5s13.166 7.5 20.499 7.5h55zM460.998 1431c16 0 28 -2.33301 36 -7s15.667 -13 23 -25l157 -238h-55c-8 0 -14.833 1.16699 -20.5 3.5s-11.167 6.83301 -16.5 13.5l-216 253h92z" />
    <glyph glyph-name="afii10110" unicode="&#x45e;" horiz-adv-x="1003" 
d="M968 995l-572 -1315c-4 -9.33301 -9.16699 -17 -15.5 -23s-15.5 -9 -27.5 -9h-68l175 389l-421 958h79c10 0 18 -2.5 24 -7.5s10 -10.5 12 -16.5l335 -774c4 -10 7.5 -20.167 10.5 -30.5s5.83301 -20.833 8.5 -31.5c3.33301 10.667 6.83301 21.167 10.5 31.5
s7.5 20.5 11.5 30.5l331 774c3.33301 7.33301 8 13.166 14 17.499s12.667 6.5 20 6.5h73zM530 1223c60 0 103.334 15.167 130.001 45.5s40 79.166 40 146.499h54c7.33301 0 13.166 -3.16699 17.499 -9.5s6.5 -14.166 6.5 -23.499c0 -64 -20.667 -115.333 -62 -154
s-103.333 -58 -186 -58s-144.834 19.333 -186.501 58s-62.5 90 -62.5 154c0 9.33301 2.33301 17.166 7 23.499s10.667 9.5 18 9.5h53c0 -67.333 13.333 -116.166 40 -146.499s70.334 -45.5 131.001 -45.5z" />
    <glyph glyph-name="afii10193" unicode="&#x45f;" horiz-adv-x="1111" 
d="M947 995v-995h-349v-323c0 -21.333 -10 -32 -30 -32h-55v355h-349v995h96v-922h591v922h96z" />
    <glyph glyph-name="uni0460" unicode="&#x460;" horiz-adv-x="2149" 
d="M1255 1318c17.333 16 35.6562 30.833 54.9893 44.5s40.333 25.5 63 35.5s47.334 17.667 74.001 23s56.667 8 90 8c85.333 0 158.666 -18.333 219.999 -55s111.833 -86.834 151.5 -150.501s68.834 -138.5 87.501 -224.5s28 -178.333 28 -277
c0 -120 -12.833 -226 -38.5 -318s-62 -169.167 -109 -231.5s-103.167 -109.333 -168.5 -141s-137.333 -47.5 -216 -47.5c-87.333 0 -166.166 17.667 -236.499 53s-130.5 82.666 -180.5 141.999c-50.667 -59.333 -111.167 -106.666 -181.5 -141.999
s-149.166 -53 -236.499 -53c-79.333 0 -151.5 15.833 -216.5 47.5s-121 78.667 -168 141s-83.333 139.5 -109 231.5s-38.5 198 -38.5 318c0 98.667 9.33301 191 28 277s47.834 160.833 87.501 224.5s90.167 113.834 151.5 150.501s135 55 221 55
c32.667 0 62.5 -2.66699 89.5 -8s51.667 -13 74 -23s43.166 -21.833 62.499 -35.5s37.666 -28.5 54.999 -44.5l-22 -47c-3.33301 -5.33301 -6.66602 -9 -9.99902 -11s-7.66602 -3 -12.999 -3c-6 0 -13.833 4.33301 -23.5 13s-22.834 18.334 -39.501 29.001
s-38.167 20.334 -64.5 29.001s-58.833 13 -97.5 13c-65.333 0 -122.666 -14.333 -171.999 -43s-90.666 -69.667 -123.999 -123s-58.5 -118.333 -75.5 -195s-25.5 -163 -25.5 -259c0 -108.667 10.833 -203.5 32.5 -284.5s51.834 -148.5 90.501 -202.5s85 -94.5 139 -121.5
s113.667 -40.5 179 -40.5c38.667 0 75.167 4.5 109.5 13.5s66.333 21.167 96 36.5s57 33.666 82 54.999s47.5 44.666 67.5 69.999v549h103v-549c20 -25.333 42.5 -48.666 67.5 -69.999s52.333 -39.666 82 -54.999s61.667 -27.5 96 -36.5s70.833 -13.5 109.5 -13.5
c64.667 0 124.167 13.5 178.5 40.5s100.833 67.5 139.5 121.5s68.834 121.5 90.501 202.5s32.5 175.833 32.5 284.5c0 96 -8.33301 182.333 -25 259s-41.667 141.667 -75 195s-74.666 94.333 -123.999 123s-106.666 43 -171.999 43c-39.333 0 -72 -4.33301 -98 -13
s-47.5 -18.334 -64.5 -29.001s-30.333 -20.334 -40 -29.001s-17.5 -13 -23.5 -13c-5.33301 0 -9.66602 1 -12.999 3s-6.66602 5.66699 -9.99902 11z" />
    <glyph glyph-name="uni0461" unicode="&#x461;" horiz-adv-x="1535" 
d="M1364 995c12.667 -46.667 23.667 -96.5029 33 -149.503s14 -108.833 14 -167.5c0 -70 -7.16699 -136.667 -21.5 -200s-34.666 -123.333 -60.999 -180s-58.333 -109.834 -96 -159.501s-79.834 -95.834 -126.501 -138.501h-57c-6.66699 0 -12.167 1.33301 -16.5 4
s-9.16602 6.66699 -14.499 12c-27.333 26 -53.666 56 -78.999 90s-48.833 70.833 -70.5 110.5s-41.167 81.167 -58.5 124.5s-31.333 87 -42 131c-10.667 -44 -24.5 -87.667 -41.5 -131s-36.5 -84.833 -58.5 -124.5s-45.833 -76.667 -71.5 -111s-52.5 -64.5 -80.5 -90.5
c-4.66699 -5.33301 -8.5 -9.16602 -11.5 -11.499s-7.5 -3.5 -13.5 -3.5h-61c-92 83.333 -164 179.333 -216 288s-78 227.334 -78 356.001v351h60c11.333 0 19.666 -3.33301 24.999 -10s8 -14 8 -22v-310c0 -116 20.833 -220.5 62.5 -313.5s103.167 -177.167 184.5 -252.5
c35.333 32.667 68 71.5 98 116.5s56 92.667 78 143s39.167 102 51.5 155s18.5 104.5 18.5 154.5v339h60c11.333 0 19.666 -3.33301 24.999 -10s8 -14 8 -22v-304c0 -50 6 -101.5 18 -154.5s28.833 -104.833 50.5 -155.5s47.667 -98.667 78 -144s63.5 -85 99.5 -119
c37.333 36.667 71.833 75.834 103.5 117.501s58.834 86.834 81.501 135.501s40.334 101 53.001 157s19 116.333 19 181c0 44 -2.33301 82.333 -7 115s-9.83398 60.834 -15.501 84.501s-10.834 42.834 -15.501 57.501s-7 26 -7 34c0 7.33301 2.16699 13.666 6.5 18.999
s10.5 8 18.5 8h66z" />
    <glyph glyph-name="afii10146" unicode="&#x462;" horiz-adv-x="1426" 
d="M875 82c124 0 216.667 27.501 278 82.501s92 131.167 92 228.5c0 99.333 -30.333 174.166 -91 224.499s-153 75.5 -277 75.5h-331v-611h329zM877 775.001c78.667 0 147.5 -8.49805 206.5 -25.498s108 -41.667 147 -74s68.167 -71.5 87.5 -117.5s29 -98 29 -156
c0 -62 -10.5 -117.833 -31.5 -167.5s-51.5 -91.834 -91.5 -126.501s-89.333 -61.334 -148 -80.001s-125.667 -28 -201 -28h-432v1090h-380v79h380v246h103v-246h466v-79h-466v-315h331z" />
    <glyph glyph-name="afii10194" unicode="&#x463;" horiz-adv-x="1111" 
d="M692 71c45.333 0 84.667 5.50098 118 16.501s60.833 26.333 82.5 46s37.834 43 48.501 70s16 56.5 16 88.5c0 29.333 -4.5 57 -13.5 83s-24 48.667 -45 68s-48.833 34.666 -83.5 45.999s-77.334 17 -128.001 17h-276v-435h281zM687.001 577.001
c68 0 124.833 -8 170.5 -24s82.167 -37.167 109.5 -63.5s46.833 -56.5 58.5 -90.5s17.5 -69 17.5 -105c0 -42 -7.5 -81 -22.5 -117s-37.167 -67.167 -66.5 -93.5s-65.833 -46.833 -109.5 -61.5s-94.5 -22 -152.5 -22h-373v919h-286v76h286v305h92v-305h339v-76h-339v-342
h276z" />
    <glyph glyph-name="uni0464" unicode="&#x464;" horiz-adv-x="1897" 
d="M1815 188c-28 -31.333 -58.668 -59.498 -92.001 -84.498s-69.833 -46.333 -109.5 -64s-83 -31.334 -130 -41.001s-98.5 -14.5 -154.5 -14.5c-92.667 0 -177.667 16.667 -255 50s-144 80.5 -200 141.5s-100.167 134.667 -132.5 221s-49.5 182.5 -51.5 288.5h-378v-685
h-103v1415h103v-651h380c5.33301 100 25 190.833 59 272.5s79.667 151.834 137 210.501s124.833 104 202.5 136s163.167 48 256.5 48s175.833 -15 247.5 -45s136.834 -72.333 195.501 -127l-31 -45c-5.33301 -8 -13.666 -12 -24.999 -12c-8 0 -20.667 7.33301 -38 22
s-41.166 30.834 -71.499 48.501s-68.166 33.834 -113.499 48.501s-100 22 -164 22c-77.333 0 -148.5 -13.333 -213.5 -40s-121.5 -64.834 -169.5 -114.501s-86.667 -110.334 -116 -182.001s-46.333 -152.5 -51 -242.5h722v-79h-724c2 -96 17.167 -182 45.5 -258
s66.666 -140.333 114.999 -193s104.833 -92.834 169.5 -120.501s134.667 -41.5 210 -41.5c48 0 91 3.33301 129 10s72.667 16.667 104 30s60.666 29.666 87.999 48.999s54.666 42 81.999 68c7.33301 6 13.666 9 18.999 9c6.66699 0 12.334 -2.33301 17.001 -7z" />
    <glyph glyph-name="uni0465" unicode="&#x465;" horiz-adv-x="1382" 
d="M1252 179c6 0 10.6689 -1.99609 14.002 -5.99609l37 -39c-40 -44.667 -87.333 -80 -142 -106s-121.667 -39 -201 -39c-65.333 0 -125.166 11.5 -179.499 34.5s-101.333 55.667 -141 98s-70.834 93.166 -93.501 152.499s-35.334 125.666 -38.001 198.999h-251v-473h-93
v995h93v-451h252c4.66699 69.333 19.167 132.5 43.5 189.5s56.666 105.667 96.999 146s87.833 71.666 142.5 93.999s114.667 33.5 180 33.5c66.667 0 125.5 -10.833 176.5 -32.5s97.167 -51.834 138.5 -90.501l-30 -41c-4.66699 -7.33301 -11.667 -11 -21 -11
c-6 0 -15 5 -27 15s-28.333 20.833 -49 32.5s-46.167 22.5 -76.5 32.5s-67.5 15 -111.5 15c-51.333 0 -98.666 -8.66699 -141.999 -26s-81 -42.5 -113 -75.5s-58 -73.167 -78 -120.5s-32 -101 -36 -161h493v-71h-494c2.66699 -64 13.667 -121 33 -171
s45.166 -92.5 77.499 -127.5s70.166 -61.667 113.499 -80s90 -27.5 140 -27.5c32 0 60.5 2.16699 85.5 6.5s48 11 69 20s40.833 20 59.5 33s37 28.167 55 45.5c4.66699 4.66699 10.334 7 17.001 7z" />
    <glyph glyph-name="uni0466" unicode="&#x466;" horiz-adv-x="1329" 
d="M895 741l-200.999 487.999c-5.33301 12.667 -10.333 26.5 -15 41.5s-9.33398 31.167 -14.001 48.5c-4.66699 -17.333 -9.5 -33.666 -14.5 -48.999s-10.167 -29.333 -15.5 -42l-200 -487h460zM1307 -0.000976562l-81.999 -0.000976562c-9.33301 0 -17 2.5 -23 7.5
s-10.667 11.5 -14 19.5l-263 639h-213v-666h-98v666h-210l-263 -639c-2.66699 -7.33301 -7.33398 -13.666 -14.001 -18.999s-14.667 -8 -24 -8h-81l594 1415h97z" />
    <glyph glyph-name="uni0467" unicode="&#x467;" horiz-adv-x="1054" 
d="M695 517l-143.001 318.999l-12.5 35c-4.33301 12.667 -8.5 26.334 -12.5 41.001c-3.33301 -14.667 -7.16602 -28.5 -11.499 -41.5s-8.5 -24.5 -12.5 -34.5l-143 -319h335zM1022 -0.000976562h-72.999c-16 0 -26.667 7.66699 -32 23l-192 427h-155v-450h-88v450h-152
l-192 -427c-2 -6 -5.83301 -11.333 -11.5 -16s-12.834 -7 -21.501 -7h-73l452 996h87z" />
    <glyph glyph-name="uni0468" unicode="&#x468;" horiz-adv-x="1911" 
d="M1477 741l-201 488c-5.33301 12 -10.5 25.5 -15.5 40.5s-9.83301 31.167 -14.5 48.5c-9.33301 -34.667 -19 -64.667 -29 -90l-201 -487h461zM1888 0l-80.999 -0.000976562c-9.33301 0 -17 2.5 -23 7.5s-10.667 11.5 -14 19.5l-263 639h-214v-666h-98v666h-210l-263 -639
c-2.66699 -7.33301 -7.33398 -13.666 -14.001 -18.999s-14.667 -8 -24 -8h-80l280 666h-572v-666h-103v1415h103v-674h603l283 674h96z" />
    <glyph glyph-name="uni0469" unicode="&#x469;" horiz-adv-x="1493" 
d="M1135 517l-143 318.999l-12.5 35c-4.33301 12.667 -8.5 26.334 -12.5 41.001c-4 -14.667 -8 -28.5 -12 -41.5s-8.33301 -24.5 -13 -34.5l-143 -319h336zM1461 -0.000976562h-73c-16 0 -26.667 7.66699 -32 23l-191 427h-155v-450h-88v450h-153l-191 -427
c-2 -6 -6 -11.333 -12 -16s-13.333 -7 -22 -7h-73l204 450h-418v-450h-93v996h93v-479h449l217 479h88z" />
    <glyph glyph-name="uni046A" unicode="&#x46a;" horiz-adv-x="1565" 
d="M1523 0h-79.998c-9.33301 0 -17.333 2.66699 -24 8s-11.334 11.666 -14.001 18.999l-171 457c-14 38.667 -28.333 70.834 -43 96.501s-32.334 46.334 -53.001 62.001s-45.834 26.834 -75.501 33.501s-66.5 10 -110.5 10h-122v-686h-98v686h-119
c-44 0 -80.667 -3.33301 -110 -10s-54.333 -17.834 -75 -33.501s-38.5 -36.334 -53.5 -62.001s-29.5 -57.834 -43.5 -96.501l-170 -457c-3.33301 -7.33301 -8.16602 -13.666 -14.499 -18.999s-14.166 -8 -23.499 -8h-81l191 496c17.333 45.333 36 84.666 56 117.999
s44.167 60.833 72.5 82.5s62.166 37.834 101.499 48.501s87.333 16 144 16h65l-541 654h1302l-541 -654h66c56.667 0 104.667 -5.33301 144 -16s73.333 -26.834 102 -48.501s53 -49.167 73 -82.5s38.667 -72.666 56 -117.999zM713.002 846l43.5 -56.5
c11.667 -15.667 20.167 -32.5 25.5 -50.5c5.33301 18 13.833 34.833 25.5 50.5l43.5 56.5l412 494h-962z" />
    <glyph glyph-name="uni046B" unicode="&#x46b;" horiz-adv-x="1216" 
d="M548 612c15.333 -18.667 27.833 -34.5 37.5 -47.5s17.167 -27.167 22.5 -42.5c4.66699 15.333 12 29.5 22 42.5l38 47.5l288 316h-697zM1178 0h-73.0049c-8 -0 -14.833 2.33301 -20.5 7s-10.167 10 -13.5 16l-124 309c-11.333 28.667 -23.166 52.167 -35.499 70.5
s-26.5 32.833 -42.5 43.5s-34 18.167 -54 22.5s-43 6.5 -69 6.5h-94l-1 -1v-474h-88v475h-92c-26.667 0 -50 -2.16699 -70 -6.5s-37.833 -11.833 -53.5 -22.5s-29.667 -25.167 -42 -43.5s-24.166 -41.833 -35.499 -70.5l-124 -309c-3.33301 -6 -7.83301 -11.333 -13.5 -16
s-12.5 -7 -20.5 -7h-73l143 342c14.667 34.667 30.667 64.667 48 90s37.333 46.166 60 62.499s48.334 28.333 77.001 36s61.667 11.5 99 11.5h38l-400 454h1008l-401 -454h40c36.667 0 69.334 -3.83301 98.001 -11.5s54.334 -19.667 77.001 -36s42.667 -37.166 60 -62.499
s33.333 -55.333 48 -90z" />
    <glyph glyph-name="uni046C" unicode="&#x46c;" horiz-adv-x="2140" 
d="M2098 0l-79.9971 -0.00195312c-9.33301 0 -17.333 2.66699 -24 8s-11.334 11.666 -14.001 18.999l-171 457c-14 38.667 -28.333 70.834 -43 96.501s-32.334 46.334 -53.001 62.001s-45.834 26.834 -75.501 33.501s-66.5 10 -110.5 10h-121v-686h-98v686h-135
c-30 0 -58 -3.33301 -84 -10s-50 -17.834 -72 -33.501s-42.167 -36.5 -60.5 -62.5s-34.833 -58 -49.5 -96l-172 -457c-2.66699 -7.33301 -7.33398 -13.666 -14.001 -18.999s-14.667 -8 -24 -8h-81l189 491c19.333 49.333 45 90 77 122s69 56.333 111 73h-681v-686h-103v1415
h103v-654h935l-541 654h1302l-540 -654h65c56.667 0 104.834 -5.33301 144.501 -16s73.667 -26.834 102 -48.501s52.5 -49.167 72.5 -82.5s38.667 -72.666 56 -117.999zM1288 845.998c18 -22 32.668 -41 44.001 -57s19.666 -32.667 24.999 -50
c5.33301 17.333 13.833 34 25.5 50s26.5 35 44.5 57l412 494h-963z" />
    <glyph glyph-name="uni046D" unicode="&#x46d;" horiz-adv-x="1656" 
d="M988 612c15.333 -18.667 28 -34.667 38 -48s17.333 -28 22 -44c4.66699 16 12 30.667 22 44s22.667 29.333 38 48l287 316h-695zM1618 0l-73.002 0.000976562c-8 0 -14.833 2.33301 -20.5 7s-10.167 10 -13.5 16l-124 309c-11.333 28.667 -23.166 52.167 -35.499 70.5
s-26.5 32.833 -42.5 43.5s-34 18.167 -54 22.5s-43 6.5 -69 6.5h-94l-1 -1v-474h-87v474l-1 1h-103c-19.333 0 -38 -2.16699 -56 -6.5s-35 -11.833 -51 -22.5s-31 -25.334 -45 -44.001s-26.667 -42 -38 -70l-126 -309c-2.66699 -6 -6.83398 -11.333 -12.501 -16
s-12.5 -7 -20.5 -7h-73l143 343c13.333 34 31.5 61.667 54.5 83s48.5 37.666 76.5 48.999h-495v-475h-93v996h93v-454h687l-401 454h1010l-402 -454h40c36.667 0 69.334 -3.83301 98.001 -11.5s54.334 -19.667 77.001 -36s42.667 -37.166 60 -62.499s33.333 -55.333 48 -90z
" />
    <glyph glyph-name="uni046E" unicode="&#x46e;" horiz-adv-x="1093" 
d="M799 -415c0 20.667 -2.5 37.998 -7.5 51.998s-13.5 25.333 -25.5 34s-28 14.834 -48 18.501s-45 5.5 -75 5.5c-17.333 0 -33.666 -0.5 -48.999 -1.5s-31.166 -2.16699 -47.499 -3.5s-34.166 -2.5 -53.499 -3.5s-41.666 -1.5 -66.999 -1.5
c-71.333 0 -131.833 4.83301 -181.5 14.5s-90.167 23.834 -121.5 42.501s-54.166 41.834 -68.499 69.501s-21.5 59.5 -21.5 95.5c0 66 20.833 115.333 62.5 148s100.834 49 177.501 49c21.333 0 41.833 -1 61.5 -3s39.167 -4.33301 58.5 -7s38.666 -5 57.999 -7
s39.666 -3 60.999 -3c56.667 0 107.334 8.33301 152.001 25s82.5 39.5 113.5 68.5s54.833 63.167 71.5 102.5s25 81.666 25 126.999c0 44.667 -7.83301 85.834 -23.5 123.501s-38.834 70.334 -69.501 98.001s-68.167 49.334 -112.5 65.001s-94.833 23.5 -151.5 23.5h-186v86
h189c40.667 0 79.667 6 117 18s70.166 29.5 98.499 52.5s50.833 51 67.5 84s25 70.833 25 113.5c0 40 -7.83301 76.667 -23.5 110s-38.334 62.166 -68.001 86.499s-65.667 43.166 -108 56.499s-89.833 20 -142.5 20c-61.333 0 -112.5 -6.33301 -153.5 -19
s-74.833 -26.5 -101.5 -41.5s-47.5 -28.667 -62.5 -41s-27.167 -18.5 -36.5 -18.5c-12 0 -20.667 5.66699 -26 17l-24 45c52.667 46.667 111.167 82.167 175.5 106.5s139.5 36.5 225.5 36.5c68 0 129.333 -8.83301 184 -26.5s101.167 -42.167 139.5 -73.5
s67.666 -68.5 87.999 -111.5s30.5 -89.5 30.5 -139.5c0 -39.333 -5.83301 -75.666 -17.5 -108.999s-28 -63.333 -49 -90s-45.667 -49.834 -74 -69.501s-59.166 -35.5 -92.499 -47.5c43.333 -12.667 82.166 -30.167 116.499 -52.5s63.5 -48.833 87.5 -79.5
s42.5 -64.834 55.5 -102.501s19.5 -78.167 19.5 -121.5c0 -55.333 -10.5 -107.666 -31.5 -156.999s-51.5 -92.5 -91.5 -129.5s-89.5 -66.333 -148.5 -88s-126.5 -32.5 -202.5 -32.5c-24 0 -45.833 1 -65.5 3s-38.334 4.16699 -56.001 6.5l-51.5 6.5
c-16.667 2 -33.334 3 -50.001 3c-49.333 0 -85.666 -9.33301 -108.999 -28s-35 -47 -35 -85c0 -22 4.66699 -41.833 14 -59.5s25 -32.5 47 -44.5s51.167 -21.167 87.5 -27.5s81.5 -9.5 135.5 -9.5c24 0 46.167 0.5 66.5 1.5s39.833 2.16699 58.5 3.5s36.667 2.5 54 3.5
s34.666 1.5 51.999 1.5c40 0 73.333 -3.33301 100 -10s47.834 -16.334 63.501 -29.001s26.667 -28 33 -46s9.5 -38 9.5 -60c0 -13.333 -1.5 -24 -4.5 -32s-10.167 -12 -21.5 -12h-26v0z" />
    <glyph glyph-name="uni046F" unicode="&#x46f;" horiz-adv-x="874" 
d="M476 1005c44.667 -6.66699 83.6621 -18.1641 116.995 -34.4971s61 -35.666 83 -57.999s38.5 -46.666 49.5 -72.999s16.5 -52.833 16.5 -79.5c0 -21.333 -3.83301 -43.5 -11.5 -66.5s-20 -44.833 -37 -65.5s-39.333 -39.5 -67 -56.5s-61.5 -30.167 -101.5 -39.5
c41.333 -8.66699 77.333 -21.167 108 -37.5s56 -35.666 76 -57.999s35 -46.666 45 -72.999s15 -53.833 15 -82.5c0 -42 -8.5 -80.833 -25.5 -116.5s-41.333 -66.5 -73 -92.5s-70.167 -46.333 -115.5 -61s-96.333 -22 -153 -22c-36 0 -68.167 2.16699 -96.5 6.5
s-54.166 6.5 -77.499 6.5c-37.333 0 -66.166 -8.66699 -86.499 -26s-30.5 -43 -30.5 -77c0 -47.333 18.667 -83 56 -107s88.666 -36 153.999 -36c14.667 0 31.167 0.5 49.5 1.5s37 2.16699 56 3.5s38.167 2.5 57.5 3.5s37.666 1.5 54.999 1.5c40 0 73.333 -3.33301 100 -10
s47.834 -16.334 63.501 -29.001s26.667 -27.834 33 -45.501s9.5 -37.5 9.5 -59.5c0 -14 -1.5 -24.833 -4.5 -32.5s-10.167 -11.5 -21.5 -11.5h-26c0 20.667 -2.66699 38 -8 52s-14 25.333 -26 34s-27.833 14.834 -47.5 18.501s-44.5 5.5 -74.5 5.5
c-36 0 -72.167 -1.66699 -108.5 -5s-70.166 -5 -101.499 -5c-42.667 0 -82 4.66699 -118 14s-67.167 23.166 -93.5 41.499s-46.833 41.166 -61.5 68.499s-22 59 -22 95c0 52 16.167 94.5 48.5 127.5s80.5 49.5 144.5 49.5c24.667 0 50.667 -2.16699 78 -6.5s58 -6.5 92 -6.5
c44.667 0 84.667 5.5 120 16.5s65 26.333 89 46s42.333 43 55 70s19 56.5 19 88.5c0 31.333 -6.5 60 -19.5 86s-32.333 48.333 -58 67s-57.5 33.167 -95.5 43.5s-81.667 15.5 -131 15.5h-113v66h113c42.667 0 81.5 4.83301 116.5 14.5s64.667 23 89 40s43.166 37 56.499 60
s20 48.167 20 75.5c0 24 -5.33301 47.167 -16 69.5s-27 42.166 -49 59.499s-49.833 31.166 -83.5 41.499s-73.5 15.5 -119.5 15.5c-44 0 -81.667 -4.33301 -113 -13s-57.5 -18.334 -78.5 -29.001s-37.5 -20.334 -49.5 -29.001s-21 -13 -27 -13
c-5.33301 0 -9.66602 1 -12.999 3s-6.66602 5.66699 -9.99902 11l-22 35c34 32 75.833 58 125.5 78s108.167 30.667 175.5 32l-202 228h57c15.333 0 27.333 -5.33301 36 -16l147 -163c2.66699 -3.33301 5 -6.5 7 -9.5s4.33301 -6.16699 7 -9.5
c4 7.33301 8.33301 13.666 13 18.999l105 135c16 20.667 33.333 34.834 52 42.501s37.667 11.5 57 11.5c9.33301 0 17.5 -0.833008 24.5 -2.5s13.833 -3.5 20.5 -5.5v-46h-24c-17.333 0 -32.666 -4.33301 -45.999 -13s-25.666 -19.667 -36.999 -33z" />
    <glyph glyph-name="uni0470" unicode="&#x470;" horiz-adv-x="1590" 
d="M1474 1415v-499.999c0 -85.333 -13.667 -162 -41 -230s-67.5 -126.333 -120.5 -175s-118.5 -86.334 -196.5 -113.001s-168 -41 -270 -43v-354h-103v354c-102 2 -192 16.333 -270 43s-143.5 64.334 -196.5 113.001s-93 107 -120 175s-40.5 144.667 -40.5 230v500h66
c12 0 21.167 -3.66699 27.5 -11s9.5 -16.333 9.5 -27v-462c0 -74 11 -140.333 33 -199s54.833 -108.334 98.5 -149.001s98.167 -72.167 163.5 -94.5s141.666 -34.5 228.999 -36.5v979h103v-979c174.667 4 305.834 47.667 393.501 131s131.5 199.333 131.5 348v462
c0 10.667 3 19.667 9 27s15 11 27 11h67z" />
    <glyph glyph-name="uni0471" unicode="&#x471;" horiz-adv-x="1463" 
d="M1274 995l24.0049 -116.995c7.33301 -36.667 13.5 -73 18.5 -109s8.83301 -72.667 11.5 -110s4 -77.333 4 -120c0 -66.667 -7.16699 -126.5 -21.5 -179.5s-34.333 -99.5 -60 -139.5s-55.834 -74.333 -90.501 -103s-72.5 -52.334 -113.5 -71.001
s-84.167 -32.834 -129.5 -42.501s-91 -15.834 -137 -18.501v-337h-95v337c-80.667 2.66699 -153.834 14.834 -219.501 36.501s-122 52 -169 91s-83.333 86.5 -109 142.5s-38.5 120 -38.5 192v548h64c9.33301 0 16.833 -4.33301 22.5 -13s8.5 -17.334 8.5 -26.001v-509
c0 -56.667 10.5 -107.834 31.5 -153.501s50.833 -85.167 89.5 -118.5s85.167 -59.666 139.5 -78.999s114.5 -31 180.5 -35v1354h95v-1354c56 3.33301 111.167 13.666 165.5 30.999s103.166 44.5 146.499 81.5s78.333 85.167 105 144.5s40 133 40 221
c0 40 -1.83301 78.333 -5.5 115s-8.33398 72.167 -14.001 106.5s-11.834 67.833 -18.501 100.5l-20 98c-0.666992 13.333 2 22.666 8 27.999s12.667 8 20 8h67z" />
    <glyph glyph-name="afii10147" unicode="&#x472;" horiz-adv-x="1583" 
d="M221 685c2 -96 17.499 -181.667 46.499 -257s68.5 -139.333 118.5 -192s109.333 -92.834 178 -120.501s144.334 -41.5 227.001 -41.5c83.333 0 159.333 13.833 228 41.5s128 67.834 178 120.501s89.167 116.667 117.5 192s43.5 161 45.5 257h-1139zM1358 764
c-5.33301 90.667 -22.499 171.834 -51.499 243.501s-68.333 132.334 -118 182.001s-108.167 87.667 -175.5 114s-141.333 39.5 -222 39.5c-80 0 -153.667 -13.167 -221 -39.5s-125.833 -64.333 -175.5 -114s-89.334 -110.334 -119.001 -182.001
s-47.167 -152.834 -52.5 -243.501h1135zM791 1431c100 0 191.5 -17.168 274.5 -51.501s154.167 -83.166 213.5 -146.499s105.333 -139.5 138 -228.5s49 -187.833 49 -296.5c0 -109.333 -16.333 -208.5 -49 -297.5s-78.667 -165 -138 -228s-130.5 -111.667 -213.5 -146
s-174.5 -51.5 -274.5 -51.5s-191.333 17.167 -274 51.5s-153.667 83 -213 146s-105.333 139 -138 228s-49 188.167 -49 297.5c0 108.667 16.333 207.5 49 296.5s78.667 165 138 228s130.333 111.833 213 146.5s174 52 274 52z" />
    <glyph glyph-name="afii10195" unicode="&#x473;" horiz-adv-x="1116" 
d="M198 466c2 -62.667 11.3311 -119 27.998 -169s40.167 -92.5 70.5 -127.5s67.333 -62 111 -81s93.834 -28.5 150.501 -28.5s106.834 9.5 150.501 28.5s80.5 46 110.5 81s53.333 77.5 70 127.5s26 106.333 28 169h-719zM916.998 532c-2.66699 62 -12.166 118 -28.499 168
s-39.5 92.667 -69.5 128s-66.833 62.5 -110.5 81.5s-93.834 28.5 -150.501 28.5s-106.834 -9.5 -150.501 -28.5s-80.667 -46.167 -111 -81.5s-53.666 -78 -69.999 -128s-25.833 -106 -28.5 -168h719zM557.999 1011c71.333 0 135.166 -12.167 191.499 -36.5
s103.833 -58.833 142.5 -103.5s68.167 -98.5 88.5 -161.5s30.5 -133.5 30.5 -211.5s-10.167 -148.333 -30.5 -211s-49.833 -116.334 -88.5 -161.001s-86.167 -79 -142.5 -103s-120.166 -36 -191.499 -36s-135.166 12 -191.499 36s-104 58.333 -143 103
s-68.667 98.334 -89 161.001s-30.5 133 -30.5 211s10.167 148.5 30.5 211.5s50 116.833 89 161.5s86.667 79.167 143 103.5s120.166 36.5 191.499 36.5z" />
    <glyph glyph-name="afii10148" unicode="&#x474;" horiz-adv-x="1360" 
d="M1051 1261c18 53.333 45.667 92.834 83 118.501s79 38.5 125 38.5c21.333 0 38.833 -1.83301 52.5 -5.5s20.5 -9.16699 20.5 -16.5v-62h-54c-28.667 0 -55 -9.5 -79 -28.5s-42.333 -45.833 -55 -80.5l-444 -1225h-92l-584 1415h82c9.33301 0 17 -2.5 23 -7.5
s10.667 -11.5 14 -19.5l481 -1174c6 -14.667 11.667 -30.334 17 -47.001s10 -34 14 -52c8 36 17.667 69 29 99z" />
    <glyph glyph-name="afii10196" unicode="&#x475;" horiz-adv-x="1050" 
d="M772 860c10.667 30.667 22.6689 55.501 36.002 74.501s27.666 33.667 42.999 44s31.333 17.166 48 20.499s34 5 52 5c21.333 0 36.166 -1.83301 44.499 -5.5s12.5 -7.16699 12.5 -10.5v-53h-27c-32 0 -57.667 -7 -77 -21s-35 -37 -47 -69l-324 -845h-84l-411 995h75
c9.33301 0 17 -2.5 23 -7.5s10 -10.5 12 -16.5l320 -785c5.33301 -15.333 10 -30.333 14 -45s7.66699 -29.667 11 -45c3.33301 15.333 6.83301 30.333 10.5 45s8.16699 29.667 13.5 45z" />
    <glyph glyph-name="uni0476" unicode="&#x476;" horiz-adv-x="1360" 
d="M1051 1261c18 53.333 45.667 92.834 83 118.501s79 38.5 125 38.5c21.333 0 38.833 -1.83301 52.5 -5.5s20.5 -9.16699 20.5 -16.5v-62h-54c-28.667 0 -55 -9.5 -79 -28.5s-42.333 -45.833 -55 -80.5l-444 -1225h-92l-584 1415h82c9.33301 0 17 -2.5 23 -7.5
s10.667 -11.5 14 -19.5l481 -1174c6 -14.667 11.667 -30.334 17 -47.001s10 -34 14 -52c8 36 17.667 69 29 99zM647 1810c16 0 28.833 -2.5 38.5 -7.5s18.167 -13.167 25.5 -24.5l159 -236h-47c-8 0 -14.833 1.33301 -20.5 4s-11.167 7 -16.5 13l-204 251h65zM315 1810
c16 0 28.668 -2.5 38.001 -7.5s18.666 -13.167 27.999 -24.5l188 -236h-52c-14.667 0 -28 5.66699 -40 17l-237 251h75z" />
    <glyph glyph-name="uni0477" unicode="&#x477;" horiz-adv-x="1050" 
d="M772 860c10.667 30.667 22.6689 55.501 36.002 74.501s27.666 33.667 42.999 44s31.333 17.166 48 20.499s34 5 52 5c21.333 0 36.166 -1.83301 44.499 -5.5s12.5 -7.16699 12.5 -10.5v-53h-27c-32 0 -57.667 -7 -77 -21s-35 -37 -47 -69l-324 -845h-84l-411 995h75
c9.33301 0 17 -2.5 23 -7.5s10 -10.5 12 -16.5l320 -785c5.33301 -15.333 10 -30.333 14 -45s7.66699 -29.667 11 -45c3.33301 15.333 6.83301 30.333 10.5 45s8.16699 29.667 13.5 45zM455.002 1431c16 0 28 -2.33301 36 -7s15.667 -13 23 -25l152 -238h-42
c-8 0 -15 1.16699 -21 3.5s-11.333 6.83301 -16 13.5l-199 253h67zM191.002 1431c16 0 27.667 -2.5 35 -7.5s15.333 -13.167 24 -24.5l182 -238h-47c-8 0 -14.833 1.16699 -20.5 3.5s-11.167 6.83301 -16.5 13.5l-232 253h75z" />
    <glyph glyph-name="uni0478" unicode="&#x478;" horiz-adv-x="2574" 
d="M1466 708c0 -109.333 -16.333 -208.501 -49 -297.501s-78.667 -165 -138 -228s-130.5 -111.667 -213.5 -146s-174.5 -51.5 -274.5 -51.5s-191.333 17.167 -274 51.5s-153.667 83 -213 146s-105.333 139 -138 228s-49 188.167 -49 297.5c0 108.667 16.333 207.5 49 296.5
s78.667 165 138 228s130.333 111.833 213 146.5s174 52 274 52s191.5 -17.167 274.5 -51.5s154.167 -83.166 213.5 -146.499s105.333 -139.5 138 -228.5s49 -187.833 49 -296.5zM1360 707.999c0 98.667 -13.667 187.334 -41 266.001s-66 145.334 -116 200.001
s-110 96.5 -180 125.5s-147.333 43.5 -232 43.5c-84 0 -161 -14.5 -231 -43.5s-130.167 -70.833 -180.5 -125.5s-89.333 -121.334 -117 -200.001s-41.5 -167.334 -41.5 -266.001c0 -99.333 13.833 -188.166 41.5 -266.499s66.667 -144.833 117 -199.5
s110.5 -96.334 180.5 -125.001s147 -43 231 -43c84.667 0 162 14.333 232 43s130 70.334 180 125.001s88.667 121.167 116 199.5s41 167.166 41 266.499zM2540 994.999l-572 -1315c-4 -9.33301 -9.16699 -17 -15.5 -23s-15.5 -9 -27.5 -9h-68l175 389l-421 958h79
c10 0 18 -2.5 24 -7.5s10 -10.5 12 -16.5l335 -774c4 -10 7.5 -20.167 10.5 -30.5s5.83301 -20.833 8.5 -31.5c3.33301 10.667 6.83301 21.167 10.5 31.5s7.5 20.5 11.5 30.5l331 774c3.33301 7.33301 8 13.166 14 17.499s12.667 6.5 20 6.5h73z" />
    <glyph glyph-name="uni0479" unicode="&#x479;" horiz-adv-x="2088" 
d="M558 1011c71.333 0 135.166 -12.167 191.499 -36.5s103.833 -58.833 142.5 -103.5s68.167 -98.5 88.5 -161.5s30.5 -133.5 30.5 -211.5s-10.167 -148.333 -30.5 -211s-49.833 -116.334 -88.5 -161.001s-86.167 -79 -142.5 -103s-120.166 -36 -191.499 -36
s-135.166 12 -191.499 36s-104 58.333 -143 103s-68.667 98.334 -89 161.001s-30.5 133 -30.5 211s10.167 148.5 30.5 211.5s50 116.833 89 161.5s86.667 79.167 143 103.5s120.166 36.5 191.499 36.5zM558 62c59.333 0 111.166 10.167 155.499 30.5s81.333 49.5 111 87.5
s51.834 83.833 66.501 137.5s22 113.834 22 180.501c0 66 -7.33301 126 -22 180s-36.834 100.167 -66.501 138.5s-66.667 67.833 -111 88.5s-96.166 31 -155.499 31s-111.166 -10.333 -155.499 -31s-81.333 -50.167 -111 -88.5s-52 -84.5 -67 -138.5s-22.5 -114 -22.5 -180
c0 -66.667 7.5 -126.834 22.5 -180.501s37.333 -99.5 67 -137.5s66.667 -67.167 111 -87.5s96.166 -30.5 155.499 -30.5zM2052 995l-572 -1315c-4 -9.33301 -9.16699 -17 -15.5 -23s-15.5 -9 -27.5 -9h-68l175 389l-421 958h79c10 0 18 -2.5 24 -7.5s10 -10.5 12 -16.5
l335 -774c4 -10 7.5 -20.167 10.5 -30.5s5.83301 -20.833 8.5 -31.5c3.33301 10.667 6.83301 21.167 10.5 31.5s7.5 20.5 11.5 30.5l331 774c3.33301 7.33301 8 13.166 14 17.499s12.667 6.5 20 6.5h73z" />
    <glyph glyph-name="uni047A" unicode="&#x47a;" horiz-adv-x="1650" 
d="M923 77c75.333 7.33301 144.166 27.001 206.499 59.001s115.666 75 159.999 129s78.666 118.333 102.999 193s36.5 158.334 36.5 251.001s-12.167 176.167 -36.5 250.5s-58.666 138.5 -102.999 192.5s-97.666 97 -159.999 129s-131.166 51.667 -206.499 59
c-8.66699 -18 -21.667 -32.5 -39 -43.5s-37 -16.5 -59 -16.5c-21.333 0 -40.666 5.5 -57.999 16.5s-30.333 25.5 -39 43.5c-76 -7.33301 -145 -27 -207 -59s-115.333 -75 -160 -129s-79.167 -118.333 -103.5 -193s-36.5 -158.334 -36.5 -251.001
c0 -93.333 12.333 -177.333 37 -252s59.167 -139 103.5 -193s97.666 -96.833 159.999 -128.5s131.5 -50.834 207.5 -57.501c8.66699 18 21.5 32.667 38.5 44s36.167 17 57.5 17c22 0 41.5 -5.66699 58.5 -17s30.167 -26 39.5 -44zM1533 709.001
c0 -102.667 -14.6641 -196.5 -43.9971 -281.5s-70.5 -158.833 -123.5 -221.5s-116.833 -112.834 -191.5 -150.501s-157.334 -60.167 -248.001 -67.5c-8 -20 -21 -36.167 -39 -48.5s-38.667 -18.5 -62 -18.5c-22.667 0 -42.834 6.16699 -60.501 18.5s-30.5 28.5 -38.5 48.5
c-91.333 7.33301 -174.333 29.5 -249 66.5s-138.667 86.833 -192 149.5s-94.666 136.5 -123.999 221.5s-44 179.167 -44 282.5c0 102.667 14.667 196.5 44 281.5s70.666 158.833 123.999 221.5s117.333 112.667 192 150s157.667 59.666 249 66.999
c8 20 20.833 36.333 38.5 49s37.834 19 60.501 19c23.333 0 44 -6.33301 62 -19s31 -29 39 -49c90.667 -7.33301 173.167 -29.666 247.5 -66.999s138.166 -87.166 191.499 -149.499s94.666 -136 123.999 -221s44 -178.833 44 -281.5z" />
    <glyph glyph-name="uni047B" unicode="&#x47b;" horiz-adv-x="1200" 
d="M700 66c49.333 6.66699 92.667 21.502 130 44.502s68.333 53 93 90s43.167 80.667 55.5 131s18.5 105.833 18.5 166.5s-6.16699 116.167 -18.5 166.5s-31 94.166 -56 131.499s-56 67.666 -93 90.999s-80.5 38.333 -130.5 45
c-7.33301 -20.667 -20.166 -37.334 -38.499 -50.001s-39.5 -19 -63.5 -19c-23.333 0 -44 6.33301 -62 19s-30.667 29.334 -38 50.001c-49.333 -6.66699 -92.5 -21.834 -129.5 -45.501s-67.833 -54.167 -92.5 -91.5s-43.167 -81.166 -55.5 -131.499
s-18.5 -105.5 -18.5 -165.5c0 -60.667 6.16699 -116 18.5 -166s30.833 -93.5 55.5 -130.5s55.334 -67.167 92.001 -90.5s79.667 -38.333 129 -45c7.33301 21.333 20.166 38.666 38.499 51.999s39.166 20 62.499 20c24 0 45.333 -6.66699 64 -20s31.667 -30.666 39 -51.999z
M1095 498.002c0 -72 -8.83594 -137.835 -26.5029 -197.502s-43.5 -111.5 -77.5 -155.5s-75.5 -79.333 -124.5 -106s-104.833 -43 -167.5 -49c-8 -20.667 -21.167 -37.334 -39.5 -50.001s-39.166 -19 -62.499 -19s-44 6.33301 -62 19s-30.667 29.334 -38 50.001
c-62 6.66699 -117.5 23.334 -166.5 50.001s-90.333 61.834 -124 105.501s-59.334 95.334 -77.001 155.001s-26.5 125.5 -26.5 197.5s8.83301 137.833 26.5 197.5s43.334 111.5 77.001 155.5s74.834 79.5 123.501 106.5s104.334 43.833 167.001 50.5
c7.33301 20.667 20 37.667 38 51s38.667 20 62 20s44.333 -6.66699 63 -20s31.667 -30.333 39 -51c62.667 -6.66699 118.5 -23.334 167.5 -50.001s90.5 -62 124.5 -106s59.833 -96 77.5 -156s26.5 -126 26.5 -198z" />
    <glyph glyph-name="uni047C" unicode="&#x47c;" horiz-adv-x="2150" 
d="M1532 1649c-57.333 0 -109.669 8 -157.002 24s-92 33.667 -134 53s-82.667 37 -122 53s-79.666 24 -120.999 24c-52 0 -92.667 -14 -122 -42s-44 -65 -44 -111h-63c0 31.333 5.16699 59.833 15.5 85.5s25.166 47.5 44.499 65.5s42.833 32 70.5 42s58.834 15 93.501 15
c46.667 0 90.834 -8 132.501 -24s83.5 -33.833 125.5 -53.5s85.667 -37.5 131 -53.5s95.333 -24 150 -24v-54zM1043 1408c0 7.33301 7.33301 12.001 22 14.001c22 5.33301 38.833 16.166 50.5 32.499s18.167 40.833 19.5 73.5c-9.33301 -6 -20.333 -9 -33 -9
c-23.333 0 -40.666 5.83301 -51.999 17.5s-17 26.167 -17 43.5c0 20 6.5 36.167 19.5 48.5s30.167 18.5 51.5 18.5c23.333 0 42 -8 56 -24s21 -41.667 21 -77c0 -20 -2.5 -39.667 -7.5 -59s-13 -36.5 -24 -51.5s-25.333 -27 -43 -36s-38.834 -13.5 -63.501 -13.5v22z
M1255 1318c17.333 16 35.6562 30.833 54.9893 44.5s40.333 25.5 63 35.5s47.334 17.667 74.001 23s56.667 8 90 8c85.333 0 158.666 -18.333 219.999 -55s111.833 -86.834 151.5 -150.501s68.834 -138.5 87.501 -224.5s28 -178.333 28 -277c0 -120 -12.833 -226 -38.5 -318
s-62 -169.167 -109 -231.5s-103.167 -109.333 -168.5 -141s-137.333 -47.5 -216 -47.5c-87.333 0 -166.166 17.667 -236.499 53s-130.5 82.333 -180.5 141c-50 -58.667 -110.333 -105.667 -181 -141s-149.667 -53 -237 -53c-78.667 0 -150.667 15.833 -216 47.5
s-121.333 78.667 -168 141s-83 139.5 -109 231.5s-39 198 -39 318c0 98.667 9.33301 191 28 277s47.834 160.833 87.501 224.5s90.167 113.834 151.5 150.501s135 55 221 55c32.667 0 62.5 -2.66699 89.5 -8s51.833 -13 74.5 -23s43.667 -21.833 63 -35.5
s37.666 -28.5 54.999 -44.5l-22 -47c-4 -5.33301 -7.5 -9 -10.5 -11s-7.16699 -3 -12.5 -3c-6 0 -13.833 4.33301 -23.5 13s-23 18.334 -40 29.001s-38.667 20.334 -65 29.001s-58.833 13 -97.5 13c-65.333 0 -122.666 -14.333 -171.999 -43s-90.666 -69.667 -123.999 -123
s-58.5 -118.333 -75.5 -195s-25.5 -163 -25.5 -259c0 -108.667 10.833 -203.5 32.5 -284.5s51.834 -148.5 90.501 -202.5s85 -94.5 139 -121.5s113.667 -40.5 179 -40.5c42.667 0 82.5 5.33301 119.5 16s70.667 25.5 101 44.5s57.5 41 81.5 66s44.667 52.167 62 81.5h85
c17.333 -29.333 38 -56.5 62 -81.5s51.333 -47 82 -66s64.334 -33.833 101.001 -44.5s76.334 -16 119.001 -16c65.333 0 125 13.5 179 40.5s100.5 67.5 139.5 121.5s69.167 121.5 90.5 202.5s32 175.833 32 284.5c0 96 -8.33301 182.333 -25 259s-41.667 141.667 -75 195
s-74.666 94.333 -123.999 123s-106.666 43 -171.999 43c-39.333 0 -72 -4.33301 -98 -13s-47.5 -18.334 -64.5 -29.001s-30.333 -20.334 -40 -29.001s-17.5 -13 -23.5 -13c-5.33301 0 -9.66602 1 -12.999 3s-6.66602 5.66699 -9.99902 11z" />
    <glyph glyph-name="uni047D" unicode="&#x47d;" horiz-adv-x="1558" 
d="M1230 1277c-38 0 -73.8301 3.83398 -107.497 11.501s-65.834 17.167 -96.501 28.5s-59.834 23.5 -87.501 36.5s-54.834 25.167 -81.501 36.5s-53.334 20.833 -80.001 28.5s-53.667 11.5 -81 11.5c-52 0 -92.667 -13.833 -122 -41.5s-44 -64.834 -44 -111.501h-63
c0 31.333 5.16699 59.833 15.5 85.5s25.166 47.667 44.499 66s42.833 32.5 70.5 42.5s58.834 15 93.501 15c46.667 0 90.834 -8 132.501 -24s83.5 -33.833 125.5 -53.5s85.667 -37.5 131 -53.5s95.333 -24 150 -24v-54zM741.003 1036c0 4 1.83301 7 5.5 9
s9.16699 3.66699 16.5 5c21.333 5.33301 38 16 50 32s18.667 40.333 20 73c-9.33301 -6 -20.333 -9 -33 -9c-23.333 0 -40.666 6 -51.999 18s-17 26.667 -17 44c0 20 6.5 36 19.5 48s30.167 18 51.5 18c23.333 0 42 -7.83301 56 -23.5s21 -41.5 21 -77.5
c0 -20 -2.5 -39.5 -7.5 -58.5s-13 -36 -24 -51s-25.333 -27 -43 -36s-38.834 -13.5 -63.501 -13.5v22zM899.003 926.001c25.333 23.333 53.8301 42.5 85.4971 57.5s71.5 22.5 119.5 22.5c60.667 0 112.834 -13 156.501 -39s79.5 -61.5 107.5 -106.5
s48.667 -97.833 62 -158.5s20 -125.667 20 -195c0 -83.333 -9 -157.166 -27 -221.499s-43.5 -118.5 -76.5 -162.5s-72.667 -77.333 -119 -100s-97.833 -34 -154.5 -34c-60.667 0 -115.5 11.833 -164.5 35.5s-91.833 55.834 -128.5 96.501
c-37.333 -40.667 -80.5 -72.834 -129.5 -96.501s-103.833 -35.5 -164.5 -35.5c-57.333 0 -109.166 11.333 -155.499 34s-85.833 56 -118.5 100s-58 98.167 -76 162.5s-27 138.166 -27 221.499c0 69.333 6.5 134.333 19.5 195s33.5 113.5 61.5 158.5s63.833 80.5 107.5 106.5
s96.167 39 157.5 39c24 0 45.667 -2 65 -6s37.333 -9.5 54 -16.5s31.834 -15.5 45.501 -25.5s26.834 -20.667 39.501 -32l-19 -44c-5.33301 -8.66699 -12 -13 -20 -13c-4.66699 0 -10.5 3 -17.5 9s-16.333 12.667 -28 20s-26.334 14 -44.001 20s-39.5 9 -65.5 9
c-43.333 0 -81.5 -9.66699 -114.5 -29s-60.667 -47 -83 -83s-39.166 -80 -50.499 -132s-17 -111 -17 -177c0 -73.333 7 -137.333 21 -192s34 -100.334 60 -137.001s57.167 -64.167 93.5 -82.5s76.833 -27.5 121.5 -27.5c58 0 107.5 14 148.5 42s73.5 63 97.5 105h74
c24 -42 56.667 -77 98 -105s91 -42 149 -42c44.667 0 85.167 9.16699 121.5 27.5s67.333 45.833 93 82.5s45.5 82.334 59.5 137.001s21 118.667 21 192c0 66 -5.66699 125 -17 177s-28 96 -50 132s-49.5 63.667 -82.5 83s-71.167 29 -114.5 29c-26 0 -47.833 -3 -65.5 -9
s-32.334 -12.667 -44.001 -20s-21 -14 -28 -20s-12.833 -9 -17.5 -9c-8 0 -14.667 4.33301 -20 13z" />
    <glyph glyph-name="uni047E" unicode="&#x47e;" horiz-adv-x="2149" 
d="M1255 1318c17.333 16 35.6562 30.833 54.9893 44.5s40.333 25.5 63 35.5s47.334 17.667 74.001 23s56.667 8 90 8c85.333 0 158.666 -18.333 219.999 -55s111.833 -86.834 151.5 -150.501s68.834 -138.5 87.501 -224.5s28 -178.333 28 -277
c0 -120 -12.833 -226 -38.5 -318s-62 -169.167 -109 -231.5s-103.167 -109.333 -168.5 -141s-137.333 -47.5 -216 -47.5c-87.333 0 -166.166 17.667 -236.499 53s-130.5 82.666 -180.5 141.999c-50.667 -59.333 -111.167 -106.666 -181.5 -141.999
s-149.166 -53 -236.499 -53c-79.333 0 -151.5 15.833 -216.5 47.5s-121 78.667 -168 141s-83.333 139.5 -109 231.5s-38.5 198 -38.5 318c0 98.667 9.33301 191 28 277s47.834 160.833 87.501 224.5s90.167 113.834 151.5 150.501s135 55 221 55
c32.667 0 62.5 -2.66699 89.5 -8s51.667 -13 74 -23s43.166 -21.833 62.499 -35.5s37.666 -28.5 54.999 -44.5l-22 -47c-3.33301 -5.33301 -6.66602 -9 -9.99902 -11s-7.66602 -3 -12.999 -3c-6 0 -13.833 4.33301 -23.5 13s-22.834 18.334 -39.501 29.001
s-38.167 20.334 -64.5 29.001s-58.833 13 -97.5 13c-65.333 0 -122.666 -14.333 -171.999 -43s-90.666 -69.667 -123.999 -123s-58.5 -118.333 -75.5 -195s-25.5 -163 -25.5 -259c0 -108.667 10.833 -203.5 32.5 -284.5s51.834 -148.5 90.501 -202.5s85 -94.5 139 -121.5
s113.667 -40.5 179 -40.5c38.667 0 75.167 4.5 109.5 13.5s66.333 21.167 96 36.5s57 33.666 82 54.999s47.5 44.666 67.5 69.999v549h103v-549c20 -25.333 42.5 -48.666 67.5 -69.999s52.333 -39.666 82 -54.999s61.667 -27.5 96 -36.5s70.833 -13.5 109.5 -13.5
c64.667 0 124.167 13.5 178.5 40.5s100.833 67.5 139.5 121.5s68.834 121.5 90.501 202.5s32.5 175.833 32.5 284.5c0 96 -8.33301 182.333 -25 259s-41.667 141.667 -75 195s-74.666 94.333 -123.999 123s-106.666 43 -171.999 43c-39.333 0 -72 -4.33301 -98 -13
s-47.5 -18.334 -64.5 -29.001s-30.333 -20.334 -40 -29.001s-17.5 -13 -23.5 -13c-5.33301 0 -9.66602 1 -12.999 3s-6.66602 5.66699 -9.99902 11zM1480.99 1737l-0.00195312 -11.9971c0 -3.33301 -0.666992 -7.66602 -2 -12.999l-26 -127
c-2 -8.66699 -7.16699 -12.834 -15.5 -12.501s-13.166 4.5 -14.499 12.5l-19 99h-296l-19 -99c-2 -8.66699 -7.16699 -12.834 -15.5 -12.501s-13.5 4.5 -15.5 12.5l-19 99h-295l-20 -99c-2 -8.66699 -7.16699 -12.834 -15.5 -12.501s-13.5 4.5 -15.5 12.5l-24 127
c-1.33301 5.33301 -2.16602 9.66602 -2.49902 12.999s-0.5 7.33301 -0.5 12h815z" />
    <glyph glyph-name="uni047F" unicode="&#x47f;" horiz-adv-x="1535" 
d="M1364 995c12.667 -46.667 23.667 -96.5029 33 -149.503s14 -108.833 14 -167.5c0 -70 -7.16699 -136.667 -21.5 -200s-34.666 -123.333 -60.999 -180s-58.333 -109.834 -96 -159.501s-79.834 -95.834 -126.501 -138.501h-57c-6.66699 0 -12.167 1.33301 -16.5 4
s-9.16602 6.66699 -14.499 12c-27.333 26 -53.666 56 -78.999 90s-48.833 70.833 -70.5 110.5s-41.167 81.167 -58.5 124.5s-31.333 87 -42 131c-10.667 -44 -24.5 -87.667 -41.5 -131s-36.5 -84.833 -58.5 -124.5s-45.833 -76.667 -71.5 -111s-52.5 -64.5 -80.5 -90.5
c-4.66699 -5.33301 -8.5 -9.16602 -11.5 -11.499s-7.5 -3.5 -13.5 -3.5h-61c-92 83.333 -164 179.333 -216 288s-78 227.334 -78 356.001v351h60c11.333 0 19.666 -3.33301 24.999 -10s8 -14 8 -22v-310c0 -116 20.833 -220.5 62.5 -313.5s103.167 -177.167 184.5 -252.5
c35.333 32.667 68 71.5 98 116.5s56 92.667 78 143s39.167 102 51.5 155s18.5 104.5 18.5 154.5v339h60c11.333 0 19.666 -3.33301 24.999 -10s8 -14 8 -22v-304c0 -50 6 -101.5 18 -154.5s28.833 -104.833 50.5 -155.5s47.667 -98.667 78 -144s63.5 -85 99.5 -119
c37.333 36.667 71.833 75.834 103.5 117.501s58.834 86.834 81.501 135.501s40.334 101 53.001 157s19 116.333 19 181c0 44 -2.33301 82.333 -7 115s-9.83398 60.834 -15.501 84.501s-10.834 42.834 -15.501 57.501s-7 26 -7 34c0 7.33301 2.16699 13.666 6.5 18.999
s10.5 8 18.5 8h66zM1175 1317l-0.00195312 -11.9971c0 -3.33301 -0.666992 -7.66602 -2 -12.999l-26 -127c-2 -8.66699 -7.16699 -12.834 -15.5 -12.501s-13.166 4.5 -14.499 12.5l-19 99h-296l-19 -99c-2 -8.66699 -7.16699 -12.834 -15.5 -12.501s-13.5 4.5 -15.5 12.5
l-19 99h-295l-20 -99c-2 -8.66699 -7.16699 -12.834 -15.5 -12.501s-13.5 4.5 -15.5 12.5l-24 127c-1.33301 5.33301 -2.16602 9.66602 -2.49902 12.999s-0.5 7.33301 -0.5 12h815z" />
    <glyph glyph-name="uni0480" unicode="&#x480;" horiz-adv-x="1281" 
d="M896 -8c-17.333 -2 -36.834 -3.66797 -58.501 -5.00098s-40.167 -2 -55.5 -2c-98 0 -187.833 17.167 -269.5 51.5s-151.667 83 -210 146s-103.833 139 -136.5 228s-49 188.167 -49 297.5c0 107.333 16.667 205.333 50 294s80 164.834 140 228.501s132 113 216 148
s176.667 52.5 278 52.5c97.333 0 183.166 -15 257.499 -45s142.166 -72.333 203.499 -127l-31 -45c-5.33301 -8 -13.666 -12 -24.999 -12c-8 0 -21 7.33301 -39 22s-43 30.834 -75 48.501s-71.833 33.834 -119.5 48.501s-104.834 22 -171.501 22
c-85.333 0 -163.333 -14.667 -234 -44s-131.667 -71.333 -183 -126s-91.166 -121.334 -119.499 -200.001s-42.5 -167 -42.5 -265c0 -100 14.333 -189.333 43 -268s68.167 -145.334 118.5 -200.001s110 -96.5 179 -125.5s144.167 -43.5 225.5 -43.5c24.667 0 46 1 64 3
s33.167 4 45.5 6s22.833 4 31.5 6s16.334 3 23.001 3h30v-412c0 -10 -2.66699 -17.833 -8 -23.5s-12.666 -8.5 -21.999 -8.5h-56v347z" />
    <glyph glyph-name="uni0481" unicode="&#x481;" horiz-adv-x="898" 
d="M618 -7c-27.333 -4 -56.0029 -6.00098 -86.0029 -6.00098c-63.333 0 -121.166 11.5 -173.499 34.5s-97.333 56.333 -135 100s-67 97.167 -88 160.5s-31.5 135.333 -31.5 216c0 76 10 145.333 30 208s49.333 116.667 88 162s85.834 80.5 141.501 105.5
s119.5 37.5 191.5 37.5c64.667 0 122 -10.333 172 -31s93.667 -48.667 131 -84l-25 -34c-3.33301 -3.33301 -6.5 -6.16602 -9.5 -8.49902s-7.16699 -3.5 -12.5 -3.5c-6.66699 0 -15.667 4.5 -27 13.5s-26.666 18.833 -45.999 29.5s-43.5 20.5 -72.5 29.5
s-64.167 13.5 -105.5 13.5c-57.333 0 -108.166 -10.167 -152.499 -30.5s-81.833 -49.5 -112.5 -87.5s-53.834 -84 -69.501 -138s-23.5 -114.667 -23.5 -182c0 -70 8.16699 -132 24.5 -186s39.5 -99.5 69.5 -136.5s66.333 -65.167 109 -84.5s90 -29 142 -29
c20 0 36.833 1 50.5 3s25.167 4 34.5 6s16.833 4 22.5 6s10.167 3 13.5 3h35v-404c0 -20.667 -10 -31 -30 -31h-55v348z" />
    <glyph glyph-name="uni0482" unicode="&#x482;" horiz-adv-x="1438" 
d="M933 922l-335 -487l382 -263l-47 -72l-384 265l-261 -379l-78 52l262 380l-397 274l47 71l399 -274l335 486l-398 274l47 72l400 -275l261 379l78 -52l-262 -381l382 -263l-47 -72z" />
    <glyph glyph-name="uni0483" unicode="&#x483;" horiz-adv-x="800" 
d="M128 1194v-82h-38c-22 0 -41.667 6 -59 18s-26 30.667 -26 56c0 28 8.33301 47.833 25 59.5s37 17.5 61 17.5h581v82h38c10.667 0 21.167 -1.5 31.5 -4.5s19.5 -7.5 27.5 -13.5s14.333 -13.667 19 -23s7 -20.333 7 -33c0 -28 -8.5 -47.833 -25.5 -59.5
s-37.167 -17.5 -60.5 -17.5h-581z" />
    <glyph glyph-name="uni0484" unicode="&#x484;" horiz-adv-x="800" 
d="M574 1306c-32 0 -62.334 -3.83301 -91.001 -11.5s-56.834 -17.5 -84.501 -29.5l-83.5 -38c-28 -13.333 -57.333 -26 -88 -38s-63.167 -21.833 -97.5 -29.5s-71.5 -11.5 -111.5 -11.5v60c54 0 104 8.33301 150 25s90.833 35 134.5 55s87.834 38.333 132.501 55
s93 25 145 25c68.667 0 121.667 -20 159 -60s56 -93.333 56 -160h-71c0 26 -4 48.833 -12 68.5s-18.667 36.167 -32 49.5s-29.166 23.333 -47.499 30s-37.833 10 -58.5 10z" />
    <glyph glyph-name="uni0485" unicode="&#x485;" horiz-adv-x="800" 
d="M485 1158c-27.333 0 -50.499 5.16797 -69.499 15.501s-34.667 23.666 -47 39.999s-21.333 35 -27 56s-8.5 42.5 -8.5 64.5c0 38 7.83301 65 23.5 81s36.167 24 61.5 24c24 0 43 -6.66699 57 -20s21 -31 21 -53c0 -19.333 -6.16699 -35.333 -18.5 -48s-31.5 -19 -57.5 -19
c-13.333 0 -24.666 2.33301 -33.999 7c1.33301 -32 8.16602 -56.333 20.499 -73s30.166 -27.667 53.499 -33c16.667 -4 25 -9.66699 25 -17v-25z" />
    <glyph glyph-name="uni0486" unicode="&#x486;" horiz-adv-x="800" 
d="M343 1175c0 5.33301 2.16309 9.16895 6.49609 11.502s10.833 4.16602 19.5 5.49902c23.333 5.33301 41 16.166 53 32.499s18.667 41.5 20 75.5c-9.33301 -6 -20.666 -9 -33.999 -9c-25.333 0 -44.166 6.5 -56.499 19.5s-18.5 29.167 -18.5 48.5
c0 21.333 7 38.833 21 52.5s32.667 20.5 56 20.5c26 0 46.833 -8.83301 62.5 -26.5s23.5 -45.5 23.5 -83.5c0 -22 -2.83301 -43.333 -8.5 -64s-14.667 -39 -27 -55s-28.166 -28.667 -47.499 -38s-42.666 -14 -69.999 -14v24z" />
    <glyph glyph-name="uni0488" unicode="&#x488;" horiz-adv-x="2206" 
d="M1103 31c66.667 0 116.833 -18.333 150.5 -55s50.5 -88.334 50.5 -155.001h-69c0 48 -10.5 84.5 -31.5 109.5s-54.5 37.5 -100.5 37.5s-79.667 -12.5 -101 -37.5s-32 -61.5 -32 -109.5h-69c0 66.667 17 118.334 51 155.001s84.333 55 151 55zM1103 1551
c66.667 0 116.833 -18.333 150.5 -55s50.5 -88.334 50.5 -155.001h-69c0 48 -10.5 84.5 -31.5 109.5s-54.5 37.5 -100.5 37.5s-79.667 -12.5 -101 -37.5s-32 -61.5 -32 -109.5h-69c0 66.667 17 118.334 51 155.001s84.333 55 151 55zM336.998 791
c66.667 0 117 -18.333 151 -55s51 -88.334 51 -155.001h-69c0 48 -10.667 84.5 -32 109.5s-55 37.5 -101 37.5s-79.5 -12.5 -100.5 -37.5s-31.5 -61.5 -31.5 -109.5h-69c0 66.667 17 118.334 51 155.001s84 55 150 55zM1868 791c66.667 0 116.832 -18.333 150.499 -55
s50.5 -88.334 50.5 -155.001h-69c0 48 -10.5 84.5 -31.5 109.5s-54.5 37.5 -100.5 37.5s-79.5 -12.5 -100.5 -37.5s-31.5 -61.5 -31.5 -109.5h-69c0 66.667 16.833 118.334 50.5 155.001s83.834 55 150.501 55zM527.996 336c66.667 0 116.833 -18.333 150.5 -55
s50.5 -88.334 50.5 -155.001h-69c0 48 -10.5 84.5 -31.5 109.5s-54.5 37.5 -100.5 37.5s-79.667 -12.5 -101 -37.5s-32 -61.5 -32 -109.5h-69c0 66.667 17 118.334 51 155.001s84.333 55 151 55zM1678 336c66.667 0 116.833 -18.333 150.5 -55s50.5 -88.334 50.5 -155.001
h-69c0 48 -10.5 84.5 -31.5 109.5s-54.5 37.5 -100.5 37.5s-79.667 -12.5 -101 -37.5s-32 -61.5 -32 -109.5h-69c0 66.667 17 118.334 51 155.001s84.333 55 151 55zM527.994 1246c66.667 0 116.833 -18.333 150.5 -55s50.5 -88.334 50.5 -155.001h-69
c0 48 -10.5 84.5 -31.5 109.5s-54.5 37.5 -100.5 37.5s-79.667 -12.5 -101 -37.5s-32 -61.5 -32 -109.5h-69c0 66.667 17 118.334 51 155.001s84.333 55 151 55zM1677.99 1246c66.667 0 116.833 -18.333 150.5 -55s50.5 -88.334 50.5 -155.001h-69
c0 48 -10.5 84.5 -31.5 109.5s-54.5 37.5 -100.5 37.5s-79.667 -12.5 -101 -37.5s-32 -61.5 -32 -109.5h-69c0 66.667 17 118.334 51 155.001s84.333 55 151 55z" />
    <glyph glyph-name="uni0489" unicode="&#x489;" horiz-adv-x="2140" 
d="M1848 1230c0.666992 -6.66699 -1.33496 -11.9971 -6.00195 -15.9971c-2 -3.33301 -7.33301 -5 -16 -5c-8 -0.666992 -20 -1.83398 -36 -3.50098s-34 -5 -54 -10s-40.667 -12.167 -62 -21.5s-41.666 -21.666 -60.999 -36.999c9.33301 -4 18 -10 26 -18
c16 -16.667 23.667 -35.834 23 -57.501s-9.66699 -41.5 -27 -59.5c-8 -7.33301 -16.833 -13 -26.5 -17s-19.667 -6.16699 -30 -6.5s-20.5 1.5 -30.5 5.5s-19.333 10.333 -28 19c-19.333 19.333 -27.666 41.166 -24.999 65.499s14.667 47.166 36 68.499
c38 38 85.167 66.833 141.5 86.5s114.833 28.167 175.5 25.5v-19zM123.998 768.003c5.33301 6 10.6641 8.66602 15.9971 7.99902c2 0 4.33301 -0.833008 7 -2.5s5.33398 -3.5 8.00098 -5.5c6 -5.33301 15.333 -13.166 28 -23.499s27.667 -20.833 45 -31.5
s37 -20.334 59 -29.001s45.333 -14.334 70 -17.001c-4.66699 10.667 -7 21.334 -7 32.001c0.666992 23.333 8.83398 42.333 24.501 57s35.834 22.334 60.501 23.001c22 -0.666992 41.167 -8.5 57.5 -23.5s24.5 -34.833 24.5 -59.5c0 -27.333 -9.5 -48.5 -28.5 -63.5
s-43.5 -22.5 -73.5 -22.5c-54 0 -108 13 -162 39s-101.333 61 -142 105zM314.996 54.002c-0.666992 6.66699 1.33594 11.9961 6.00293 15.9961c3.33301 3.33301 8.66602 5 15.999 5c8 0.666992 20.167 1.83398 36.5 3.50098s34.333 5 54 10s40.167 12.167 61.5 21.5
s41.666 21.666 60.999 36.999c-4 2 -8.16699 4.33301 -12.5 7s-8.83301 6.33398 -13.5 11.001c-16 16.667 -23.667 35.834 -23 57.501s9.66699 41.5 27 59.5c8 7.33301 16.833 13 26.5 17s19.667 6.16699 30 6.5s20.666 -1.5 30.999 -5.5s19.833 -10.333 28.5 -19
c19.333 -19.333 27.5 -41.166 24.5 -65.499s-15.167 -47.166 -36.5 -68.499c-38 -38 -85.167 -66.833 -141.5 -86.5s-114.833 -28.167 -175.5 -25.5v19zM493.999 1409c7.33301 0 12.6631 -2 15.9961 -6c3.33301 -3.33301 5 -8.66602 5 -15.999
c0.666992 -8.66699 1.83398 -21 3.50098 -37s5 -33.833 10 -53.5s12 -40.334 21 -62.001s21.5 -41.834 37.5 -60.501c2 4 4.33301 8 7 12s6.33398 8.33301 11.001 13c16.667 16.667 35.834 24.667 57.501 24s41.167 -9.66699 58.5 -27c15.333 -16 23.333 -35.167 24 -57.5
s-7.66602 -42.166 -24.999 -59.499c-19.333 -19.333 -41 -27.5 -65 -24.5s-46.667 15.167 -68 36.5c-38 38 -66.833 85.167 -86.5 141.5s-28.5 114.833 -26.5 175.5zM954.996 -316.002c-5.33301 5.33301 -7.66895 10.667 -7.00195 16c0 4.66699 2.66699 9.66699 8 15
l23 28.5c10 12.333 20.333 27.333 31 45s20.334 37.167 29.001 58.5s14.334 44.333 17.001 69c-10 -3.33301 -20.333 -5 -31 -5c-23.333 0 -42.5 7.83301 -57.5 23.5s-22.5 36.167 -22.5 61.5c0 22 7.66699 41 23 57s35.333 24 60 24c27.333 0 48.5 -9.5 63.5 -28.5
s22.5 -43.5 22.5 -73.5c0 -54 -13.167 -107.833 -39.5 -161.5s-61.5 -101.167 -105.5 -142.5zM1207.99 1600c5.33301 -5.33301 7.66895 -10.667 7.00195 -16c0 -4 -2.33301 -9 -7 -15l-23.5 -28.5c-10.333 -12.333 -20.833 -27.333 -31.5 -45s-20.334 -37.167 -29.001 -58.5
s-14.334 -44.333 -17.001 -69c10 3.33301 20.333 5 31 5c23.333 0 42.5 -7.83301 57.5 -23.5s22.833 -36.167 23.5 -61.5c-0.666992 -22 -8.5 -41 -23.5 -57s-35.167 -24 -60.5 -24c-27.333 0 -48.5 9.5 -63.5 28.5s-22.5 43.5 -22.5 73.5c0 54 13.167 107.833 39.5 161.5
s61.5 101.167 105.5 142.5zM1669 -125.002c-7.33301 0 -12.666 2.00195 -15.999 6.00195c-2 2 -3.66699 7.33301 -5 16c-0.666992 8.66699 -1.83398 21 -3.50098 37s-5 34 -10 54s-12 40.667 -21 62s-21.167 41.666 -36.5 60.999c-3.33301 -8 -9.33301 -16.667 -18 -26
c-16.667 -16.667 -36 -24.667 -58 -24s-41.667 9.66699 -59 27c-7.33301 8 -13 17 -17 27s-6.16699 20.167 -6.5 30.5s1.5 20.666 5.5 30.999s10.333 19.833 19 28.5c19.333 19.333 41 27.5 65 24.5s46.667 -15.167 68 -36.5c38 -38 67 -85.167 87 -141.5
s28.667 -114.833 26 -175.5zM2039 516c-5.33301 -6 -10.3311 -8.66699 -14.998 -8c-2.66699 0 -5.16699 0.833008 -7.5 2.5l-7.5 5.5l-29 23.5c-12.667 10.333 -27.667 20.833 -45 31.5s-37 20.334 -59 29.001s-45.333 14.334 -70 17.001
c4.66699 -10.667 7 -21.334 7 -32.001c-0.666992 -23.333 -8.83398 -42.333 -24.501 -57s-35.834 -22.334 -60.501 -23.001c-22 0.666992 -41.167 8.5 -57.5 23.5s-24.5 34.833 -24.5 59.5c0.666992 27.333 10.5 48.5 29.5 63.5s43.5 22.5 73.5 22.5
c26.667 0 53.667 -3.5 81 -10.5s54 -16.667 80 -29s51.167 -27.333 75.5 -45s46.833 -37.5 67.5 -59.5z" />
    <glyph glyph-name="uni048A" unicode="&#x48a;" horiz-adv-x="1554" 
d="M975 1763c7.33301 0 13.167 -3.16699 17.5 -9.5s6.5 -14.166 6.5 -23.499c0 -64 -20.667 -114.5 -62 -151.5s-103.333 -55.5 -186 -55.5s-144.834 18.5 -186.501 55.5s-62.5 87.5 -62.5 151.5c0 9.33301 2.33301 17.166 7 23.499s10.667 9.5 18 9.5h53
c0 -67.333 13.333 -116 40 -146s70.334 -45 131.001 -45c60 0 103.333 15 130 45s40 78.667 40 146h54zM1492 82l-144.001 -436.999h-100l123 355h-173v1162c0 21.333 0.5 43.166 1.5 65.499s2.83301 45.5 5.5 69.5c-9.33301 -20.667 -18.666 -39.5 -27.999 -56.5
s-18.666 -32.833 -27.999 -47.5l-817 -1161c-5.33301 -8.66699 -12.166 -16.167 -20.499 -22.5s-17.5 -9.5 -27.5 -9.5h-75v1415h103v-1162c0 -21.333 -0.333008 -43 -1 -65s-2.33398 -44.667 -5.00098 -68c8.66699 20 17.667 38.5 27 55.5s18.666 32.833 27.999 47.5
l818 1160c5.33301 8.66699 12 16.167 20 22.5s17 9.5 27 9.5h75v-1333h191z" />
    <glyph glyph-name="uni048B" unicode="&#x48b;" horiz-adv-x="1188" 
d="M799 1415c7.33301 0 13.167 -3.16699 17.5 -9.5s6.5 -14.166 6.5 -23.499c0 -64 -20.667 -115.333 -62 -154s-103.333 -58 -186 -58s-144.834 19.333 -186.501 58s-62.5 90 -62.5 154c0 9.33301 2.33301 17.166 7 23.499s10.667 9.5 18 9.5h53
c0 -67.333 13.333 -116.166 40 -146.499s70.334 -45.5 131.001 -45.5c60 0 103.333 15.167 130 45.5s40 79.166 40 146.499h54zM1157 73l-142.002 -427.999h-90l124 355h-175v802c0 9.33301 0.333008 19.333 1 30s1.66699 21.334 3 32.001
c-4.66699 -9.33301 -9.16699 -17.833 -13.5 -25.5s-8.83301 -14.5 -13.5 -20.5c-1.33301 -1.33301 -10.666 -13.833 -27.999 -37.5l-68.5 -91.5l-96 -127l-108.5 -145l-295 -393c-4 -6 -9.16699 -11.5 -15.5 -16.5s-13.166 -7.5 -20.499 -7.5h-55v995h96v-802
c0 -9.33301 -0.333008 -19.333 -1 -30s-1.66699 -21.334 -3 -32.001c4 9.33301 8.33301 17.833 13 25.5l13 20.5c0.666992 1.33301 9.83398 13.666 27.501 36.999l69 91.5l95.5 127.5l109 145l295 392c4 6.66699 9.16699 12.5 15.5 17.5s13.166 7.5 20.499 7.5h55v-922h188z
" />
    <glyph glyph-name="uni048C" unicode="&#x48c;" horiz-adv-x="1278" 
d="M728 82c124 0 216.667 27.501 278 82.501s92 131.167 92 228.5c0 99.333 -30.333 174.166 -91 224.499s-153 75.5 -277 75.5h-331v-611h329zM730 775.001c78.667 0 147.5 -8.49805 206.5 -25.498s108 -41.667 147 -74s68.167 -71.5 87.5 -117.5s29 -98 29 -156
c0 -62 -10.5 -117.833 -31.5 -167.5s-51.5 -91.834 -91.5 -126.501s-89.333 -61.334 -148 -80.001s-125.667 -28 -201 -28h-432v1086h-252v79h252v250h103v-250h343v-79h-343v-311h331z" />
    <glyph glyph-name="uni048D" unicode="&#x48d;" horiz-adv-x="1027" 
d="M601 71c45.333 0 84.668 5.50098 118.001 16.501s61 26.333 83 46s38.333 43 49 70s16 56.5 16 88.5c0 29.333 -4.5 57 -13.5 83s-24 48.667 -45 68s-48.833 34.666 -83.5 45.999s-77.334 17 -128.001 17h-257v-435h261zM596.002 577.001c68 0 125.001 -8 171.001 -24
s82.667 -37.167 110 -63.5s46.833 -56.5 58.5 -90.5s17.5 -69 17.5 -105c0 -42 -7.5 -81 -22.5 -117s-37.333 -67.167 -67 -93.5s-66.334 -46.833 -110.001 -61.5s-94.5 -22 -152.5 -22h-352v795h-198v71h198v137h91v-137h232v-71h-232v-218h256z" />
    <glyph glyph-name="uni048E" unicode="&#x48e;" horiz-adv-x="1156" 
d="M786 696c60.667 28.667 107.168 68.999 139.501 120.999s48.5 111.333 48.5 178c0 108.667 -33.333 192.334 -100 251.001s-166.334 88 -299.001 88h-263v-682h263c48.667 0 94.667 5.66699 138 17l-113 171l63 41zM575.001 1415c166 0 291.167 -36.3311 375.5 -108.998
s126.5 -176.334 126.5 -311.001c0 -84.667 -21 -159.334 -63 -224.001s-101.667 -114.667 -179 -150l102 -154l-63 -42l-112 170c-28 -8 -57.667 -14.167 -89 -18.5s-64 -6.5 -98 -6.5h-263v-570h-103v1415h366z" />
    <glyph glyph-name="uni048F" unicode="&#x48f;" horiz-adv-x="1102" 
d="M260 217c19.333 -28.667 39.5029 -52.833 60.5029 -72.5s43.167 -35.667 66.5 -48s48.166 -21.166 74.499 -26.499s54.166 -8 83.499 -8c24 0 46.667 1.83301 68 5.5s41.666 9.16699 60.999 16.5l-117 177l63 41l121 -183c52.667 36.667 92.167 88.167 118.5 154.5
s39.5 143.166 39.5 230.499c0 148 -27.333 256.833 -82 326.5s-133 104.5 -235 104.5c-66 0 -125.667 -17 -179 -51s-101 -81.333 -143 -142v-525zM256.003 816.001c44 60 95.498 107.666 154.498 142.999s125.167 53 198.5 53c122 0 217.167 -42.333 285.5 -127
s102.5 -211.667 102.5 -381c0 -50 -4.5 -97.833 -13.5 -143.5s-22.333 -88 -40 -127s-39.5 -74.167 -65.5 -105.5s-56 -57.666 -90 -78.999l106 -161l-63 -42l-111 169c-23.333 -9.33301 -48 -16.333 -74 -21s-53.667 -7 -83 -7c-67.333 0 -125.666 12.333 -174.999 37
s-92 61 -128 109v-485h-96v1347h53c16.667 0 26.334 -8.33301 29.001 -25z" />
    <glyph glyph-name="afii10050" unicode="&#x490;" horiz-adv-x="1067" 
d="M1037 1333h-725v-1333h-103v1415h747v326h81v-408z" />
    <glyph glyph-name="afii10098" unicode="&#x491;" horiz-adv-x="808" 
d="M775 1251v-329h-515v-922h-96v995h525v256h86z" />
    <glyph glyph-name="uni0492" unicode="&#x492;" horiz-adv-x="1158" 
d="M399 1333v-543h342v-80h-342v-710h-103v710h-252v80h252v625h828v-82h-725z" />
    <glyph glyph-name="uni0493" unicode="&#x493;" horiz-adv-x="894" 
d="M346 922v-348h228v-71h-228v-503h-96v503h-197v71h197v421h610v-73h-514z" />
    <glyph glyph-name="uni0494" unicode="&#x494;" horiz-adv-x="1257" 
d="M312 740c45.333 28.667 95.333 51.5029 150 68.5029s116 25.5 184 25.5c73.333 0 141.333 -10 204 -30s117 -52.5 163 -97.5s82 -104.167 108 -177.5s39 -163 39 -269c0 -101.333 -12.833 -191 -38.5 -269s-61.334 -143.833 -107.001 -197.5
s-100.167 -94.334 -163.5 -122.001s-132.666 -41.5 -207.999 -41.5c-30 0 -60.333 2.5 -91 7.5s-62.334 12.167 -95.001 21.5c0.666992 9.33301 1.5 18.666 2.5 27.999s2.16699 18.666 3.5 27.999c1.33301 6 3.83301 11.333 7.5 16s10.167 7 19.5 7
c6 0 13.167 -1.16699 21.5 -3.5s18.166 -4.83301 29.499 -7.5s24.666 -5.16699 39.999 -7.5s33 -3.5 53 -3.5c63.333 0 121.333 11.333 174 34s97.834 56.5 135.501 101.5s67 101.5 88 169.5s31.5 147 31.5 237c0 92.667 -10.5 171 -31.5 235s-50.667 115.833 -89 155.5
s-84.166 68.167 -137.499 85.5s-112.333 26 -177 26c-41.333 0 -78.333 -3.16699 -111 -9.5s-61.667 -14.5 -87 -24.5s-47.666 -20.667 -66.999 -32s-36.333 -22 -51 -32v-662h-103v1415h828v-82h-725v-593z" />
    <glyph glyph-name="uni0495" unicode="&#x495;" horiz-adv-x="955" 
d="M774 995l-0.00292969 -73h-514v-435c32 25.333 68.167 45.5 108.5 60.5s86.5 22.5 138.5 22.5c54 0 103.333 -9.16699 148 -27.5s82.834 -46.166 114.501 -83.499s56.334 -84 74.001 -140s26.5 -121.667 26.5 -197c0 -76.667 -9.66699 -145.5 -29 -206.5
s-46 -112.667 -80 -155s-74.167 -74.833 -120.5 -97.5s-96.166 -34 -149.499 -34c-43.333 0 -88.333 7 -135 21c1.33301 9.33301 2.5 17 3.5 23s1.83301 13.667 2.5 23c1.33301 5.33301 3.66602 10 6.99902 14s9 6 17 6c8.66699 0 20.334 -2.5 35.001 -7.5s35 -7.5 61 -7.5
c42 0 80.833 8.66699 116.5 26s66.5 43.5 92.5 78.5s46.5 78.667 61.5 131s22.5 113.166 22.5 182.499c0 68.667 -7.33301 127 -22 175s-35.167 87.167 -61.5 117.5s-58 52.333 -95 66s-77.5 20.5 -121.5 20.5c-28 0 -53 -2.5 -75 -7.5s-41.833 -11.167 -59.5 -18.5
s-33 -15.333 -46 -24s-24.5 -16.667 -34.5 -24v-424h-96v995h610z" />
    </font>
</defs>
</svg>
