<svg xmlns="http://www.w3.org/2000/svg" width="16.313" height="23.06" viewBox="0 0 16.313 23.06">
  <defs>
    <style>
      .cls-1 {
        fill: #fff;
        fill-rule: evenodd;
      }
    </style>
  </defs>
  <path id="Icon_-_Pin_" data-name="Icon - Pin " class="cls-1" d="M611.939,2255.93a8.16,8.16,0,1,1-8.16,8.16A8.158,8.158,0,0,1,611.939,2255.93Zm-4.451,5.19s-3.338.13-3.585,4.95a21.98,21.98,0,0,0,8.3,12.93v-18.12Zm8.9,0s3.338,0.13,3.585,4.95a21.98,21.98,0,0,1-8.3,12.93v-18.12Zm-4.373-.17a3.285,3.285,0,1,1-3.284,3.29A3.286,3.286,0,0,1,612.017,2260.95Z" transform="translate(-603.781 -2255.94)"/>
</svg>
