<?xml version="1.0" encoding="utf-8"?>
<!-- Generator: Adobe Illustrator 23.0.0, SVG Export Plug-In . SVG Version: 6.00 Build 0)  -->
<svg version="1.1" xmlns="http://www.w3.org/2000/svg" xmlns:xlink="http://www.w3.org/1999/xlink" x="0px" y="0px"
	 viewBox="0 0 50 50" enable-background="new 0 0 50 50" xml:space="preserve">
<g id="twitter">
	<path id="twit_1_" fill="#FFFFFF" d="M49.496,5.413c-0.07-0.083-0.187-0.111-0.286-0.066c-1.468,0.651-3.013,1.12-4.604,1.396
		c1.689-1.27,2.947-3.03,3.593-5.047c0.031-0.097-0.001-0.202-0.08-0.265c-0.079-0.063-0.19-0.071-0.277-0.019
		c-1.902,1.128-3.962,1.923-6.126,2.364c-1.917-1.99-4.594-3.128-7.365-3.128c-5.635,0-10.219,4.584-10.219,10.219
		c0,0.682,0.066,1.356,0.197,2.012C16.525,12.397,9.227,8.65,4.265,2.564C4.214,2.501,4.137,2.467,4.056,2.475
		c-0.08,0.006-0.151,0.051-0.192,0.12c-0.905,1.553-1.384,3.33-1.384,5.138c0,3.133,1.423,6.062,3.847,7.995
		c-1.248-0.15-2.466-0.543-3.565-1.153c-0.074-0.042-0.166-0.041-0.24,0.002c-0.074,0.042-0.121,0.121-0.123,0.206l-0.001,0.131
		c0,4.499,2.965,8.45,7.183,9.762c-1.111,0.179-2.264,0.167-3.397-0.049c-0.083-0.016-0.171,0.013-0.228,0.077
		c-0.057,0.064-0.076,0.154-0.05,0.236c1.265,3.948,4.78,6.717,8.871,7.062c-3.413,2.5-7.446,3.817-11.708,3.817
		c-0.785,0-1.576-0.047-2.35-0.138c-0.111-0.013-0.22,0.053-0.259,0.159c-0.038,0.107,0.003,0.227,0.098,0.288
		c4.612,2.958,9.945,4.521,15.423,4.521c17.918,0,28.625-14.555,28.625-28.625c0-0.392-0.008-0.782-0.023-1.17
		c1.933-1.414,3.592-3.144,4.93-5.148C49.573,5.616,49.566,5.496,49.496,5.413z"/>
</g>
<g id="drible" display="none">
	<g display="inline">
		<g>
			<path fill="#FFFFFF" d="M20.446,0.711c-11.028,0-20,8.972-20,20s8.972,20,20,20s20-8.972,20-20S31.474,0.711,20.446,0.711z
				 M33.669,9.934c2.38,2.907,3.818,6.61,3.855,10.642c-0.565-0.12-6.208-1.265-11.895-0.55l-0.367-0.882
				c-0.355-0.833-0.735-1.66-1.132-2.475C30.446,14.091,33.309,10.421,33.669,9.934z M20.446,3.654c4.34,0,8.307,1.627,11.323,4.305
				c-0.305,0.438-2.875,3.892-8.95,6.17c-2.8-5.143-5.902-9.367-6.375-10C17.729,3.819,19.069,3.654,20.446,3.654z M13.184,5.276
				c0.45,0.617,3.502,4.847,6.332,9.88c-7.99,2.122-15.027,2.093-15.792,2.083C4.831,11.936,8.404,7.531,13.184,5.276z
				 M3.361,20.736l0.007-0.523c0.748,0.017,9.028,0.122,17.555-2.43c0.492,0.958,0.958,1.93,1.387,2.9l-0.675,0.202
				C12.829,23.734,8.141,31.499,7.751,32.159C5.026,29.131,3.364,25.126,3.361,20.736z M20.444,37.819
				c-3.948,0-7.588-1.345-10.485-3.605c0.307-0.625,3.767-7.31,13.403-10.668l0.112-0.038c2.4,6.23,3.387,11.455,3.645,12.955
				C25.071,37.336,22.814,37.821,20.444,37.819z M29.991,34.899c-0.175-1.04-1.087-6.04-3.317-12.18
				c5.352-0.857,10.055,0.547,10.64,0.732C36.549,28.201,33.826,32.309,29.991,34.899z"/>
		</g>
	</g>
</g>
<g id="facebook" display="none">
	<path display="inline" fill="#FFFFFF" d="M21.258,0.591l-5.187-0.008c-5.828,0-9.594,3.864-9.594,9.844v4.539H1.262
		c-0.451,0-0.816,0.365-0.816,0.816v6.576c0,0.451,0.365,0.816,0.816,0.816h5.215v16.594c0,0.451,0.365,0.816,0.816,0.816h6.805
		c0.451,0,0.816-0.365,0.816-0.816V23.173h6.098c0.451,0,0.816-0.365,0.816-0.816l0.002-6.576c0-0.216-0.086-0.424-0.239-0.577
		c-0.153-0.153-0.361-0.239-0.577-0.239h-6.1v-3.848c0-1.849,0.441-2.788,2.85-2.788l3.494-0.001c0.45,0,0.815-0.365,0.815-0.816
		V1.406C22.072,0.957,21.708,0.592,21.258,0.591z"/>
</g>
<g id="lupa" display="none">
	<path id="loupe" display="inline" fill="#FFFFFF" d="M39.558,35.27l-8.245-8.245c1.987-2.868,2.981-6.066,2.981-9.591
		c0-2.292-0.445-4.483-1.335-6.575c-0.889-2.092-2.091-3.894-3.606-5.409s-3.317-2.717-5.408-3.606
		c-2.092-0.89-4.283-1.334-6.575-1.334c-2.291,0-4.483,0.445-6.574,1.334C8.704,2.733,6.901,3.935,5.386,5.45
		C3.872,6.964,2.67,8.767,1.781,10.859c-0.889,2.092-1.334,4.283-1.334,6.575c0,2.291,0.445,4.482,1.334,6.574
		c0.889,2.091,2.091,3.894,3.606,5.408c1.514,1.515,3.318,2.717,5.409,3.606c2.092,0.889,4.283,1.334,6.574,1.334
		c3.526,0,6.723-0.994,9.592-2.981l8.245,8.221c0.577,0.609,1.297,0.913,2.163,0.913c0.833,0,1.555-0.305,2.163-0.913
		c0.609-0.609,0.913-1.33,0.913-2.163C40.447,36.584,40.151,35.863,39.558,35.27z M24.978,25.041
		c-2.107,2.108-4.643,3.161-7.608,3.161c-2.965,0-5.5-1.054-7.608-3.161c-2.108-2.107-3.161-4.643-3.161-7.608
		c0-2.965,1.054-5.501,3.161-7.608c2.107-2.108,4.643-3.161,7.608-3.161c2.965,0,5.501,1.054,7.608,3.161
		c2.108,2.107,3.161,4.643,3.161,7.608C28.14,20.398,27.086,22.933,24.978,25.041z"/>
</g>
</svg>
