<svg xmlns="http://www.w3.org/2000/svg" width="26" height="26" viewBox="0 0 26 26">
  <defs>
    <style>
      .cls-1 {
        fill: #fff;
        fill-rule: evenodd;
      }
    </style>
  </defs>
  <path id="Icon_-_My_Location" data-name="Icon - My Location" class="cls-1" d="M567.5,2257.67a9.225,9.225,0,1,1-9.226,9.23A9.227,9.227,0,0,1,567.5,2257.67Zm0,1.73a7.5,7.5,0,1,1-7.5,7.5A7.5,7.5,0,0,1,567.5,2259.4Zm-3.774,7.6a1.05,1.05,0,0,1-1.049,1.05h-7.129a1.05,1.05,0,0,1,0-2.1h7.129A1.05,1.05,0,0,1,563.726,2267Zm16.774,0a1.049,1.049,0,0,1-1.048,1.05h-7.129a1.05,1.05,0,0,1,0-2.1h7.129A1.049,1.049,0,0,1,580.5,2267Zm-13,3.77a1.049,1.049,0,0,1,1.048,1.05v7.13a1.048,1.048,0,1,1-2.1,0v-7.13A1.049,1.049,0,0,1,567.5,2270.77Zm0-16.77a1.049,1.049,0,0,1,1.048,1.05v7.13a1.048,1.048,0,1,1-2.1,0v-7.13A1.049,1.049,0,0,1,567.5,2254Z" transform="translate(-554.5 -2254)"/>
</svg>
